<svg width="575" height="443" viewBox="0 0 575 443" fill="none" xmlns="http://www.w3.org/2000/svg">
<g filter="url(#filter0_d_225_284)">
<g clip-path="url(#clip0_225_284)">
<rect x="42.783" y="268.856" width="121.615" height="188.917" rx="5" transform="rotate(30 42.783 268.856)" fill="white"/>
<path d="M116.456 356.79C116.303 356.633 116.242 356.313 116.322 356.087C116.374 355.94 116.458 355.866 116.866 355.61C118.512 354.578 119.647 353.409 120.612 351.751C121.545 350.15 121.971 348.73 122.094 346.805C122.12 346.392 122.162 346.018 122.188 345.975C122.28 345.816 122.55 345.664 122.749 345.659C123.023 345.651 123.347 345.869 123.422 346.111C123.45 346.204 123.46 346.557 123.444 346.895C123.378 348.233 123.086 349.575 122.582 350.856C122.27 351.648 121.488 353.041 121.01 353.655C120.129 354.79 119.159 355.695 118.004 356.464C117.305 356.929 116.949 357.08 116.78 356.983C116.746 356.964 116.687 356.94 116.648 356.931C116.608 356.922 116.522 356.858 116.456 356.79ZM114.93 354.417C114.697 354.175 114.692 353.722 114.919 353.516C114.974 353.466 115.27 353.261 115.577 353.06C116.873 352.207 117.871 351.067 118.483 349.735C118.987 348.642 119.178 347.879 119.258 346.647C119.312 345.821 119.355 345.713 119.692 345.562C120.012 345.419 120.476 345.634 120.587 345.977C120.663 346.214 120.566 347.526 120.421 348.218C119.942 350.506 118.643 352.51 116.727 353.923C115.745 354.647 115.277 354.775 114.93 354.417ZM113.346 351.988C113.218 351.812 113.174 351.547 113.239 351.343C113.278 351.218 113.392 351.121 113.834 350.832C115.461 349.769 116.309 348.332 116.424 346.444C116.475 345.614 116.542 345.482 116.963 345.387C117.172 345.34 117.241 345.351 117.432 345.461C117.75 345.644 117.823 345.896 117.774 346.633C117.698 347.767 117.431 348.635 116.859 349.614C116.27 350.62 115.7 351.215 114.692 351.875C114.114 352.252 113.9 352.316 113.611 352.198C113.523 352.162 113.404 352.067 113.346 351.988ZM111.867 349.725C111.762 349.59 111.713 349.317 111.759 349.131C111.811 348.923 111.935 348.807 112.334 348.594C112.847 348.319 113.042 348.126 113.367 347.568C113.692 347.011 113.764 346.746 113.748 346.167C113.743 345.97 113.754 345.745 113.772 345.666C113.851 345.336 114.291 345.129 114.646 345.255C114.948 345.362 115.065 345.589 115.092 346.116C115.17 347.643 114.307 349.124 112.942 349.806C112.46 350.046 112.095 350.018 111.867 349.725Z" fill="#D9DDD5"/>
<g clip-path="url(#clip1_225_284)">
<rect x="89.7427" y="321.408" width="16.1782" height="22.0311" rx="2" transform="rotate(30 89.7427 321.408)" fill="url(#paint0_linear_225_284)"/>
<path fill-rule="evenodd" clip-rule="evenodd" d="M96.7407 342.317L95.6334 337.634L100.255 336.258L100.164 335.875L95.4315 337.283L93.8438 336.367L95.4696 333.564L95.6729 333.213L100.144 325.505L99.8125 325.313L95.3415 333.022L90.7032 330.344L95.1741 322.635L94.8428 322.444L90.3719 330.153L90.1687 330.503L88.5429 333.306L86.9549 332.389L85.8209 327.594L85.4429 327.706L86.5504 332.39L81.9286 333.765L82.0192 334.148L86.7517 332.74L88.3396 333.657L86.7139 336.46L86.5106 336.81L82.0397 344.519L82.371 344.71L86.8419 337.001L91.4803 339.679L87.0094 347.388L87.3407 347.579L91.9132 339.695C91.9694 339.599 91.9407 339.477 91.8492 339.425L87.0452 336.651L88.7726 333.673L90.5 330.694L95.1383 333.372L93.4109 336.351C93.3548 336.447 93.3835 336.569 93.475 336.621L95.2283 337.634L96.3624 342.43L96.7407 342.317Z" fill="#BFC6B9"/>
</g>
<rect x="89.5597" y="320.725" width="17.1782" height="23.0311" rx="2.5" transform="rotate(30 89.5597 320.725)" stroke="url(#paint1_linear_225_284)"/>
<path d="M-113.558 502.944L-113.808 503.377L-113.375 503.627L-27.5542 553.176C-5.30519 566.021 14.5282 570.378 32.2046 566.303C49.3909 562.361 62.5385 552.507 71.4541 537.065C86.2048 511.516 90.7211 500.695 95.267 489.803L95.355 489.592C99.9176 478.66 104.578 467.559 119.798 441.197C128.544 426.048 130.502 409.735 125.324 392.881C120.136 375.997 106.445 361 84.1974 348.156L3.33868 301.472L2.90567 301.222L2.65567 301.655L-32.1343 361.913L-32.2218 362.064L-32.3843 362.346L-32.4718 362.497L-78.431 442.101L-78.5184 442.253L-78.681 442.534L-78.7684 442.686L-113.558 502.944ZM14.2074 388.668L36.7647 349.598L85.7912 430.387L-8.6874 428.323L13.8699 389.253L13.9574 389.101L14.1199 388.82L14.2074 388.668ZM-32.0893 468.857L-9.53199 429.786L39.4946 510.575L-54.9841 508.512L-32.4268 469.441L-32.3393 469.29L-32.1768 469.008L-32.0893 468.857Z" stroke="url(#paint2_linear_225_284)"/>
</g>
</g>
<g filter="url(#filter1_d_225_284)">
<g clip-path="url(#clip2_225_284)">
<rect x="320.287" y="392.736" width="121.615" height="191.278" rx="5" transform="rotate(30 320.287 392.736)" fill="black"/>
<path fill-rule="evenodd" clip-rule="evenodd" d="M231.38 437.683L216.743 446.13L216.543 445.785L231.18 437.337C235.222 435.005 238.855 434.227 242.035 434.996C245.201 435.763 247.638 437.622 249.274 440.453C251.466 444.248 251.599 448.852 248.836 452.221C253.311 451.123 257.741 452.917 260.163 457.111C261.83 459.997 262.222 463.036 261.302 466.161C260.358 469.383 257.868 472.139 253.826 474.472L238.291 483.438L238.091 483.093L253.626 474.127C257.616 471.824 260.014 469.138 260.92 466.048C261.807 463.032 261.432 460.105 259.817 457.31C257.372 453.077 252.82 451.39 248.302 452.783L247.577 453.006L248.098 452.455C251.167 449.211 251.167 444.529 248.928 440.653C247.346 437.913 244.999 436.124 241.941 435.384C238.896 434.647 235.37 435.38 231.38 437.683ZM226.722 444.803L244.939 444.59L236.002 459.657L253.523 459.453L244.231 475.118L239.866 467.56L240.211 467.361L244.235 474.328L252.818 459.86L235.992 460.056L239.413 465.979L239.068 466.178L231.885 453.742L232.23 453.543L235.651 459.466L244.234 444.997L227.408 445.193L231.432 452.161L231.087 452.36L226.722 444.803Z" fill="url(#paint3_linear_225_284)"/>
<path fill-rule="evenodd" clip-rule="evenodd" d="M179.358 349.795L95.196 398.368L94.9965 398.022L179.158 349.449C202.275 336.108 222.907 331.734 240.859 336.063C258.798 340.388 272.585 350.888 281.848 366.927C289.566 380.289 292.755 395.368 290.337 409.428C289.997 411.405 290.349 413.848 291.208 416.44C292.065 419.028 293.423 421.75 295.075 424.275C296.727 426.8 298.67 429.125 300.695 430.922C302.724 432.722 304.821 433.981 306.78 434.4C322.048 437.662 335.556 447.293 344.368 462.549C353.812 478.9 356.016 496.086 350.794 513.779C345.445 531.973 331.34 547.647 308.223 560.989L218.896 612.543L218.696 612.198L308.023 560.644C331.088 547.332 345.101 531.728 350.411 513.666L350.411 513.666C355.601 496.082 353.414 479.009 344.022 462.748C335.265 447.586 321.85 438.028 306.697 434.79C304.643 434.351 302.485 433.043 300.431 431.22C298.374 429.395 296.409 427.043 294.741 424.493C293.073 421.944 291.699 419.191 290.829 416.565C289.96 413.942 289.588 411.427 289.944 409.36C292.344 395.405 289.18 380.42 281.503 367.126C272.293 351.18 258.596 340.749 240.766 336.45C222.948 332.155 202.423 336.483 179.358 349.795Z" fill="url(#paint4_linear_225_284)"/>
<path fill-rule="evenodd" clip-rule="evenodd" d="M217.801 434.849C220.396 433.689 224.595 431.769 232.059 428.126L232.071 428.12L232.085 428.115C237.399 426.388 241.965 426.647 245.696 428.821L245.702 428.825L245.708 428.829C248.301 430.597 250.143 432.953 251.09 435.557C252.059 438.223 253.441 440.877 255.16 443.128C255.279 443.285 255.395 443.444 255.507 443.606C258.467 447.884 262.766 453.766 266.032 457.811C267.042 459.063 267.857 460.56 268.417 462.286L268.419 462.294L268.421 462.302C269.387 466.358 268.595 470.325 266.016 474.162C265.704 474.625 265.326 475.037 264.919 475.408L255.38 484.079C254.947 484.472 254.474 484.817 253.967 485.11L236.527 495.175L236.328 494.83L253.768 484.764C254.249 484.486 254.7 484.157 255.111 483.783L264.65 475.113C265.04 474.758 265.395 474.37 265.685 473.939C268.207 470.187 268.969 466.336 268.035 462.402C267.489 460.723 266.698 459.271 265.721 458.062C262.447 454.006 258.142 448.115 255.179 443.833C255.07 443.676 254.958 443.522 254.842 443.37C253.096 441.083 251.696 438.392 250.715 435.693C249.8 433.175 248.015 430.886 245.489 429.162C241.886 427.065 237.451 426.794 232.221 428.49C224.761 432.131 220.562 434.051 217.964 435.213C217.406 435.462 216.923 435.677 216.498 435.865C214.938 436.557 214.16 436.902 213.344 437.372L213.144 437.027C213.98 436.545 214.782 436.189 216.348 435.495C216.772 435.307 217.251 435.095 217.801 434.849Z" fill="url(#paint5_linear_225_284)"/>
<path fill-rule="evenodd" clip-rule="evenodd" d="M208.599 430.266C209.317 428.98 210.363 427.881 211.705 427.236C213.513 426.367 215.556 425.596 218.674 424.43C218.794 424.385 218.915 424.339 219.039 424.293C222.12 423.141 226.233 421.603 232.135 419.238C232.676 419.021 233.25 418.853 233.833 418.771C240.039 417.9 245.24 419.232 249.331 422.644L249.337 422.648L249.342 422.653C251.932 425.14 253.715 428.115 254.544 431.223C255.734 435.681 258.421 440.557 261.631 443.867C262.98 445.257 264.06 446.9 264.795 448.732C266.061 451.89 268.202 454.851 270.843 456.991C273.811 459.397 275.929 462.938 276.662 467.454L276.663 467.463L276.664 467.472C277.042 473.162 274.768 478.5 269.799 483.466L269.792 483.474L256.1 494.487C255.773 494.75 255.426 494.987 255.063 495.197L234.764 506.912L234.565 506.567L254.863 494.852C255.209 494.652 255.539 494.426 255.85 494.176L269.525 483.176C274.424 478.277 276.632 473.052 276.266 467.508C275.547 463.088 273.478 459.64 270.592 457.301C267.896 455.116 265.715 452.098 264.425 448.881C263.71 447.097 262.658 445.498 261.345 444.144C258.084 440.783 255.366 435.846 254.159 431.326C253.35 428.296 251.609 425.385 249.07 422.946C245.08 419.62 240 418.309 233.889 419.166C233.343 419.243 232.801 419.401 232.284 419.608C226.378 421.975 222.261 423.514 219.179 424.667C219.055 424.713 218.934 424.759 218.814 424.803C215.691 425.971 213.666 426.736 211.878 427.595C210.624 428.198 209.633 429.232 208.948 430.461L199.995 446.509L199.647 446.314L208.599 430.266Z" fill="url(#paint6_linear_225_284)"/>
<path fill-rule="evenodd" clip-rule="evenodd" d="M205.405 420.596C206.008 419.89 206.726 419.284 207.55 418.842C211.897 416.515 216.245 415.173 224.088 412.752C226.616 411.972 229.507 411.079 232.879 410.006C233.513 409.804 234.18 409.67 234.852 409.647C242.254 409.384 248.33 411.715 252.954 416.461L252.958 416.465L252.962 416.47C255.837 419.782 257.731 423.609 258.466 427.515C259.52 433.111 263.49 439.955 267.883 443.576C270.417 445.665 272.412 448.415 273.627 451.675C274.439 453.855 275.808 455.817 277.589 457.311C281.84 460.874 284.578 466.068 284.901 472.613L284.902 472.622L284.901 472.63C284.638 479.711 281.046 486.194 274.061 492.088L274.056 492.092L256.49 505.092L233.001 518.649L232.801 518.303L256.271 504.758L273.808 491.779C280.727 485.94 284.242 479.558 284.502 472.624C284.182 466.191 281.494 461.105 277.333 457.616C275.497 456.077 274.088 454.057 273.253 451.814C272.063 448.62 270.109 445.928 267.629 443.884C263.162 440.201 259.145 433.274 258.074 427.588C257.353 423.76 255.495 419.998 252.664 416.735C248.128 412.08 242.166 409.786 234.866 410.045C234.237 410.067 233.606 410.192 233 410.386C229.609 411.465 226.707 412.361 224.175 413.143C216.349 415.559 212.049 416.886 207.738 419.194C206.964 419.609 206.284 420.182 205.709 420.855L188.337 441.183L188.033 440.924L205.405 420.596Z" fill="url(#paint7_linear_225_284)"/>
<path fill-rule="evenodd" clip-rule="evenodd" d="M202.245 411.405C202.699 410.98 203.201 410.605 203.747 410.301C211.275 406.113 218.303 404.428 231.502 401.264C232.227 401.09 232.97 400.912 233.733 400.729C234.386 400.572 235.066 400.489 235.743 400.514C244.396 400.834 251.39 404.165 256.572 410.274L256.578 410.281C259.878 414.547 261.941 419.406 262.538 424.288C262.924 427.452 264.4 431.183 266.45 434.576C268.501 437.969 271.113 441.003 273.755 442.785C277.578 445.364 280.641 449.096 282.492 453.75C283.097 455.272 284.022 456.654 285.208 457.783C290.421 462.746 293.416 469.523 293.139 477.767L293.139 477.774L293.138 477.781C292.237 486.251 287.328 493.882 278.327 500.704L278.321 500.709L257.373 515.302L231.238 530.385L231.039 530.04L257.159 514.965L278.086 500.386C278.087 500.385 278.088 500.385 278.089 500.384C287.027 493.608 291.853 486.071 292.741 477.746C293.012 469.619 290.062 462.955 284.933 458.072C283.704 456.902 282.748 455.471 282.121 453.897C280.3 449.317 277.288 445.65 273.532 443.116C270.826 441.29 268.178 438.206 266.109 434.782C264.04 431.358 262.537 427.573 262.142 424.336C261.555 419.533 259.523 414.742 256.265 410.529C251.16 404.512 244.275 401.228 235.728 400.913C235.093 400.889 234.45 400.967 233.827 401.117C233.074 401.297 232.341 401.473 231.625 401.645C218.395 404.816 211.42 406.489 203.941 410.65C203.426 410.936 202.95 411.291 202.517 411.696L176.686 435.842L176.413 435.551L202.245 411.405Z" fill="url(#paint8_linear_225_284)"/>
<path fill-rule="evenodd" clip-rule="evenodd" d="M199.034 402.411C199.368 402.14 199.725 401.894 200.101 401.681C210.21 395.962 219.385 393.968 234.665 391.44C235.284 391.337 235.921 391.303 236.55 391.359C246.492 392.251 254.43 396.589 260.185 404.086L260.19 404.091C263.999 409.424 266.25 415.458 266.641 421.443C266.864 424.861 268.514 429.094 270.87 432.904C273.227 436.714 276.272 440.067 279.256 441.746C284.479 444.683 288.749 449.337 291.37 455.402C291.833 456.475 292.473 457.467 293.265 458.325C299.267 464.828 302.324 473.151 301.375 482.917L301.375 482.923L301.374 482.929C299.835 492.788 293.612 501.566 282.594 509.319L282.59 509.322L258.255 525.512L229.474 542.122L229.275 541.777L258.045 525.173L282.365 508.993C282.366 508.992 282.366 508.992 282.367 508.991C293.324 501.28 299.461 492.589 300.979 482.873C301.915 473.224 298.897 465.015 292.972 458.595C292.148 457.703 291.485 456.674 291.003 455.56C288.416 449.574 284.206 444.987 279.061 442.093C275.994 440.369 272.907 436.953 270.531 433.114C268.155 429.274 266.472 424.977 266.243 421.469C265.857 415.566 263.636 409.603 259.867 404.326C254.183 396.923 246.348 392.638 236.515 391.757C235.923 391.704 235.321 391.736 234.73 391.833C219.454 394.361 210.341 396.347 200.298 402.028C199.942 402.229 199.603 402.463 199.285 402.721L165.038 430.494L164.787 430.184L199.034 402.411Z" fill="url(#paint9_linear_225_284)"/>
<path fill-rule="evenodd" clip-rule="evenodd" d="M196.142 393.243L196.152 393.238C208.574 386.069 219.667 383.651 235.652 382.156C236.201 382.105 236.76 382.109 237.31 382.18C248.563 383.64 257.463 388.994 263.798 397.894L263.801 397.898C268.178 404.395 270.617 411.724 270.727 418.911C270.782 422.507 272.568 427.149 275.175 431.293C277.783 435.436 281.185 439.037 284.432 440.58C291.153 443.772 296.748 449.311 300.241 456.821C300.592 457.576 301.036 458.285 301.565 458.927C308.251 467.036 311.261 476.877 309.612 488.064L309.611 488.073C307.437 499.321 299.899 509.248 286.865 517.931L286.862 517.933L259.135 535.724L227.712 553.859L227.513 553.513L258.932 535.38L286.644 517.599C286.644 517.599 286.645 517.599 286.645 517.598C299.62 508.953 307.069 499.109 309.218 488.001C310.849 476.931 307.873 467.204 301.257 459.18C300.706 458.512 300.244 457.774 299.879 456.989C296.425 449.561 290.895 444.091 284.261 440.94C280.915 439.351 277.463 435.677 274.838 431.505C272.212 427.332 270.385 422.617 270.328 418.917C270.219 411.817 267.809 404.562 263.472 398.123C257.202 389.316 248.403 384.021 237.259 382.575C236.741 382.508 236.212 382.505 235.689 382.554C219.737 384.045 208.709 386.453 196.361 393.578L153.395 425.142L153.159 424.821L196.142 393.243Z" fill="url(#paint10_linear_225_284)"/>
<path fill-rule="evenodd" clip-rule="evenodd" d="M192.746 384.484L192.753 384.48C207.285 376.093 220.261 373.28 236.672 372.891C237.127 372.88 237.587 372.908 238.038 372.981C250.618 375.01 260.489 381.385 267.409 391.703L267.411 391.706C272.399 399.45 275.016 408.175 274.769 416.638C274.66 420.362 276.551 425.339 279.363 429.752C282.175 434.165 285.872 437.959 289.324 439.354C297.628 442.71 304.65 449.107 309.094 458.098C309.351 458.618 309.656 459.117 310.004 459.581C317.307 469.327 320.208 480.665 317.848 493.21L317.847 493.216C315.037 505.853 306.186 516.929 291.135 526.544L291.133 526.545L260.025 545.929L260.02 545.932L225.948 565.596L225.749 565.251L259.82 545.587L290.92 526.208C290.921 526.208 290.921 526.207 290.922 526.207C305.915 516.628 314.676 505.631 317.457 493.133C319.795 480.702 316.922 469.478 309.685 459.82C309.322 459.336 309.004 458.816 308.736 458.275C304.334 449.369 297.385 443.042 289.175 439.724C285.609 438.283 281.855 434.406 279.027 429.966C276.197 425.526 274.258 420.467 274.37 416.627C274.615 408.254 272.025 399.607 267.077 391.923C260.219 381.699 250.445 375.386 237.974 373.375C237.549 373.306 237.114 373.28 236.682 373.29C220.325 373.678 207.419 376.478 192.959 384.822L141.753 419.789L141.528 419.46L192.746 384.484Z" fill="url(#paint11_linear_225_284)"/>
<path fill-rule="evenodd" clip-rule="evenodd" d="M189.355 375.722C206.182 366.011 221.187 362.838 238.223 363.672L238.235 363.672L238.248 363.675C252.405 366.188 263.424 373.626 271.02 385.509L271.021 385.511C276.654 394.575 279.438 404.784 278.756 414.584C278.49 418.4 280.462 423.652 283.441 428.282C286.419 432.913 290.362 436.858 293.976 438.105C303.935 441.543 312.472 448.777 317.933 459.285C318.111 459.627 318.311 459.961 318.53 460.278C326.406 471.672 329.161 484.489 326.085 498.353L326.084 498.358C322.639 512.384 312.474 524.609 295.407 535.156L295.406 535.156L260.909 556.138L260.905 556.141L224.186 577.333L223.986 576.987L260.706 555.795L295.197 534.816C312.209 524.304 322.283 512.155 325.696 498.265C328.746 484.514 326.016 471.81 318.202 460.504C317.973 460.174 317.764 459.825 317.579 459.469C312.163 449.048 303.704 441.886 293.846 438.482C290.104 437.191 286.099 433.154 283.105 428.498C280.11 423.841 278.083 418.5 278.358 414.556C279.033 404.85 276.277 394.724 270.683 385.723C263.149 373.938 252.231 366.566 238.191 364.069C221.236 363.241 206.312 366.397 189.558 376.065L130.113 414.434L129.897 414.099L189.355 375.722Z" fill="url(#paint12_linear_225_284)"/>
<path fill-rule="evenodd" clip-rule="evenodd" d="M185.955 366.965C204.88 356.043 221.759 352.471 239.102 354.468L239.11 354.469L239.119 354.471C254.536 357.588 266.477 366.048 274.629 379.316L274.63 379.317C280.936 389.762 283.871 401.53 282.68 412.714C282.474 414.651 282.875 416.989 283.723 419.452C284.571 421.912 285.859 424.484 287.413 426.882C288.966 429.28 290.781 431.5 292.679 433.258C294.579 435.018 296.551 436.305 298.417 436.856C310.193 440.331 320.394 448.488 326.921 460.719C335.489 473.845 338.141 488.227 334.321 503.496L334.32 503.499C330.24 518.914 318.762 532.289 299.678 543.767L261.792 566.348L261.789 566.349L222.422 589.07L222.223 588.724L261.588 566.005L261.59 566.004L299.472 543.425C318.502 531.98 329.889 518.678 333.934 503.397C337.726 488.238 335.095 473.967 326.582 460.929L326.577 460.922L326.573 460.914C320.095 448.77 309.976 440.683 298.304 437.238C296.357 436.664 294.332 435.332 292.408 433.55C290.482 431.766 288.646 429.52 287.078 427.099C285.509 424.678 284.206 422.077 283.346 419.582C282.488 417.089 282.068 414.688 282.283 412.672C283.464 401.586 280.555 389.903 274.289 379.524C266.196 366.351 254.352 357.96 239.048 354.863C221.806 352.879 205.014 356.426 186.157 367.309C186.157 367.309 186.156 367.31 186.155 367.31L118.473 409.08L118.264 408.74L185.955 366.965Z" fill="url(#paint13_linear_225_284)"/>
<path fill-rule="evenodd" clip-rule="evenodd" d="M182.557 358.207C203.578 346.075 222.333 342.103 239.981 345.265L239.989 345.267C256.668 348.988 269.532 358.468 278.239 373.122C285.241 385.001 288.311 398.397 286.54 411.003C286.265 412.963 286.643 415.36 287.498 417.894C288.353 420.425 289.681 423.079 291.289 425.548C292.896 428.016 294.782 430.294 296.749 432.076C298.719 433.86 300.76 435.135 302.677 435.618C316.172 439.015 327.995 447.912 335.644 461.634C344.651 476.373 347.079 492.157 342.557 508.638L342.557 508.639C337.842 525.444 325.051 539.968 303.95 552.379L262.676 576.557L220.659 600.807L220.46 600.461L262.475 576.212L303.748 552.035C324.796 539.656 337.495 525.203 342.173 508.532C346.664 492.159 344.254 476.488 335.302 461.838L335.298 461.831C327.699 448.199 315.965 439.374 302.58 436.005C300.574 435.5 298.477 434.178 296.482 432.372C294.484 430.563 292.578 428.258 290.954 425.765C289.331 423.273 287.988 420.589 287.12 418.021C286.254 415.457 285.858 412.993 286.145 410.948C287.902 398.442 284.858 385.138 277.896 373.325C269.244 358.766 256.474 349.355 239.907 345.657C222.377 342.517 203.718 346.455 182.756 358.553L106.835 403.724L106.63 403.381L182.557 358.207Z" fill="url(#paint14_linear_225_284)"/>
</g>
<g clip-path="url(#clip3_225_284)">
<rect x="426.553" y="208.679" width="121.615" height="188.917" rx="5" transform="rotate(30 426.553 208.679)" fill="white"/>
<path d="M500.226 296.612C500.073 296.455 500.012 296.135 500.092 295.909C500.144 295.763 500.228 295.688 500.635 295.433C502.281 294.4 503.417 293.231 504.382 291.574C505.315 289.972 505.741 288.553 505.864 286.628C505.89 286.215 505.932 285.841 505.957 285.798C506.05 285.639 506.32 285.487 506.519 285.481C506.792 285.473 507.117 285.692 507.192 285.933C507.22 286.026 507.23 286.379 507.214 286.717C507.148 288.056 506.856 289.397 506.352 290.678C506.04 291.471 505.258 292.863 504.78 293.478C503.899 294.612 502.929 295.518 501.773 296.287C501.075 296.752 500.719 296.903 500.55 296.806C500.516 296.786 500.457 296.763 500.418 296.754C500.378 296.744 500.291 296.681 500.226 296.612ZM498.7 294.239C498.467 293.998 498.462 293.544 498.689 293.338C498.744 293.289 499.04 293.083 499.347 292.882C500.643 292.03 501.64 290.889 502.253 289.558C502.757 288.464 502.948 287.701 503.028 286.47C503.082 285.644 503.125 285.536 503.461 285.385C503.782 285.242 504.246 285.457 504.357 285.799C504.433 286.037 504.336 287.349 504.191 288.04C503.711 290.328 502.413 292.332 500.497 293.745C499.515 294.469 499.047 294.598 498.7 294.239ZM497.116 291.811C496.988 291.635 496.943 291.369 497.009 291.165C497.048 291.041 497.162 290.944 497.604 290.654C499.231 289.592 500.079 288.154 500.194 286.266C500.245 285.437 500.312 285.305 500.733 285.209C500.942 285.163 501.011 285.173 501.202 285.283C501.52 285.467 501.593 285.719 501.543 286.456C501.467 287.59 501.201 288.458 500.628 289.437C500.04 290.443 499.47 291.037 498.462 291.697C497.884 292.075 497.67 292.139 497.381 292.02C497.293 291.984 497.174 291.89 497.116 291.811ZM495.637 289.547C495.532 289.412 495.483 289.139 495.529 288.954C495.581 288.746 495.705 288.629 496.104 288.416C496.617 288.142 496.812 287.949 497.137 287.391C497.462 286.833 497.534 286.569 497.518 285.989C497.513 285.793 497.524 285.567 497.542 285.488C497.621 285.158 498.061 284.951 498.416 285.077C498.717 285.184 498.835 285.411 498.862 285.939C498.94 287.466 498.076 288.947 496.712 289.628C496.23 289.869 495.865 289.841 495.637 289.547Z" fill="#D9DDD5"/>
<path fill-rule="evenodd" clip-rule="evenodd" d="M347.265 368.324L352.153 371.147C353.417 371.876 354.539 372.122 355.536 371.893C356.506 371.671 357.248 371.116 357.751 370.244C358.516 368.92 358.239 367.408 357.123 366.384C358.518 366.727 359.803 365.999 360.5 364.792C360.994 363.937 361.104 363.017 360.81 362.066C360.517 361.114 359.744 360.265 358.48 359.536L353.874 356.876L352.289 359.622L354.879 361.118L355.793 359.535L358.639 364.219L353.16 364.096L354.073 362.514L351.483 361.018L349.656 364.183L352.246 365.678L353.16 364.096L356.006 368.78L350.527 368.656L351.44 367.074L348.85 365.579L347.265 368.324Z" fill="#586068"/>
<g clip-path="url(#clip4_225_284)">
<rect x="473.513" y="261.23" width="16.1782" height="22.0311" rx="2" transform="rotate(30 473.513 261.23)" fill="url(#paint15_linear_225_284)"/>
<path fill-rule="evenodd" clip-rule="evenodd" d="M480.51 282.14L479.403 277.456L484.025 276.081L483.934 275.697L479.201 277.106L477.614 276.189L479.239 273.386L479.443 273.036L483.914 265.327L483.582 265.136L479.111 272.844L474.473 270.167L478.944 262.458L478.613 262.267L474.142 269.975L473.938 270.326L472.313 273.129L470.725 272.212L469.591 267.416L469.213 267.529L470.32 272.212L465.698 273.588L465.789 273.971L470.521 272.562L472.109 273.479L470.484 276.282L470.28 276.633L465.809 284.341L466.141 284.533L470.612 276.824L475.25 279.502L470.779 287.21L471.11 287.402L475.683 279.518C475.739 279.421 475.71 279.3 475.619 279.247L470.815 276.474L472.542 273.495L474.27 270.517L478.908 273.195L477.181 276.173C477.125 276.27 477.153 276.391 477.245 276.444L478.998 277.456L480.132 282.252L480.51 282.14Z" fill="#BFC6B9"/>
</g>
<rect x="473.329" y="260.547" width="17.1782" height="23.0311" rx="2.5" transform="rotate(30 473.329 260.547)" stroke="url(#paint16_linear_225_284)"/>
<path d="M431.855 400.123L425.395 396.393L418.901 407.642L425.36 411.372L431.855 400.123Z" fill="#FF5F00"/>
<path d="M422.558 402.255C423.877 399.969 426.155 398.581 428.614 398.252C427.914 396.576 426.668 395.088 424.945 394.094C420.865 391.738 415.716 393.031 413.433 396.986C411.149 400.941 412.603 406.047 416.684 408.403C418.406 409.398 420.318 409.733 422.12 409.501C421.164 407.227 421.238 404.54 422.558 402.255Z" fill="#EB001B"/>
<path d="M437.322 410.779C435.038 414.734 429.89 416.028 425.809 413.672C424.086 412.677 422.84 411.189 422.14 409.513C424.62 409.196 426.877 407.796 428.197 405.511C429.516 403.225 429.579 400.559 428.635 398.264C430.436 398.032 432.348 398.368 434.071 399.362C438.151 401.718 439.594 406.844 437.322 410.779Z" fill="#F79E1B"/>
<path d="M270.211 442.766L269.961 443.199L270.394 443.449L356.216 492.998C378.465 505.844 398.298 510.201 415.974 506.126C433.161 502.183 446.308 492.33 455.224 476.888C469.975 451.339 474.491 440.517 479.037 429.625L479.125 429.414C483.687 418.483 488.347 407.382 503.568 381.019C512.314 365.87 514.272 349.557 509.094 332.704C503.906 315.82 490.214 300.823 467.967 287.978L387.108 241.295L386.675 241.045L386.425 241.478L351.635 301.736L351.548 301.887L351.385 302.169L351.298 302.32L305.339 381.924L305.251 382.075L305.089 382.357L305.001 382.508L270.211 442.766ZM397.977 328.491L420.534 289.421L469.561 370.21L375.082 368.146L397.64 329.075L397.727 328.924L397.89 328.642L397.977 328.491ZM351.68 408.679L374.238 369.609L423.264 450.398L328.786 448.334L351.343 409.264L351.43 409.112L351.593 408.831L351.68 408.679Z" stroke="url(#paint17_linear_225_284)"/>
</g>
</g>
<g filter="url(#filter2_d_225_284)">
<g clip-path="url(#clip5_225_284)">
<rect x="234.21" y="239.554" width="121.615" height="191.278" rx="5" transform="rotate(30 234.21 239.554)" fill="black"/>
<path fill-rule="evenodd" clip-rule="evenodd" d="M145.302 284.501L130.666 292.949L130.466 292.603L145.103 284.156C149.145 281.823 152.778 281.045 155.957 281.815C159.124 282.581 161.561 284.44 163.196 287.272C165.388 291.066 165.522 295.671 162.758 299.039C167.234 297.942 171.663 299.735 174.085 303.929C175.752 306.815 176.145 309.854 175.225 312.979C174.281 316.201 171.791 318.958 167.748 321.291L152.213 330.257L152.014 329.911L167.549 320.945C171.538 318.643 173.937 315.957 174.842 312.867C175.73 309.85 175.354 306.924 173.74 304.129C171.295 299.895 166.742 298.208 162.225 299.601L161.499 299.825L162.021 299.273C165.09 296.03 165.09 291.348 162.851 287.471C161.269 284.731 158.921 282.942 155.864 282.202C152.819 281.466 149.293 282.198 145.302 284.501ZM140.644 291.621L158.862 291.409L149.924 306.475L167.446 306.271L158.153 321.936L153.788 314.378L154.134 314.179L158.158 321.147L166.741 306.678L149.915 306.874L153.336 312.797L152.99 312.997L145.808 300.561L146.153 300.361L149.574 306.284L158.157 291.816L141.331 292.012L145.355 298.979L145.01 299.179L140.644 291.621Z" fill="url(#paint18_linear_225_284)"/>
<path fill-rule="evenodd" clip-rule="evenodd" d="M93.2804 196.613L9.11871 245.186L8.91919 244.841L93.0809 196.268C116.198 182.926 136.83 178.553 154.782 182.881C172.721 187.206 186.507 197.707 195.771 213.745C203.488 227.108 206.678 242.186 204.26 256.247C203.92 258.223 204.272 260.666 205.13 263.258C205.988 265.847 207.345 268.568 208.997 271.093C210.65 273.619 212.593 275.943 214.618 277.74C216.646 279.54 218.743 280.8 220.702 281.218C235.971 284.481 249.479 294.111 258.29 309.367C267.734 325.719 269.939 342.904 264.716 360.597C259.367 378.791 245.263 394.466 222.145 407.808L132.819 459.362L132.619 459.016L221.946 407.462C245.011 394.151 259.023 378.546 264.333 360.485L264.334 360.484C269.524 342.9 267.336 325.827 257.945 309.566C249.188 294.404 235.773 284.846 220.619 281.608C218.565 281.17 216.407 279.861 214.353 278.039C212.297 276.214 210.332 273.861 208.664 271.312C206.996 268.762 205.622 266.01 204.752 263.383C203.883 260.76 203.511 258.246 203.866 256.179C206.267 242.223 203.103 227.238 195.425 213.945C186.215 197.998 172.518 187.567 154.688 183.269C136.871 178.973 116.346 183.301 93.2804 196.613Z" fill="url(#paint19_linear_225_284)"/>
<path fill-rule="evenodd" clip-rule="evenodd" d="M131.724 281.667C134.319 280.507 138.517 278.587 145.981 274.944L145.994 274.938L146.007 274.934C151.322 273.206 155.888 273.465 159.619 275.64L159.625 275.643L159.63 275.647C162.224 277.415 164.066 279.771 165.013 282.375C165.982 285.042 167.364 287.696 169.082 289.947C169.202 290.103 169.318 290.263 169.429 290.424C172.39 294.702 176.688 300.584 179.954 304.629C180.965 305.881 181.78 307.379 182.34 309.105L182.342 309.112L182.344 309.12C183.309 313.177 182.518 317.143 179.938 320.98C179.627 321.444 179.249 321.855 178.841 322.226L169.302 330.897C168.87 331.29 168.396 331.636 167.89 331.928L150.45 341.993L150.25 341.648L167.69 331.583C168.172 331.305 168.622 330.976 169.034 330.602L178.573 321.931C178.963 321.576 179.317 321.188 179.607 320.757C182.13 317.006 182.892 313.154 181.958 309.22C181.412 307.541 180.621 306.09 179.644 304.88C176.37 300.825 172.065 294.934 169.101 290.651C168.993 290.495 168.881 290.34 168.765 290.189C167.019 287.901 165.619 285.21 164.638 282.511C163.723 279.993 161.938 277.704 159.412 275.981C155.809 273.883 151.374 273.612 146.144 275.309C138.684 278.949 134.484 280.87 131.887 282.031C131.329 282.281 130.846 282.495 130.421 282.684C128.86 283.375 128.082 283.72 127.267 284.191L127.067 283.845C127.903 283.363 128.705 283.007 130.271 282.313C130.694 282.126 131.173 281.913 131.724 281.667Z" fill="url(#paint20_linear_225_284)"/>
<path fill-rule="evenodd" clip-rule="evenodd" d="M122.522 277.085C123.24 275.798 124.286 274.699 125.628 274.054C127.435 273.185 129.479 272.414 132.596 271.248C132.716 271.203 132.838 271.158 132.961 271.112C136.043 269.96 140.156 268.421 146.058 266.056C146.598 265.84 147.172 265.671 147.756 265.59C153.962 264.719 159.162 266.05 163.254 269.462L163.259 269.467L163.264 269.472C165.854 271.958 167.638 274.934 168.467 278.041C169.657 282.499 172.343 287.376 175.554 290.685C176.902 292.075 177.983 293.718 178.718 295.551C179.984 298.708 182.125 301.669 184.766 303.81C187.734 306.215 189.852 309.756 190.584 314.272L190.586 314.281L190.586 314.291C190.964 319.981 188.691 325.318 183.722 330.284L183.714 330.292L170.022 341.305C169.695 341.568 169.349 341.806 168.985 342.015L148.687 353.73L148.487 353.385L168.786 341.67C169.131 341.47 169.461 341.244 169.772 340.994L183.448 329.995C188.346 325.095 190.554 319.87 190.189 314.326C189.47 309.906 187.4 306.459 184.515 304.119C181.819 301.934 179.638 298.917 178.347 295.699C177.632 293.915 176.581 292.317 175.268 290.963C172.007 287.602 169.288 282.664 168.082 278.144C167.273 275.114 165.532 272.203 162.993 269.764C159.002 266.439 153.922 265.127 147.811 265.985C147.266 266.061 146.723 266.219 146.206 266.427C140.3 268.793 136.183 270.333 133.101 271.485C132.978 271.531 132.856 271.577 132.736 271.622C129.614 272.79 127.589 273.554 125.801 274.414C124.546 275.017 123.556 276.05 122.871 277.279L113.918 293.327L113.57 293.133L122.522 277.085Z" fill="url(#paint21_linear_225_284)"/>
<path fill-rule="evenodd" clip-rule="evenodd" d="M119.328 267.414C119.931 266.709 120.648 266.102 121.472 265.661C125.82 263.333 130.168 261.991 138.01 259.57C140.538 258.79 143.43 257.898 146.801 256.824C147.435 256.622 148.103 256.489 148.775 256.465C156.177 256.202 162.253 258.533 166.877 263.279L166.881 263.284L166.885 263.288C169.759 266.6 171.653 270.427 172.389 274.333C173.443 279.929 177.412 286.773 181.805 290.394C184.339 292.483 186.335 295.234 187.549 298.493C188.361 300.673 189.73 302.635 191.512 304.129C195.763 307.693 198.501 312.886 198.824 319.432L198.824 319.44L198.824 319.449C198.561 326.529 194.968 333.013 187.983 338.906L187.978 338.91L170.412 351.911L146.923 365.467L146.724 365.122L170.193 351.577L187.731 338.597C194.65 332.758 198.165 326.376 198.425 319.442C198.105 313.009 195.417 307.923 191.256 304.435C189.42 302.895 188.011 300.876 187.175 298.633C185.986 295.439 184.032 292.747 181.552 290.702C177.084 287.02 173.068 280.092 171.997 274.407C171.276 270.578 169.417 266.816 166.587 263.554C162.05 258.899 156.088 256.605 148.789 256.864C148.16 256.886 147.529 257.011 146.922 257.204C143.532 258.284 140.63 259.179 138.097 259.961C130.272 262.377 125.972 263.704 121.661 266.012C120.886 266.427 120.206 267.001 119.631 267.673L102.259 288.002L101.956 287.743L119.328 267.414Z" fill="url(#paint22_linear_225_284)"/>
<path fill-rule="evenodd" clip-rule="evenodd" d="M116.167 258.223C116.622 257.798 117.123 257.423 117.67 257.12C125.197 252.931 132.226 251.246 145.425 248.082C146.15 247.909 146.893 247.73 147.656 247.547C148.309 247.39 148.988 247.308 149.665 247.333C158.319 247.652 165.312 250.983 170.495 257.093L170.5 257.1C173.8 261.365 175.864 266.224 176.46 271.106C176.847 274.271 178.323 278.001 180.373 281.394C182.423 284.787 185.035 287.821 187.678 289.603C191.501 292.183 194.564 295.915 196.415 300.568C197.02 302.09 197.945 303.473 199.13 304.601C204.344 309.565 207.339 316.341 207.062 324.585L207.062 324.593L207.061 324.6C206.16 333.07 201.251 340.7 192.25 347.522L192.243 347.527L171.295 362.12L145.161 377.204L144.961 376.858L171.081 361.783L192.009 347.205C192.01 347.204 192.011 347.203 192.012 347.202C200.95 340.427 205.775 332.89 206.664 324.564C206.934 316.437 203.984 309.773 198.855 304.89C197.627 303.721 196.67 302.29 196.044 300.715C194.222 296.136 191.211 292.468 187.455 289.934C184.749 288.109 182.1 285.024 180.031 281.6C177.962 278.177 176.46 274.392 176.064 271.154C175.477 266.352 173.446 261.56 170.187 257.347C165.083 251.331 158.198 248.047 149.651 247.731C149.016 247.708 148.373 247.785 147.749 247.935C146.997 248.116 146.263 248.292 145.548 248.463C132.318 251.635 125.342 253.307 117.864 257.468C117.348 257.755 116.873 258.11 116.44 258.514L90.6083 282.66L90.3358 282.369L116.167 258.223Z" fill="url(#paint23_linear_225_284)"/>
<path fill-rule="evenodd" clip-rule="evenodd" d="M112.956 249.23C113.291 248.959 113.648 248.712 114.024 248.499C124.133 242.781 133.308 240.787 148.588 238.258C149.207 238.156 149.843 238.121 150.473 238.178C160.414 239.069 168.353 243.408 174.108 250.904L174.112 250.909C177.922 256.242 180.172 262.276 180.563 268.262C180.787 271.68 182.436 275.913 184.793 279.722C187.15 283.532 190.194 286.885 193.179 288.564C198.402 291.502 202.671 296.155 205.292 302.221C205.756 303.294 206.395 304.285 207.187 305.143C213.19 311.646 216.247 319.969 215.298 329.736L215.298 329.741L215.297 329.747C213.758 339.606 207.535 348.384 196.517 356.137L196.513 356.14L172.178 372.33L143.397 388.941L143.198 388.595L171.967 371.991L196.287 355.811C196.288 355.81 196.289 355.81 196.29 355.809C207.247 348.099 213.383 339.408 214.902 329.691C215.837 320.042 212.82 311.833 206.894 305.414C206.071 304.522 205.407 303.492 204.926 302.379C202.339 296.392 198.129 291.806 192.983 288.912C189.917 287.187 186.829 283.772 184.454 279.932C182.078 276.092 180.395 271.795 180.165 268.288C179.78 262.384 177.559 256.422 173.79 251.144C168.105 243.741 160.271 239.456 150.437 238.575C149.846 238.522 149.243 238.554 148.653 238.652C133.377 241.179 124.263 243.165 114.22 248.847C113.865 249.048 113.526 249.281 113.208 249.54L78.961 277.313L78.7097 277.003L112.956 249.23Z" fill="url(#paint24_linear_225_284)"/>
<path fill-rule="evenodd" clip-rule="evenodd" d="M110.065 240.062L110.074 240.056C122.496 232.887 133.59 230.469 149.575 228.975C150.123 228.923 150.683 228.927 151.232 228.998C162.486 230.458 171.386 235.812 177.721 244.713L177.724 244.717C182.101 251.214 184.539 258.543 184.65 265.729C184.705 269.326 186.491 273.968 189.098 278.111C191.706 282.255 195.107 285.856 198.355 287.398C205.076 290.59 210.671 296.129 214.163 303.639C214.514 304.394 214.959 305.104 215.488 305.745C222.174 313.854 225.184 323.696 223.535 334.882L223.534 334.891C221.359 346.139 213.822 356.066 200.788 364.75L200.785 364.752L173.058 382.542L141.635 400.677L141.435 400.332L172.854 382.199L200.566 364.418C200.567 364.417 200.567 364.417 200.568 364.417C213.543 355.772 220.992 345.928 223.141 334.82C224.772 323.749 221.795 314.022 215.18 305.999C214.629 305.33 214.166 304.592 213.802 303.808C210.347 296.379 204.818 290.909 198.183 287.758C194.838 286.169 191.386 282.496 188.76 278.323C186.135 274.151 184.308 269.435 184.251 265.735C184.142 258.635 181.732 251.381 177.394 244.942C171.125 236.134 162.326 230.84 151.181 229.394C150.664 229.327 150.134 229.323 149.612 229.372C133.66 230.863 122.632 233.272 110.284 240.396L67.3181 271.961L67.0818 271.639L110.065 240.062Z" fill="url(#paint25_linear_225_284)"/>
<path fill-rule="evenodd" clip-rule="evenodd" d="M106.669 231.303L106.675 231.299C121.208 222.912 134.183 220.099 150.595 219.709C151.05 219.699 151.509 219.727 151.96 219.799C164.541 221.828 174.412 228.203 181.332 238.521L181.334 238.524C186.321 246.268 188.939 254.994 188.691 263.457C188.583 267.181 190.474 272.158 193.286 276.57C196.098 280.984 199.795 284.778 203.247 286.173C211.55 289.528 218.573 295.925 223.017 304.916C223.274 305.436 223.579 305.935 223.926 306.399C231.23 316.145 234.131 327.483 231.771 340.028L231.77 340.035C228.96 352.671 220.108 363.747 205.058 373.362L205.056 373.364L173.948 392.747L173.942 392.751L139.871 412.414L139.672 412.069L173.743 392.405L204.843 373.026C204.843 373.026 204.844 373.026 204.844 373.025C219.838 363.447 228.599 352.45 231.379 339.951C233.717 327.52 230.845 316.297 223.607 306.638C223.245 306.154 222.927 305.634 222.659 305.093C218.257 296.187 211.307 289.86 203.098 286.543C199.532 285.101 195.778 281.224 192.949 276.784C190.12 272.344 188.18 267.285 188.293 263.445C188.538 255.072 185.948 246.425 180.999 238.741C174.141 228.517 164.368 222.204 151.897 220.193C151.472 220.125 151.037 220.098 150.605 220.108C134.247 220.496 121.342 223.296 106.881 231.64L55.6759 266.608L55.4508 266.278L106.669 231.303Z" fill="url(#paint26_linear_225_284)"/>
<path fill-rule="evenodd" clip-rule="evenodd" d="M103.277 222.541C120.105 212.829 135.109 209.656 152.145 210.49L152.158 210.491L152.171 210.493C166.328 213.006 177.346 220.444 184.943 232.328L184.944 232.33C190.577 241.393 193.361 251.602 192.678 261.402C192.413 265.219 194.385 270.47 197.363 275.1C200.342 279.732 204.285 283.676 207.898 284.924C217.857 288.362 226.395 295.595 231.856 306.104C232.033 306.445 232.234 306.779 232.453 307.096C240.329 318.491 243.083 331.308 240.008 345.172L240.007 345.176C236.561 359.202 226.397 371.427 209.33 381.974L209.328 381.975L174.832 402.957L174.828 402.959L138.109 424.151L137.909 423.806L174.628 402.613L209.12 381.635C226.132 371.122 236.206 358.973 239.619 345.083C242.669 331.332 239.939 318.629 232.124 307.323C231.896 306.992 231.687 306.644 231.502 306.287C226.086 295.866 217.627 288.704 207.768 285.301C204.026 284.009 200.022 279.972 197.028 275.316C194.033 270.66 192.006 265.319 192.28 261.374C192.956 251.669 190.199 241.542 184.606 232.541C177.072 220.756 166.154 213.384 152.113 210.888C135.159 210.06 120.235 213.215 103.481 222.884L44.036 261.253L43.8195 260.918L103.277 222.541Z" fill="url(#paint27_linear_225_284)"/>
<path fill-rule="evenodd" clip-rule="evenodd" d="M99.878 213.783C118.803 202.861 135.682 199.289 153.024 201.287L153.033 201.287L153.041 201.289C168.459 204.407 180.4 212.866 188.552 226.134L188.553 226.136C194.858 236.58 197.793 248.349 196.602 259.533C196.396 261.469 196.798 263.807 197.646 266.27C198.493 268.731 199.782 271.303 201.335 273.7C202.889 276.098 204.704 278.318 206.602 280.076C208.501 281.836 210.473 283.124 212.339 283.674C224.115 287.149 234.317 295.306 240.843 307.537C249.412 320.663 252.063 335.045 248.243 350.315L248.243 350.317C244.163 365.732 232.685 379.107 213.601 390.586L175.715 413.166L175.712 413.168L136.345 435.888L136.145 435.543L175.51 412.824L175.513 412.822L213.395 390.244C232.425 378.798 243.812 365.497 247.857 350.216C251.649 335.056 249.018 320.785 240.505 307.747L240.5 307.74L240.496 307.732C234.017 295.588 223.898 287.501 212.227 284.057C210.279 283.482 208.254 282.151 206.331 280.369C204.405 278.584 202.569 276.338 201 273.917C199.432 271.496 198.128 268.895 197.269 266.4C196.41 263.907 195.991 261.507 196.206 259.49C197.386 248.404 194.478 236.722 188.212 226.342C180.119 213.17 168.274 204.778 152.971 201.682C135.728 199.698 118.937 203.245 100.08 214.127C100.079 214.128 100.078 214.128 100.078 214.129L32.3959 255.898L32.1863 255.558L99.878 213.783Z" fill="url(#paint28_linear_225_284)"/>
<path fill-rule="evenodd" clip-rule="evenodd" d="M96.4796 205.026C117.501 192.894 136.256 188.921 153.904 192.083L153.912 192.085C170.59 195.806 183.454 205.287 192.162 219.94C199.163 231.82 202.234 245.215 200.463 257.822C200.188 259.782 200.565 262.178 201.421 264.712C202.276 267.244 203.603 269.898 205.211 272.366C206.819 274.835 208.704 277.113 210.672 278.895C212.642 280.678 214.682 281.954 216.6 282.436C230.095 285.833 241.917 294.73 249.567 308.452C258.573 323.191 261.001 338.975 256.48 355.456L256.48 355.458C251.765 372.262 238.974 386.787 217.873 399.197L176.598 423.376L134.582 447.625L134.382 447.28L176.398 423.031L217.671 398.853C238.718 386.474 251.418 372.021 256.095 355.35C260.587 338.978 258.177 323.306 249.225 308.657L249.22 308.65C241.622 295.018 229.888 286.193 216.503 282.823C214.497 282.318 212.399 280.997 210.404 279.19C208.407 277.382 206.5 275.076 204.877 272.584C203.254 270.092 201.91 267.407 201.043 264.84C200.177 262.275 199.781 259.812 200.068 257.766C201.825 245.261 198.781 231.956 191.819 220.144C183.167 205.584 170.396 196.173 153.829 192.475C136.299 189.335 117.641 193.273 96.6791 205.371L20.7572 250.542L20.5531 250.199L96.4796 205.026Z" fill="url(#paint29_linear_225_284)"/>
<path fill-rule="evenodd" clip-rule="evenodd" d="M145.241 299.045L136.95 303.83L136.751 303.484L145.041 298.7L145.241 299.045Z" fill="url(#paint30_linear_225_284)"/>
<path fill-rule="evenodd" clip-rule="evenodd" d="M154.12 314.417L145.829 319.202L145.629 318.857L153.92 314.072L154.12 314.417Z" fill="url(#paint31_linear_225_284)"/>
<path d="M307.637 327.914C307.485 327.756 307.425 327.433 307.507 327.205C307.56 327.056 307.645 326.981 308.054 326.721C309.711 325.67 310.856 324.484 311.834 322.806C312.779 321.184 313.213 319.749 313.347 317.805C313.376 317.388 313.42 317.011 313.445 316.967C313.539 316.806 313.811 316.651 314.011 316.644C314.285 316.635 314.609 316.853 314.683 317.097C314.711 317.191 314.719 317.547 314.701 317.888C314.627 319.24 314.327 320.596 313.814 321.891C313.497 322.693 312.705 324.102 312.222 324.725C311.333 325.875 310.355 326.795 309.191 327.577C308.488 328.05 308.13 328.205 307.961 328.107C307.927 328.088 307.868 328.064 307.829 328.056C307.789 328.046 307.703 327.982 307.637 327.914ZM306.119 325.527C305.887 325.284 305.884 324.827 306.113 324.618C306.169 324.567 306.467 324.358 306.775 324.153C308.08 323.286 309.087 322.129 309.709 320.782C310.22 319.675 310.416 318.904 310.503 317.661C310.562 316.827 310.605 316.718 310.944 316.564C311.266 316.417 311.73 316.632 311.839 316.977C311.915 317.216 311.81 318.541 311.661 319.24C311.168 321.552 309.855 323.582 307.924 325.018C306.936 325.754 306.465 325.887 306.119 325.527ZM304.543 323.084C304.416 322.907 304.373 322.639 304.439 322.433C304.479 322.307 304.594 322.208 305.039 321.914C306.677 320.833 307.535 319.377 307.661 317.471C307.716 316.633 307.785 316.5 308.208 316.401C308.417 316.353 308.487 316.363 308.677 316.473C308.995 316.657 309.067 316.911 309.014 317.655C308.931 318.8 308.659 319.678 308.08 320.669C307.484 321.687 306.909 322.291 305.894 322.962C305.312 323.346 305.097 323.412 304.808 323.294C304.72 323.258 304.601 323.164 304.543 323.084ZM303.072 320.807C302.968 320.672 302.92 320.396 302.967 320.209C303.02 319.999 303.146 319.88 303.547 319.663C304.063 319.384 304.26 319.187 304.589 318.623C304.918 318.058 304.991 317.79 304.978 317.206C304.974 317.007 304.986 316.78 305.005 316.7C305.086 316.366 305.528 316.155 305.884 316.28C306.186 316.387 306.302 316.615 306.326 317.147C306.396 318.688 305.522 320.188 304.15 320.883C303.665 321.128 303.299 321.103 303.072 320.807Z" fill="url(#paint32_linear_225_284)"/>
<g clip-path="url(#clip6_225_284)">
<rect x="281.032" y="292.344" width="16.1782" height="22.3065" rx="2" transform="rotate(30 281.032 292.344)" fill="url(#paint33_linear_225_284)"/>
<path fill-rule="evenodd" clip-rule="evenodd" d="M287.939 313.412L286.853 308.691L291.497 307.277L291.408 306.891L286.653 308.338L285.065 307.422L286.711 304.583L286.917 304.229L291.443 296.424L291.112 296.232L286.585 304.037L281.947 301.359L286.474 293.554L286.142 293.363L281.616 301.168L281.41 301.523L279.764 304.361L278.176 303.444L277.064 298.61L276.685 298.725L277.77 303.447L273.126 304.86L273.215 305.247L277.97 303.799L279.558 304.716L277.912 307.554L277.706 307.909L273.18 315.714L273.511 315.905L278.038 308.1L282.676 310.778L278.149 318.583L278.481 318.774L283.11 310.792C283.167 310.694 283.139 310.572 283.047 310.519L278.243 307.745L279.992 304.73L281.741 301.714L286.38 304.392L284.631 307.408C284.574 307.506 284.602 307.628 284.693 307.681L286.447 308.693L287.559 313.528L287.939 313.412Z" fill="#121212" fill-opacity="0.2"/>
</g>
<rect x="280.849" y="291.661" width="17.1782" height="23.3065" rx="2.5" transform="rotate(30 280.849 291.661)" stroke="url(#paint34_linear_225_284)"/>
<path d="M238.221 433.896L231.762 430.167L225.186 441.556L231.645 445.285L238.221 433.896Z" fill="#FF5F00"/>
<path d="M228.883 436.098C230.219 433.784 232.512 432.371 234.98 432.025C234.287 430.337 233.045 428.842 231.323 427.848C227.242 425.492 222.07 426.825 219.758 430.83C217.446 434.834 218.877 439.98 222.958 442.336C224.68 443.331 226.596 443.659 228.405 443.415C227.458 441.124 227.547 438.412 228.883 436.098Z" fill="#EB001B"/>
<path d="M243.647 444.622C241.335 448.627 236.164 449.961 232.083 447.605C230.36 446.61 229.118 445.115 228.425 443.427C230.915 443.093 233.186 441.668 234.522 439.354C235.858 437.04 235.936 434.348 235.001 432.037C236.809 431.794 238.725 432.122 240.448 433.116C244.528 435.472 245.948 440.638 243.647 444.622Z" fill="#F79E1B"/>
<path fill-rule="evenodd" clip-rule="evenodd" d="M153.81 401.126L158.698 403.948C159.962 404.678 161.086 404.92 162.088 404.683C163.062 404.454 163.809 403.89 164.319 403.007C165.093 401.666 164.823 400.142 163.709 399.114C165.107 399.453 166.4 398.71 167.106 397.489C167.606 396.623 167.721 395.694 167.432 394.735C167.143 393.777 166.371 392.924 165.108 392.194L160.502 389.535L158.897 392.315L161.487 393.811L162.412 392.209L165.242 396.921L159.746 396.826L160.671 395.224L158.081 393.728L156.231 396.932L158.821 398.428L159.746 396.826L162.576 401.538L157.08 401.443L158.005 399.841L155.415 398.346L153.81 401.126Z" fill="#BFFF0B"/>
</g>
<g clip-path="url(#clip7_225_284)">
<rect x="126.763" y="425.657" width="121.615" height="188.917" rx="5" transform="rotate(30 126.763 425.657)" fill="white"/>
</g>
</g>
<g filter="url(#filter3_d_225_284)">
<g clip-path="url(#clip8_225_284)">
<rect x="590.44" y="227.088" width="121.615" height="191.278" rx="5" transform="rotate(30 590.44 227.088)" fill="black"/>
<path fill-rule="evenodd" clip-rule="evenodd" d="M501.532 272.035L486.895 280.483L486.696 280.137L501.333 271.69C505.374 269.357 509.008 268.58 512.187 269.349C515.354 270.115 517.791 271.974 519.426 274.806C521.618 278.601 521.752 283.205 518.988 286.574C523.464 285.476 527.893 287.269 530.315 291.463C531.982 294.349 532.375 297.388 531.455 300.513C530.51 303.735 528.021 306.492 523.978 308.825L508.443 317.791L508.244 317.445L523.779 308.479C527.768 306.177 530.166 303.491 531.072 300.401C531.96 297.384 531.584 294.458 529.97 291.663C527.525 287.429 522.972 285.742 518.454 287.135L517.729 287.359L518.251 286.807C521.32 283.564 521.32 278.882 519.081 275.005C517.498 272.265 515.151 270.476 512.093 269.736C509.049 269 505.522 269.732 501.532 272.035ZM496.874 279.155L515.092 278.943L506.154 294.009L523.676 293.805L514.383 309.47L510.018 301.912L510.363 301.713L514.388 308.681L522.971 294.212L506.145 294.408L509.565 300.331L509.22 300.531L502.037 288.095L502.383 287.895L505.804 293.818L514.386 279.35L497.561 279.546L501.585 286.513L501.239 286.713L496.874 279.155Z" fill="url(#paint35_linear_225_284)"/>
<path fill-rule="evenodd" clip-rule="evenodd" d="M449.51 184.147L365.349 232.72L365.149 232.375L449.311 183.802C472.428 170.46 493.06 166.087 511.012 170.415C528.951 174.74 542.737 185.241 552.001 201.28C559.718 214.642 562.908 229.72 560.489 243.781C560.15 245.757 560.502 248.2 561.36 250.792C562.218 253.381 563.575 256.102 565.227 258.627C566.879 261.153 568.823 263.477 570.848 265.274C572.876 267.074 574.973 268.334 576.932 268.752C592.201 272.015 605.709 281.645 614.52 296.901C623.964 313.253 626.169 330.438 620.946 348.131C615.597 366.325 601.493 382 578.375 395.342L489.048 446.896L488.849 446.55L578.176 394.996C601.241 381.685 615.253 366.08 620.563 348.019L620.563 348.019C625.754 330.434 623.566 313.361 614.175 297.1C605.418 281.938 592.003 272.38 576.849 269.143C574.795 268.704 572.637 267.395 570.583 265.573C568.527 263.748 566.561 261.395 564.893 258.846C563.226 256.296 561.852 253.544 560.982 250.917C560.113 248.294 559.741 245.78 560.096 243.713C562.496 229.757 559.333 214.772 551.655 201.479C542.445 185.532 528.748 175.101 510.918 170.803C493.101 166.507 472.576 170.835 449.51 184.147Z" fill="url(#paint36_linear_225_284)"/>
<path fill-rule="evenodd" clip-rule="evenodd" d="M487.954 269.201C490.548 268.041 494.747 266.121 502.211 262.478L502.224 262.472L502.237 262.468C507.552 260.74 512.118 260.999 515.848 263.174L515.854 263.177L515.86 263.181C518.453 264.949 520.296 267.305 521.243 269.909C522.212 272.576 523.594 275.23 525.312 277.481C525.432 277.637 525.547 277.797 525.659 277.958C528.62 282.236 532.918 288.118 536.184 292.163C537.195 293.415 538.01 294.913 538.569 296.639L538.572 296.647L538.574 296.654C539.539 300.711 538.748 304.677 536.168 308.514C535.856 308.978 535.479 309.389 535.071 309.76L525.532 318.431C525.1 318.824 524.626 319.17 524.12 319.462L506.68 329.527L506.48 329.182L523.92 319.117C524.402 318.839 524.852 318.51 525.264 318.136L534.803 309.465C535.193 309.11 535.547 308.723 535.837 308.291C538.36 304.54 539.122 300.688 538.187 296.754C537.642 295.075 536.851 293.624 535.874 292.414C532.6 288.359 528.295 282.468 525.331 278.185C525.223 278.029 525.111 277.874 524.995 277.723C523.249 275.435 521.849 272.744 520.868 270.045C519.952 267.528 518.168 265.239 515.641 263.515C512.039 261.417 507.603 261.146 502.374 262.843C494.914 266.484 490.714 268.404 488.117 269.565C487.559 269.815 487.076 270.029 486.65 270.218C485.09 270.909 484.312 271.254 483.497 271.725L483.297 271.379C484.132 270.897 484.935 270.542 486.501 269.847C486.924 269.66 487.403 269.447 487.954 269.201Z" fill="url(#paint37_linear_225_284)"/>
<path fill-rule="evenodd" clip-rule="evenodd" d="M478.752 264.619C479.47 263.332 480.516 262.233 481.857 261.588C483.665 260.719 485.709 259.948 488.826 258.782C488.946 258.737 489.068 258.692 489.191 258.646C492.272 257.494 496.386 255.955 502.288 253.59C502.828 253.374 503.402 253.205 503.986 253.124C510.192 252.253 515.392 253.584 519.484 256.996L519.489 257.001L519.494 257.006C522.084 259.492 523.867 262.468 524.697 265.575C525.887 270.033 528.573 274.91 531.784 278.219C533.132 279.609 534.213 281.252 534.948 283.085C536.214 286.242 538.355 289.203 540.996 291.344C543.964 293.75 546.082 297.29 546.814 301.806L546.816 301.815L546.816 301.825C547.194 307.515 544.921 312.852 539.952 317.819L539.944 317.826L526.252 328.839C525.925 329.102 525.579 329.34 525.215 329.549L504.917 341.264L504.717 340.919L525.016 329.204C525.361 329.004 525.691 328.779 526.002 328.528L539.677 317.529C544.576 312.629 546.784 307.404 546.419 301.861C545.7 297.44 543.63 293.993 540.745 291.653C538.049 289.468 535.868 286.451 534.577 283.233C533.862 281.45 532.811 279.851 531.497 278.497C528.237 275.136 525.518 270.198 524.312 265.678C523.503 262.649 521.762 259.737 519.223 257.298C515.232 253.973 510.152 252.661 504.041 253.519C503.496 253.595 502.953 253.753 502.436 253.961C496.53 256.327 492.413 257.867 489.331 259.019C489.208 259.065 489.086 259.111 488.966 259.156C485.844 260.324 483.819 261.088 482.03 261.948C480.776 262.551 479.786 263.585 479.1 264.813L470.148 280.861L469.8 280.667L478.752 264.619Z" fill="url(#paint38_linear_225_284)"/>
<path fill-rule="evenodd" clip-rule="evenodd" d="M475.558 254.948C476.161 254.243 476.878 253.636 477.702 253.195C482.05 250.867 486.397 249.525 494.24 247.104C496.768 246.324 499.66 245.432 503.031 244.358C503.665 244.156 504.333 244.023 505.005 243.999C512.407 243.736 518.483 246.067 523.107 250.813L523.111 250.818L523.114 250.822C525.989 254.134 527.883 257.961 528.619 261.867C529.673 267.463 533.642 274.307 538.035 277.928C540.569 280.017 542.565 282.768 543.779 286.028C544.591 288.207 545.96 290.169 547.742 291.663C551.993 295.227 554.73 300.42 555.054 306.966L555.054 306.974L555.054 306.983C554.791 314.063 551.198 320.547 544.213 326.44L544.208 326.444L526.642 339.445L503.153 353.001L502.954 352.656L526.423 339.111L543.961 326.131C550.879 320.292 554.395 313.91 554.655 306.976C554.335 300.543 551.647 295.457 547.486 291.969C545.65 290.429 544.241 288.41 543.405 286.167C542.216 282.973 540.262 280.281 537.781 278.236C533.314 274.554 529.298 267.626 528.227 261.941C527.506 258.112 525.647 254.35 522.817 251.088C518.28 246.433 512.318 244.139 505.019 244.398C504.39 244.42 503.758 244.545 503.152 244.738C499.761 245.818 496.86 246.714 494.327 247.495C486.501 249.911 482.201 251.238 477.891 253.546C477.116 253.961 476.436 254.535 475.861 255.207L458.489 275.536L458.186 275.277L475.558 254.948Z" fill="url(#paint39_linear_225_284)"/>
<path fill-rule="evenodd" clip-rule="evenodd" d="M472.397 245.757C472.852 245.332 473.353 244.958 473.9 244.654C481.427 240.465 488.455 238.78 501.655 235.616C502.38 235.443 503.123 235.264 503.886 235.081C504.539 234.924 505.218 234.842 505.895 234.867C514.548 235.186 521.542 238.517 526.724 244.627L526.73 244.634C530.03 248.899 532.093 253.758 532.69 258.64C533.077 261.805 534.552 265.535 536.603 268.928C538.653 272.321 541.265 275.355 543.907 277.138C547.731 279.717 550.793 283.449 552.645 288.102C553.25 289.624 554.175 291.007 555.36 292.135C560.574 297.099 563.568 303.875 563.292 312.119L563.292 312.127L563.291 312.134C562.389 320.604 557.481 328.234 548.479 335.056L548.473 335.061L527.525 349.654L501.391 364.738L501.191 364.392L527.311 349.318L548.238 334.739C548.239 334.738 548.241 334.737 548.242 334.736C557.18 327.961 562.005 320.424 562.893 312.099C563.164 303.971 560.214 297.307 555.085 292.424C553.857 291.255 552.9 289.824 552.274 288.25C550.452 283.67 547.441 280.002 543.684 277.468C540.979 275.643 538.33 272.558 536.261 269.134C534.192 265.711 532.69 261.926 532.294 258.688C531.707 253.886 529.676 249.095 526.417 244.881C521.313 238.865 514.427 235.581 505.881 235.265C505.245 235.242 504.603 235.319 503.979 235.469C503.227 235.65 502.493 235.826 501.778 235.997C488.547 239.169 481.572 240.841 474.094 245.002C473.578 245.289 473.103 245.644 472.67 246.048L446.838 270.194L446.566 269.903L472.397 245.757Z" fill="url(#paint40_linear_225_284)"/>
<path fill-rule="evenodd" clip-rule="evenodd" d="M469.186 236.764C469.52 236.493 469.878 236.246 470.254 236.033C480.363 230.315 489.537 228.321 504.818 225.792C505.437 225.69 506.073 225.655 506.703 225.712C516.644 226.603 524.583 230.942 530.338 238.438L530.342 238.443C534.152 243.776 536.402 249.81 536.793 255.796C537.017 259.214 538.666 263.447 541.023 267.256C543.38 271.066 546.424 274.419 549.409 276.098C554.632 279.036 558.901 283.69 561.522 289.755C561.986 290.828 562.625 291.819 563.417 292.677C569.42 299.18 572.476 307.503 571.528 317.27L571.527 317.276L571.527 317.281C569.988 327.14 563.765 335.919 552.747 343.671L552.743 343.674L528.408 359.864L499.627 376.475L499.427 376.129L528.197 359.525L552.517 343.345C552.518 343.344 552.519 343.344 552.52 343.343C563.476 335.633 569.613 326.942 571.131 317.225C572.067 307.576 569.049 299.367 563.124 292.948C562.301 292.056 561.637 291.026 561.156 289.913C558.569 283.926 554.358 279.34 549.213 276.446C546.147 274.721 543.059 271.306 540.684 267.466C538.308 263.626 536.624 259.329 536.395 255.822C536.009 249.918 533.789 243.956 530.019 238.678C524.335 231.275 516.501 226.991 506.667 226.109C506.076 226.056 505.473 226.088 504.883 226.186C489.607 228.713 480.493 230.699 470.45 236.381C470.095 236.582 469.756 236.816 469.437 237.074L435.191 264.847L434.94 264.537L469.186 236.764Z" fill="url(#paint41_linear_225_284)"/>
<path fill-rule="evenodd" clip-rule="evenodd" d="M466.295 227.596L466.304 227.59C478.726 220.421 489.82 218.003 505.804 216.509C506.353 216.458 506.913 216.461 507.462 216.532C518.716 217.992 527.615 223.346 533.951 232.247L533.954 232.251C538.331 238.748 540.769 246.077 540.88 253.263C540.935 256.86 542.721 261.502 545.328 265.645C547.935 269.789 551.337 273.39 554.584 274.932C561.305 278.124 566.901 283.663 570.393 291.174C570.744 291.928 571.189 292.638 571.717 293.279C578.404 301.388 581.414 311.23 579.765 322.417L579.764 322.425C577.589 333.673 570.051 343.6 557.017 352.284L557.014 352.286L529.288 370.076L497.865 388.211L497.665 387.866L529.084 369.733L556.796 351.952C556.797 351.952 556.797 351.951 556.798 351.951C569.773 343.306 577.222 333.462 579.371 322.354C581.001 311.283 578.025 301.556 571.41 293.533C570.859 292.865 570.396 292.126 570.032 291.342C566.577 283.913 561.048 278.443 554.413 275.292C551.067 273.703 547.616 270.03 544.99 265.857C542.365 261.685 540.538 256.969 540.481 253.269C540.371 246.169 537.962 238.915 533.624 232.476C527.355 223.668 518.555 218.374 507.411 216.928C506.894 216.861 506.364 216.857 505.842 216.906C489.89 218.397 478.862 220.806 466.513 227.93L423.548 259.495L423.312 259.173L466.295 227.596Z" fill="url(#paint42_linear_225_284)"/>
<path fill-rule="evenodd" clip-rule="evenodd" d="M462.899 218.837L462.905 218.833C477.438 210.446 490.413 207.633 506.825 207.243C507.28 207.233 507.739 207.261 508.19 207.334C520.77 209.362 530.642 215.738 537.562 226.055L537.564 226.058C542.551 233.802 545.169 242.528 544.921 250.991C544.812 254.715 546.704 259.692 549.516 264.104C552.328 268.518 556.025 272.312 559.477 273.707C567.78 277.062 574.803 283.46 579.247 292.45C579.504 292.97 579.809 293.469 580.156 293.933C587.46 303.679 590.361 315.017 588.001 327.562L587.999 327.569C585.189 340.205 576.338 351.281 561.288 360.896L561.286 360.898L530.178 380.281L530.172 380.285L496.101 399.948L495.901 399.603L529.973 379.939L561.073 360.56C561.073 360.56 561.074 360.56 561.074 360.559C576.068 350.981 584.829 339.984 587.609 327.485C589.947 315.054 587.075 303.831 579.837 294.172C579.475 293.688 579.157 293.168 578.889 292.627C574.487 283.721 567.537 277.394 559.328 274.077C555.761 272.635 552.008 268.758 549.179 264.318C546.35 259.878 544.41 254.82 544.523 250.979C544.767 242.606 542.178 233.959 537.229 226.275C530.371 216.051 520.598 209.738 508.127 207.727C507.702 207.659 507.267 207.632 506.835 207.642C490.477 208.03 477.572 210.83 463.111 219.175L411.906 254.142L411.681 253.812L462.899 218.837Z" fill="url(#paint43_linear_225_284)"/>
<path fill-rule="evenodd" clip-rule="evenodd" d="M459.507 210.075C476.335 200.363 491.339 197.19 508.375 198.024L508.388 198.025L508.4 198.027C522.558 200.541 533.576 207.978 541.173 219.862L541.174 219.864C546.807 228.927 549.59 239.137 548.908 248.936C548.643 252.753 550.615 258.004 553.593 262.635C556.572 267.266 560.514 271.21 564.128 272.458C574.087 275.896 582.624 283.129 588.086 293.638C588.263 293.979 588.464 294.313 588.682 294.63C596.558 306.025 599.313 318.842 596.237 332.706L596.236 332.71C592.791 346.736 582.627 358.962 565.559 369.508L565.558 369.509L531.062 390.491L531.058 390.493L494.338 411.685L494.139 411.34L530.858 390.148L565.35 369.169C582.362 358.656 592.436 346.507 595.848 332.617C598.899 318.866 596.169 306.163 588.354 294.857C588.126 294.526 587.917 294.178 587.732 293.821C582.316 283.4 573.857 276.238 563.998 272.835C560.256 271.543 556.252 267.506 553.258 262.85C550.263 258.194 548.236 252.853 548.51 248.908C549.186 239.203 546.429 229.076 540.836 220.075C533.302 208.29 522.384 200.918 508.343 198.422C491.388 197.594 476.465 200.75 459.711 210.418L400.266 248.787L400.049 248.452L459.507 210.075Z" fill="url(#paint44_linear_225_284)"/>
<path fill-rule="evenodd" clip-rule="evenodd" d="M456.108 201.317C475.033 190.395 491.912 186.823 509.254 188.821L509.263 188.822L509.271 188.823C524.689 191.941 536.63 200.4 544.782 213.668L544.783 213.67C551.088 224.114 554.023 235.883 552.832 247.067C552.626 249.003 553.028 251.341 553.876 253.804C554.723 256.265 556.012 258.837 557.565 261.234C559.118 263.632 560.934 265.852 562.831 267.61C564.731 269.37 566.703 270.658 568.569 271.208C580.345 274.683 590.546 282.84 597.073 295.071C605.641 308.197 608.293 322.579 604.473 337.849L604.472 337.851C600.393 353.266 588.915 366.641 569.831 378.12L531.944 400.7L531.942 400.702L492.575 423.422L492.375 423.077L531.74 400.358L531.742 400.356L569.625 377.778C588.655 366.332 600.042 353.031 604.087 337.75C607.879 322.59 605.248 308.32 596.734 295.281L596.73 295.274L596.725 295.266C590.247 283.122 580.128 275.035 568.456 271.591C566.509 271.016 564.484 269.685 562.56 267.903C560.634 266.118 558.799 263.872 557.23 261.451C555.662 259.03 554.358 256.429 553.499 253.934C552.64 251.441 552.221 249.041 552.436 247.025C553.616 235.938 550.708 224.256 544.441 213.876C536.348 200.704 524.504 192.313 509.2 189.216C491.958 187.232 475.167 190.779 456.31 201.661C456.309 201.662 456.308 201.662 456.307 201.663L388.626 243.432L388.416 243.093L456.108 201.317Z" fill="url(#paint45_linear_225_284)"/>
<path fill-rule="evenodd" clip-rule="evenodd" d="M452.709 192.56C473.73 180.428 492.486 176.455 510.133 179.618L510.142 179.619C526.82 183.34 539.684 192.821 548.392 207.474C555.393 219.354 558.464 232.749 556.693 245.356C556.418 247.316 556.795 249.712 557.651 252.246C558.506 254.778 559.833 257.432 561.441 259.9C563.049 262.369 564.934 264.647 566.902 266.429C568.872 268.212 570.912 269.488 572.83 269.97C586.325 273.367 598.147 282.264 605.797 295.986C614.803 310.725 617.231 326.509 612.71 342.99L612.709 342.992C607.995 359.796 595.204 374.321 574.103 386.731L532.828 410.91L490.812 435.159L490.612 434.814L532.628 410.565L573.901 386.387C594.948 374.008 607.648 359.555 612.325 342.884C616.817 326.512 614.407 310.84 605.454 296.191L605.45 296.184C597.852 282.552 586.117 273.727 572.732 270.357C570.727 269.852 568.629 268.531 566.634 266.724C564.637 264.916 562.73 262.61 561.107 260.118C559.483 257.626 558.14 254.942 557.273 252.374C556.407 249.809 556.011 247.346 556.298 245.3C558.055 232.795 555.011 219.49 548.049 207.678C539.397 193.118 526.626 183.707 510.059 180.009C492.529 176.869 473.87 180.807 452.909 192.905L376.987 238.076L376.783 237.733L452.709 192.56Z" fill="url(#paint46_linear_225_284)"/>
<path fill-rule="evenodd" clip-rule="evenodd" d="M501.471 286.579L493.18 291.364L492.981 291.018L501.271 286.234L501.471 286.579Z" fill="url(#paint47_linear_225_284)"/>
<path fill-rule="evenodd" clip-rule="evenodd" d="M510.349 301.952L502.059 306.736L501.859 306.391L510.15 301.606L510.349 301.952Z" fill="url(#paint48_linear_225_284)"/>
<path d="M585.113 423.632C586.449 421.318 588.742 419.905 591.21 419.56C590.517 417.871 589.275 416.376 587.553 415.382C583.472 413.026 578.3 414.36 575.988 418.364C573.676 422.368 575.107 427.514 579.188 429.87C580.91 430.865 582.826 431.193 584.635 430.949C583.688 428.658 583.777 425.946 585.113 423.632Z" fill="#EB001B"/>
<path fill-rule="evenodd" clip-rule="evenodd" d="M510.04 388.66L514.928 391.482C516.192 392.212 517.316 392.454 518.317 392.217C519.292 391.988 520.039 391.424 520.549 390.541C521.323 389.201 521.053 387.676 519.939 386.648C521.337 386.987 522.63 386.245 523.336 385.023C523.835 384.157 523.951 383.228 523.662 382.269C523.373 381.311 522.601 380.458 521.338 379.728L516.732 377.069L515.127 379.849L517.717 381.345L518.642 379.743L521.472 384.455L515.976 384.36L516.901 382.758L514.311 381.263L512.461 384.466L515.051 385.962L515.976 384.36L518.806 389.072L513.31 388.978L514.235 387.376L511.645 385.88L510.04 388.66Z" fill="#BFFF0B"/>
</g>
<g clip-path="url(#clip9_225_284)">
<rect x="482.993" y="413.191" width="121.615" height="188.917" rx="5" transform="rotate(30 482.993 413.191)" fill="white"/>
</g>
</g>
<defs>
<filter id="filter0_d_225_284" x="-161.122" y="268.856" width="311.226" height="414.517" filterUnits="userSpaceOnUse" color-interpolation-filters="sRGB">
<feFlood flood-opacity="0" result="BackgroundImageFix"/>
<feColorMatrix in="SourceAlpha" type="matrix" values="0 0 0 0 0 0 0 0 0 0 0 0 0 0 0 0 0 0 127 0" result="hardAlpha"/>
<feOffset dy="2"/>
<feGaussianBlur stdDeviation="1"/>
<feComposite in2="hardAlpha" operator="out"/>
<feColorMatrix type="matrix" values="0 0 0 0 0 0 0 0 0 0 0 0 0 0 0 0 0 0 0.15 0"/>
<feBlend mode="normal" in2="BackgroundImageFix" result="effect1_dropShadow_225_284"/>
<feBlend mode="normal" in="SourceGraphic" in2="effect1_dropShadow_225_284" result="shape"/>
</filter>
<filter id="filter1_d_225_284" x="222.648" y="208.679" width="311.226" height="414.517" filterUnits="userSpaceOnUse" color-interpolation-filters="sRGB">
<feFlood flood-opacity="0" result="BackgroundImageFix"/>
<feColorMatrix in="SourceAlpha" type="matrix" values="0 0 0 0 0 0 0 0 0 0 0 0 0 0 0 0 0 0 127 0" result="hardAlpha"/>
<feOffset dy="2"/>
<feGaussianBlur stdDeviation="1"/>
<feComposite in2="hardAlpha" operator="out"/>
<feColorMatrix type="matrix" values="0 0 0 0 0 0 0 0 0 0 0 0 0 0 0 0 0 0 0.15 0"/>
<feBlend mode="normal" in2="BackgroundImageFix" result="effect1_dropShadow_225_284"/>
<feBlend mode="normal" in="SourceGraphic" in2="effect1_dropShadow_225_284" result="shape"/>
</filter>
<filter id="filter2_d_225_284" x="30.3047" y="239.554" width="311.227" height="414.517" filterUnits="userSpaceOnUse" color-interpolation-filters="sRGB">
<feFlood flood-opacity="0" result="BackgroundImageFix"/>
<feColorMatrix in="SourceAlpha" type="matrix" values="0 0 0 0 0 0 0 0 0 0 0 0 0 0 0 0 0 0 127 0" result="hardAlpha"/>
<feOffset dy="2"/>
<feGaussianBlur stdDeviation="1"/>
<feComposite in2="hardAlpha" operator="out"/>
<feColorMatrix type="matrix" values="0 0 0 0 0 0 0 0 0 0 0 0 0 0 0 0 0 0 0.15 0"/>
<feBlend mode="normal" in2="BackgroundImageFix" result="effect1_dropShadow_225_284"/>
<feBlend mode="normal" in="SourceGraphic" in2="effect1_dropShadow_225_284" result="shape"/>
</filter>
<filter id="filter3_d_225_284" x="386.534" y="227.088" width="311.227" height="414.517" filterUnits="userSpaceOnUse" color-interpolation-filters="sRGB">
<feFlood flood-opacity="0" result="BackgroundImageFix"/>
<feColorMatrix in="SourceAlpha" type="matrix" values="0 0 0 0 0 0 0 0 0 0 0 0 0 0 0 0 0 0 127 0" result="hardAlpha"/>
<feOffset dy="2"/>
<feGaussianBlur stdDeviation="1"/>
<feComposite in2="hardAlpha" operator="out"/>
<feColorMatrix type="matrix" values="0 0 0 0 0 0 0 0 0 0 0 0 0 0 0 0 0 0 0.15 0"/>
<feBlend mode="normal" in2="BackgroundImageFix" result="effect1_dropShadow_225_284"/>
<feBlend mode="normal" in="SourceGraphic" in2="effect1_dropShadow_225_284" result="shape"/>
</filter>
<linearGradient id="paint0_linear_225_284" x1="101.39" y1="326.468" x2="92.195" y2="335.191" gradientUnits="userSpaceOnUse">
<stop stop-color="#E2E5DF"/>
<stop offset="1" stop-color="#CFD4CB"/>
</linearGradient>
<linearGradient id="paint1_linear_225_284" x1="97.8318" y1="321.408" x2="97.8318" y2="343.439" gradientUnits="userSpaceOnUse">
<stop stop-color="#BFC6B9"/>
<stop offset="1" stop-color="#D9DDD5"/>
</linearGradient>
<linearGradient id="paint2_linear_225_284" x1="100.922" y1="390.188" x2="0.506568" y2="453.098" gradientUnits="userSpaceOnUse">
<stop stop-color="#D28B28" stop-opacity="0"/>
<stop offset="0.300902" stop-color="#D28B28"/>
<stop offset="1" stop-color="#D28B28" stop-opacity="0"/>
</linearGradient>
<linearGradient id="paint3_linear_225_284" x1="268.241" y1="459.883" x2="242.473" y2="474.785" gradientUnits="userSpaceOnUse">
<stop stop-color="#BFFF0B"/>
<stop offset="1" stop-color="#BFFF0B" stop-opacity="0"/>
</linearGradient>
<linearGradient id="paint4_linear_225_284" x1="390.287" y1="477.904" x2="242.886" y2="563.154" gradientUnits="userSpaceOnUse">
<stop stop-color="#BFFF0B"/>
<stop offset="1" stop-color="#BFFF0B" stop-opacity="0"/>
</linearGradient>
<linearGradient id="paint5_linear_225_284" x1="277.816" y1="462.398" x2="242.189" y2="483.002" gradientUnits="userSpaceOnUse">
<stop stop-color="#BFFF0B"/>
<stop offset="1" stop-color="#BFFF0B" stop-opacity="0"/>
</linearGradient>
<linearGradient id="paint6_linear_225_284" x1="287.979" y1="464.584" x2="241.963" y2="491.196" gradientUnits="userSpaceOnUse">
<stop stop-color="#BFFF0B"/>
<stop offset="1" stop-color="#BFFF0B" stop-opacity="0"/>
</linearGradient>
<linearGradient id="paint7_linear_225_284" x1="298.552" y1="466.516" x2="241.912" y2="499.272" gradientUnits="userSpaceOnUse">
<stop stop-color="#BFFF0B"/>
<stop offset="1" stop-color="#BFFF0B" stop-opacity="0"/>
</linearGradient>
<linearGradient id="paint8_linear_225_284" x1="309.462" y1="468.26" x2="241.925" y2="507.318" gradientUnits="userSpaceOnUse">
<stop stop-color="#BFFF0B"/>
<stop offset="1" stop-color="#BFFF0B" stop-opacity="0"/>
</linearGradient>
<linearGradient id="paint9_linear_225_284" x1="320.622" y1="469.86" x2="241.985" y2="515.338" gradientUnits="userSpaceOnUse">
<stop stop-color="#BFFF0B"/>
<stop offset="1" stop-color="#BFFF0B" stop-opacity="0"/>
</linearGradient>
<linearGradient id="paint10_linear_225_284" x1="331.971" y1="471.352" x2="242.083" y2="523.337" gradientUnits="userSpaceOnUse">
<stop stop-color="#BFFF0B"/>
<stop offset="1" stop-color="#BFFF0B" stop-opacity="0"/>
</linearGradient>
<linearGradient id="paint11_linear_225_284" x1="343.46" y1="472.762" x2="242.209" y2="531.32" gradientUnits="userSpaceOnUse">
<stop stop-color="#BFFF0B"/>
<stop offset="1" stop-color="#BFFF0B" stop-opacity="0"/>
</linearGradient>
<linearGradient id="paint12_linear_225_284" x1="355.059" y1="474.11" x2="242.357" y2="539.291" gradientUnits="userSpaceOnUse">
<stop stop-color="#BFFF0B"/>
<stop offset="1" stop-color="#BFFF0B" stop-opacity="0"/>
</linearGradient>
<linearGradient id="paint13_linear_225_284" x1="366.74" y1="475.41" x2="242.52" y2="547.252" gradientUnits="userSpaceOnUse">
<stop stop-color="#BFFF0B"/>
<stop offset="1" stop-color="#BFFF0B" stop-opacity="0"/>
</linearGradient>
<linearGradient id="paint14_linear_225_284" x1="378.488" y1="476.672" x2="242.698" y2="555.206" gradientUnits="userSpaceOnUse">
<stop stop-color="#BFFF0B"/>
<stop offset="1" stop-color="#BFFF0B" stop-opacity="0"/>
</linearGradient>
<linearGradient id="paint15_linear_225_284" x1="485.16" y1="266.29" x2="475.965" y2="275.014" gradientUnits="userSpaceOnUse">
<stop stop-color="#E2E5DF"/>
<stop offset="1" stop-color="#CFD4CB"/>
</linearGradient>
<linearGradient id="paint16_linear_225_284" x1="481.602" y1="261.23" x2="481.602" y2="283.261" gradientUnits="userSpaceOnUse">
<stop stop-color="#BFC6B9"/>
<stop offset="1" stop-color="#D9DDD5"/>
</linearGradient>
<linearGradient id="paint17_linear_225_284" x1="484.691" y1="330.011" x2="384.276" y2="392.92" gradientUnits="userSpaceOnUse">
<stop stop-color="#D28B28" stop-opacity="0"/>
<stop offset="0.300902" stop-color="#D28B28"/>
<stop offset="1" stop-color="#D28B28" stop-opacity="0"/>
</linearGradient>
<linearGradient id="paint18_linear_225_284" x1="182.163" y1="306.701" x2="156.396" y2="321.604" gradientUnits="userSpaceOnUse">
<stop stop-color="#BFFF0B"/>
<stop offset="1" stop-color="#BFFF0B" stop-opacity="0"/>
</linearGradient>
<linearGradient id="paint19_linear_225_284" x1="304.21" y1="324.722" x2="156.809" y2="409.972" gradientUnits="userSpaceOnUse">
<stop stop-color="#BFFF0B"/>
<stop offset="1" stop-color="#BFFF0B" stop-opacity="0"/>
</linearGradient>
<linearGradient id="paint20_linear_225_284" x1="191.739" y1="309.216" x2="156.112" y2="329.82" gradientUnits="userSpaceOnUse">
<stop stop-color="#BFFF0B"/>
<stop offset="1" stop-color="#BFFF0B" stop-opacity="0"/>
</linearGradient>
<linearGradient id="paint21_linear_225_284" x1="201.901" y1="311.402" x2="155.886" y2="338.014" gradientUnits="userSpaceOnUse">
<stop stop-color="#BFFF0B"/>
<stop offset="1" stop-color="#BFFF0B" stop-opacity="0"/>
</linearGradient>
<linearGradient id="paint22_linear_225_284" x1="212.475" y1="313.335" x2="155.835" y2="346.091" gradientUnits="userSpaceOnUse">
<stop stop-color="#BFFF0B"/>
<stop offset="1" stop-color="#BFFF0B" stop-opacity="0"/>
</linearGradient>
<linearGradient id="paint23_linear_225_284" x1="223.385" y1="315.078" x2="155.848" y2="354.136" gradientUnits="userSpaceOnUse">
<stop stop-color="#BFFF0B"/>
<stop offset="1" stop-color="#BFFF0B" stop-opacity="0"/>
</linearGradient>
<linearGradient id="paint24_linear_225_284" x1="234.545" y1="316.678" x2="155.908" y2="362.157" gradientUnits="userSpaceOnUse">
<stop stop-color="#BFFF0B"/>
<stop offset="1" stop-color="#BFFF0B" stop-opacity="0"/>
</linearGradient>
<linearGradient id="paint25_linear_225_284" x1="245.894" y1="318.17" x2="156.006" y2="370.155" gradientUnits="userSpaceOnUse">
<stop stop-color="#BFFF0B"/>
<stop offset="1" stop-color="#BFFF0B" stop-opacity="0"/>
</linearGradient>
<linearGradient id="paint26_linear_225_284" x1="257.383" y1="319.581" x2="156.131" y2="378.139" gradientUnits="userSpaceOnUse">
<stop stop-color="#BFFF0B"/>
<stop offset="1" stop-color="#BFFF0B" stop-opacity="0"/>
</linearGradient>
<linearGradient id="paint27_linear_225_284" x1="268.982" y1="320.929" x2="156.279" y2="386.109" gradientUnits="userSpaceOnUse">
<stop stop-color="#BFFF0B"/>
<stop offset="1" stop-color="#BFFF0B" stop-opacity="0"/>
</linearGradient>
<linearGradient id="paint28_linear_225_284" x1="280.663" y1="322.229" x2="156.443" y2="394.071" gradientUnits="userSpaceOnUse">
<stop stop-color="#BFFF0B"/>
<stop offset="1" stop-color="#BFFF0B" stop-opacity="0"/>
</linearGradient>
<linearGradient id="paint29_linear_225_284" x1="292.41" y1="323.491" x2="156.621" y2="402.024" gradientUnits="userSpaceOnUse">
<stop stop-color="#BFFF0B"/>
<stop offset="1" stop-color="#BFFF0B" stop-opacity="0"/>
</linearGradient>
<linearGradient id="paint30_linear_225_284" x1="146.664" y1="298.166" x2="139.068" y2="302.75" gradientUnits="userSpaceOnUse">
<stop stop-color="#BFFF0B"/>
<stop offset="1" stop-color="#BFFF0B" stop-opacity="0"/>
</linearGradient>
<linearGradient id="paint31_linear_225_284" x1="155.543" y1="313.538" x2="147.946" y2="318.123" gradientUnits="userSpaceOnUse">
<stop stop-color="#BFFF0B"/>
<stop offset="1" stop-color="#BFFF0B" stop-opacity="0"/>
</linearGradient>
<linearGradient id="paint32_linear_225_284" x1="312.477" y1="318.812" x2="300.205" y2="321.249" gradientUnits="userSpaceOnUse">
<stop stop-color="#404040"/>
<stop offset="1" stop-color="#25272C"/>
</linearGradient>
<linearGradient id="paint33_linear_225_284" x1="292.679" y1="297.468" x2="283.376" y2="306.185" gradientUnits="userSpaceOnUse">
<stop stop-color="#808080"/>
<stop offset="1" stop-color="#5F5F5F"/>
</linearGradient>
<linearGradient id="paint34_linear_225_284" x1="289.121" y1="292.344" x2="289.121" y2="314.651" gradientUnits="userSpaceOnUse">
<stop stop-color="#898989"/>
<stop offset="1" stop-color="#131313"/>
</linearGradient>
<linearGradient id="paint35_linear_225_284" x1="538.393" y1="294.235" x2="512.626" y2="309.138" gradientUnits="userSpaceOnUse">
<stop stop-color="#BFFF0B"/>
<stop offset="1" stop-color="#BFFF0B" stop-opacity="0"/>
</linearGradient>
<linearGradient id="paint36_linear_225_284" x1="660.439" y1="312.256" x2="513.039" y2="397.506" gradientUnits="userSpaceOnUse">
<stop stop-color="#BFFF0B"/>
<stop offset="1" stop-color="#BFFF0B" stop-opacity="0"/>
</linearGradient>
<linearGradient id="paint37_linear_225_284" x1="547.969" y1="296.75" x2="512.342" y2="317.354" gradientUnits="userSpaceOnUse">
<stop stop-color="#BFFF0B"/>
<stop offset="1" stop-color="#BFFF0B" stop-opacity="0"/>
</linearGradient>
<linearGradient id="paint38_linear_225_284" x1="558.131" y1="298.936" x2="512.116" y2="325.548" gradientUnits="userSpaceOnUse">
<stop stop-color="#BFFF0B"/>
<stop offset="1" stop-color="#BFFF0B" stop-opacity="0"/>
</linearGradient>
<linearGradient id="paint39_linear_225_284" x1="568.704" y1="300.869" x2="512.065" y2="333.625" gradientUnits="userSpaceOnUse">
<stop stop-color="#BFFF0B"/>
<stop offset="1" stop-color="#BFFF0B" stop-opacity="0"/>
</linearGradient>
<linearGradient id="paint40_linear_225_284" x1="579.615" y1="302.612" x2="512.078" y2="341.671" gradientUnits="userSpaceOnUse">
<stop stop-color="#BFFF0B"/>
<stop offset="1" stop-color="#BFFF0B" stop-opacity="0"/>
</linearGradient>
<linearGradient id="paint41_linear_225_284" x1="590.775" y1="304.212" x2="512.138" y2="349.691" gradientUnits="userSpaceOnUse">
<stop stop-color="#BFFF0B"/>
<stop offset="1" stop-color="#BFFF0B" stop-opacity="0"/>
</linearGradient>
<linearGradient id="paint42_linear_225_284" x1="602.124" y1="305.704" x2="512.236" y2="357.689" gradientUnits="userSpaceOnUse">
<stop stop-color="#BFFF0B"/>
<stop offset="1" stop-color="#BFFF0B" stop-opacity="0"/>
</linearGradient>
<linearGradient id="paint43_linear_225_284" x1="613.613" y1="307.115" x2="512.361" y2="365.673" gradientUnits="userSpaceOnUse">
<stop stop-color="#BFFF0B"/>
<stop offset="1" stop-color="#BFFF0B" stop-opacity="0"/>
</linearGradient>
<linearGradient id="paint44_linear_225_284" x1="625.212" y1="308.463" x2="512.509" y2="373.643" gradientUnits="userSpaceOnUse">
<stop stop-color="#BFFF0B"/>
<stop offset="1" stop-color="#BFFF0B" stop-opacity="0"/>
</linearGradient>
<linearGradient id="paint45_linear_225_284" x1="636.893" y1="309.763" x2="512.673" y2="381.605" gradientUnits="userSpaceOnUse">
<stop stop-color="#BFFF0B"/>
<stop offset="1" stop-color="#BFFF0B" stop-opacity="0"/>
</linearGradient>
<linearGradient id="paint46_linear_225_284" x1="648.64" y1="311.025" x2="512.851" y2="389.559" gradientUnits="userSpaceOnUse">
<stop stop-color="#BFFF0B"/>
<stop offset="1" stop-color="#BFFF0B" stop-opacity="0"/>
</linearGradient>
<linearGradient id="paint47_linear_225_284" x1="502.894" y1="285.7" x2="495.298" y2="290.284" gradientUnits="userSpaceOnUse">
<stop stop-color="#BFFF0B"/>
<stop offset="1" stop-color="#BFFF0B" stop-opacity="0"/>
</linearGradient>
<linearGradient id="paint48_linear_225_284" x1="511.773" y1="301.073" x2="504.176" y2="305.657" gradientUnits="userSpaceOnUse">
<stop stop-color="#BFFF0B"/>
<stop offset="1" stop-color="#BFFF0B" stop-opacity="0"/>
</linearGradient>
<clipPath id="clip0_225_284">
<rect x="42.783" y="268.856" width="121.615" height="188.917" rx="5" transform="rotate(30 42.783 268.856)" fill="white"/>
</clipPath>
<clipPath id="clip1_225_284">
<rect x="89.7427" y="321.408" width="16.1782" height="22.0311" rx="2" transform="rotate(30 89.7427 321.408)" fill="white"/>
</clipPath>
<clipPath id="clip2_225_284">
<rect x="320.287" y="392.736" width="121.615" height="191.278" rx="5" transform="rotate(30 320.287 392.736)" fill="white"/>
</clipPath>
<clipPath id="clip3_225_284">
<rect x="426.553" y="208.679" width="121.615" height="188.917" rx="5" transform="rotate(30 426.553 208.679)" fill="white"/>
</clipPath>
<clipPath id="clip4_225_284">
<rect x="473.513" y="261.23" width="16.1782" height="22.0311" rx="2" transform="rotate(30 473.513 261.23)" fill="white"/>
</clipPath>
<clipPath id="clip5_225_284">
<rect x="234.21" y="239.554" width="121.615" height="191.278" rx="5" transform="rotate(30 234.21 239.554)" fill="white"/>
</clipPath>
<clipPath id="clip6_225_284">
<rect x="281.032" y="292.344" width="16.1782" height="22.3065" rx="2" transform="rotate(30 281.032 292.344)" fill="white"/>
</clipPath>
<clipPath id="clip7_225_284">
<rect x="126.763" y="425.657" width="121.615" height="188.917" rx="5" transform="rotate(30 126.763 425.657)" fill="white"/>
</clipPath>
<clipPath id="clip8_225_284">
<rect x="590.44" y="227.088" width="121.615" height="191.278" rx="5" transform="rotate(30 590.44 227.088)" fill="white"/>
</clipPath>
<clipPath id="clip9_225_284">
<rect x="482.993" y="413.191" width="121.615" height="188.917" rx="5" transform="rotate(30 482.993 413.191)" fill="white"/>
</clipPath>
</defs>
</svg>
