<svg width="12" height="12" viewBox="0 0 12 12" fill="none" xmlns="http://www.w3.org/2000/svg">
<path d="M11.115 0H0.885C0.4 0 0 0.385 0 0.86V11.14C0 11.615 0.4 12 0.885 12H11.115C11.605 12 12 11.615 12 11.14V0.86C12 0.385 11.6 0 11.115 0ZM3.635 10.05H1.825V4.62H3.635V10.05ZM2.735 3.88H2.72C2.11 3.88 1.72 3.465 1.72 2.945C1.72 2.415 2.12 2.01 2.745 2.01C3.365 2.01 3.745 2.41 3.755 2.945C3.755 3.465 3.365 3.88 2.73 3.88H2.735ZM10.17 10.05H8.355V7.15C8.355 6.425 8.095 5.925 7.44 5.925C6.94 5.925 6.64 6.26 6.505 6.585C6.455 6.7 6.45 6.86 6.45 7.025V10.05H4.64C4.64 10.05 4.665 5.14 4.64 4.63H6.455V5.4C6.61884 5.11565 6.8573 4.88149 7.14459 4.72287C7.43188 4.56424 7.75707 4.48717 8.085 4.5C9.28 4.5 10.175 5.28 10.175 6.945V10.05H10.17Z" fill="#BFC6B9"/>
</svg>
