<svg width="121" height="30" viewBox="0 0 121 30" fill="none" xmlns="http://www.w3.org/2000/svg">
<path fill-rule="evenodd" clip-rule="evenodd" d="M27.3782 23.1631V21.183C26.086 22.6759 24.4323 23.418 22.4437 23.418C20.7692 23.418 19.3781 22.9145 18.4077 21.8654C17.439 20.8181 16.948 19.2904 16.948 17.3661V6.40605H21.1947V17.143C21.1947 18.1473 21.4236 18.8242 21.8054 19.2499C22.1827 19.6707 22.7755 19.9193 23.659 19.9193C25.0608 19.9193 26.2218 19.2013 27.1258 17.6274V6.40605H31.3725V23.1631H27.3782ZM37.2386 6.40605V23.1029C37.2386 25.1054 36.7485 26.7246 35.7093 27.898C34.6719 29.0692 33.1415 29.7351 31.179 29.9492L30.7133 30V26.5905L31.0591 26.5239C31.7065 26.3991 32.1624 26.0911 32.467 25.6136C32.78 25.1227 32.9616 24.4072 32.9616 23.4216V6.40605H37.2386ZM36.7869 0.584076L36.7907 0.587587C37.2648 1.02272 37.481 1.67214 37.4855 2.28375C37.49 2.89367 37.2841 3.54054 36.8201 3.96377L36.8168 3.96682L36.8134 3.9698C36.3505 4.37439 35.6968 4.55046 35.0887 4.55046C34.482 4.55046 33.8308 4.37492 33.3801 3.96377C32.9161 3.54054 32.7102 2.89367 32.7147 2.28375C32.7193 1.67214 32.9354 1.02272 33.4095 0.587587L33.41 0.587137L33.4105 0.586689C33.8587 0.177871 34.4926 0 35.0887 0C35.686 0 36.3227 0.178305 36.783 0.580662L36.7869 0.584076ZM48.711 17.6246H53.0194L52.8705 18.186C51.9906 21.5018 49.3072 23.418 45.6281 23.418C43.5191 23.418 41.7403 22.6762 40.3202 21.2204C38.8751 19.7389 38.188 17.5662 38.188 14.7846C38.188 12.0047 38.8743 9.79924 40.3202 8.3169C41.7436 6.85768 43.524 6.15109 45.6281 6.15109C47.7272 6.15109 49.5028 6.82212 50.9556 8.21066C52.433 9.62269 53.129 11.6044 53.129 14.1471V15.769H42.5562V16.0913C42.5562 17.6196 42.9062 18.6856 43.4423 19.3618C43.9704 20.028 44.7179 20.3655 45.6281 20.3655C46.4541 20.3655 47.086 20.1536 47.5616 19.7685C48.0381 19.3827 48.3993 18.7894 48.6246 17.9476L48.711 17.6246ZM62.9631 9.45858H58.9224V18.1629C58.9224 18.9922 59.0824 19.5271 59.33 19.8489C59.5635 20.1523 59.9279 20.3336 60.5056 20.3336C61.0047 20.3336 61.7572 20.2153 62.7574 19.9927L63.2669 19.8793V22.7814L62.9821 22.8841C61.9611 23.2523 60.9116 23.418 59.8068 23.418C58.1583 23.418 56.8487 23.032 55.9576 22.0972C55.0666 21.1626 54.6757 19.7651 54.6757 17.9398V9.45858H52.5794V6.40605H54.6757V3.51021L58.9224 2.35672V6.40605H62.9631V9.45858ZM68.1337 6.40605V23.1631H63.8566V6.40605H68.1337ZM67.7427 0.584076L67.7465 0.587587C68.2206 1.02275 68.4375 1.67295 68.4375 2.28718C68.4375 2.90071 68.2206 3.54858 67.7388 3.9698C67.2758 4.37457 66.6218 4.55046 66.0103 4.55046C65.4003 4.55046 64.748 4.3754 64.2851 3.97262C63.7881 3.55345 63.5604 2.90562 63.5604 2.28718C63.5604 1.66687 63.789 1.01503 64.2806 0.581776L64.2813 0.581218L64.2819 0.580662C64.7449 0.175885 65.3989 0 66.0103 0C66.6218 0 67.2758 0.175885 67.7388 0.580662L67.7427 0.584076ZM43.381 10.0692C42.8674 10.6967 42.561 11.6264 42.5562 12.8121H48.7C48.6953 11.5758 48.3874 10.6489 47.8775 10.0361C47.3702 9.42648 46.6206 9.07613 45.6281 9.07613C44.6433 9.07613 43.8921 9.44482 43.381 10.0692ZM0 23.6057H8.91891C11.2245 23.6057 12.9536 23.0318 14.1368 21.8839C15.2896 20.7678 15.8659 19.3648 15.8659 17.7067C15.8659 15.1877 14.2924 13.2586 11.9565 12.7165C14.1368 12.0561 15.3199 9.95832 15.3199 7.66249C15.3199 6.03628 14.7435 4.63328 13.5907 3.51725C12.4379 2.40122 10.7088 1.82727 8.40319 1.82727H0V7.05056H4.72603V4.04052L12.3214 8.37851L4.72603 12.7165V9.70647H0V15.7265H4.72603V12.7165L12.3214 17.0545L4.72603 21.3925V18.3824H0V23.6057Z" fill="black"/>
<path d="M80.9531 13.18C80.3571 13.18 79.8531 13.03 79.4411 12.73C79.0291 12.426 78.7171 12.016 78.5051 11.5C78.2931 10.98 78.1871 10.398 78.1871 9.754C78.1871 9.098 78.2931 8.514 78.5051 8.002C78.7211 7.486 79.0371 7.08 79.4531 6.784C79.8691 6.488 80.3811 6.34 80.9891 6.34C81.5811 6.34 82.0891 6.49 82.5131 6.79C82.9371 7.09 83.2611 7.498 83.4851 8.014C83.7131 8.53 83.8271 9.11 83.8271 9.754C83.8271 10.402 83.7131 10.984 83.4851 11.5C83.2571 12.016 82.9291 12.426 82.5011 12.73C82.0731 13.03 81.5571 13.18 80.9531 13.18ZM78.0371 13V4.36H78.9251V8.122H78.8291V13H78.0371ZM80.8631 12.358C81.3151 12.358 81.6911 12.244 81.9911 12.016C82.2911 11.788 82.5151 11.478 82.6631 11.086C82.8151 10.69 82.8911 10.246 82.8911 9.754C82.8911 9.266 82.8171 8.826 82.6691 8.434C82.5211 8.042 82.2951 7.732 81.9911 7.504C81.6911 7.276 81.3091 7.162 80.8451 7.162C80.3931 7.162 80.0171 7.272 79.7171 7.492C79.4211 7.712 79.1991 8.018 79.0511 8.41C78.9031 8.798 78.8291 9.246 78.8291 9.754C78.8291 10.254 78.9031 10.702 79.0511 11.098C79.1991 11.49 79.4231 11.798 79.7231 12.022C80.0231 12.246 80.4031 12.358 80.8631 12.358ZM87.8867 13.18C87.2547 13.18 86.7067 13.04 86.2427 12.76C85.7827 12.48 85.4247 12.086 85.1687 11.578C84.9127 11.07 84.7847 10.474 84.7847 9.79C84.7847 9.082 84.9107 8.47 85.1627 7.954C85.4147 7.438 85.7687 7.04 86.2247 6.76C86.6847 6.48 87.2267 6.34 87.8507 6.34C88.4907 6.34 89.0367 6.488 89.4887 6.784C89.9407 7.076 90.2827 7.496 90.5147 8.044C90.7467 8.592 90.8527 9.246 90.8327 10.006H89.9327V9.694C89.9167 8.854 89.7347 8.22 89.3867 7.792C89.0427 7.364 88.5387 7.15 87.8747 7.15C87.1787 7.15 86.6447 7.376 86.2727 7.828C85.9047 8.28 85.7207 8.924 85.7207 9.76C85.7207 10.576 85.9047 11.21 86.2727 11.662C86.6447 12.11 87.1707 12.334 87.8507 12.334C88.3147 12.334 88.7187 12.228 89.0627 12.016C89.4107 11.8 89.6847 11.49 89.8847 11.086L90.7067 11.404C90.4507 11.968 90.0727 12.406 89.5727 12.718C89.0767 13.026 88.5147 13.18 87.8867 13.18ZM85.4087 10.006V9.268H90.3587V10.006H85.4087ZM95.6922 13C95.3282 13.076 94.9682 13.106 94.6122 13.09C94.2602 13.074 93.9442 12.998 93.6642 12.862C93.3882 12.726 93.1782 12.514 93.0342 12.226C92.9182 11.986 92.8542 11.744 92.8422 11.5C92.8342 11.252 92.8302 10.97 92.8302 10.654V4.72H93.7062V10.618C93.7062 10.89 93.7082 11.118 93.7122 11.302C93.7202 11.482 93.7622 11.642 93.8382 11.782C93.9822 12.05 94.2102 12.21 94.5222 12.262C94.8382 12.314 95.2282 12.302 95.6922 12.226V13ZM91.4442 7.276V6.52H95.6922V7.276H91.4442ZM98.8229 13.18C98.3349 13.18 97.9249 13.092 97.5929 12.916C97.2649 12.74 97.0189 12.506 96.8549 12.214C96.6909 11.922 96.6089 11.604 96.6089 11.26C96.6089 10.908 96.6789 10.608 96.8189 10.36C96.9629 10.108 97.1569 9.902 97.4009 9.742C97.6489 9.582 97.9349 9.46 98.2589 9.376C98.5869 9.296 98.9489 9.226 99.3449 9.166C99.7449 9.102 100.135 9.048 100.515 9.004C100.899 8.956 101.235 8.91 101.523 8.866L101.211 9.058C101.223 8.418 101.099 7.944 100.839 7.636C100.579 7.328 100.127 7.174 99.4829 7.174C99.0389 7.174 98.6629 7.274 98.3549 7.474C98.0509 7.674 97.8369 7.99 97.7129 8.422L96.8549 8.17C97.0029 7.59 97.3009 7.14 97.7489 6.82C98.1969 6.5 98.7789 6.34 99.4949 6.34C100.087 6.34 100.589 6.452 101.001 6.676C101.417 6.896 101.711 7.216 101.883 7.636C101.963 7.824 102.015 8.034 102.039 8.266C102.063 8.498 102.075 8.734 102.075 8.974V13H101.289V11.374L101.517 11.47C101.297 12.026 100.955 12.45 100.491 12.742C100.027 13.034 99.4709 13.18 98.8229 13.18ZM98.9249 12.418C99.3369 12.418 99.6969 12.344 100.005 12.196C100.313 12.048 100.561 11.846 100.749 11.59C100.937 11.33 101.059 11.038 101.115 10.714C101.163 10.506 101.189 10.278 101.193 10.03C101.197 9.778 101.199 9.59 101.199 9.466L101.535 9.64C101.235 9.68 100.909 9.72 100.557 9.76C100.209 9.8 99.8649 9.846 99.5249 9.898C99.1889 9.95 98.8849 10.012 98.6129 10.084C98.4289 10.136 98.2509 10.21 98.0789 10.306C97.9069 10.398 97.7649 10.522 97.6529 10.678C97.5449 10.834 97.4909 11.028 97.4909 11.26C97.4909 11.448 97.5369 11.63 97.6289 11.806C97.7249 11.982 97.8769 12.128 98.0849 12.244C98.2969 12.36 98.5769 12.418 98.9249 12.418Z" fill="#586068"/>
</svg>
