<svg width="545" height="684" viewBox="0 0 545 684" fill="none" xmlns="http://www.w3.org/2000/svg">
<rect width="508" height="684" rx="32" fill="white"/>
<path d="M83.9619 71.51L78.1419 88.55L72.3519 71.51H66.8919V92H70.2819V74.87L76.4319 92H79.8819L86.0319 74.78V92H89.3919V71.51H83.9619ZM102.835 86.36C102.835 88.85 101.515 90.08 99.6252 90.08C97.9152 90.08 96.8352 89.24 96.8352 87.71C96.8352 85.88 98.2152 84.77 100.645 84.77C101.215 84.77 101.965 84.86 102.835 85.01V86.36ZM97.3452 80.9C97.7952 79.49 98.7552 78.77 100.195 78.77C101.785 78.77 102.835 79.67 102.835 81.35V83.27C101.995 83.12 101.185 83.03 100.435 83.03C96.0852 83.03 93.3552 84.98 93.3552 87.86C93.3552 90.59 95.4852 92.24 98.7252 92.24C100.735 92.24 102.205 91.49 103.135 90.02L103.915 92H106.225V81.71C106.225 78.59 103.945 76.82 100.255 76.82C96.8052 76.82 94.5852 78.41 93.8352 80.9H97.3452ZM124.758 92L118.578 83.36L124.608 77.06H120.828L114.108 84.53V71.51H110.718V92H114.108V88.01L116.538 85.46L120.978 92H124.758ZM136.483 87.62C136.003 89.33 134.893 90.2 133.123 90.2C131.113 90.2 129.673 88.76 129.673 85.76V85.04H140.113V83.93C140.113 81.62 139.453 79.88 138.103 78.65C136.753 77.42 135.103 76.82 133.123 76.82C131.143 76.82 129.493 77.45 128.173 78.74C126.853 80.03 126.193 81.98 126.193 84.53C126.193 87.08 126.853 89 128.173 90.29C129.493 91.58 131.143 92.24 133.123 92.24C136.603 92.24 139.063 90.53 139.873 87.62H136.483ZM129.673 82.7C129.673 80.3 130.963 78.74 133.123 78.74C135.283 78.74 136.573 80.21 136.573 82.7V83.09H129.673V82.7ZM158.587 86.36C158.587 88.85 157.267 90.08 155.377 90.08C153.667 90.08 152.587 89.24 152.587 87.71C152.587 85.88 153.967 84.77 156.397 84.77C156.967 84.77 157.717 84.86 158.587 85.01V86.36ZM153.097 80.9C153.547 79.49 154.507 78.77 155.947 78.77C157.537 78.77 158.587 79.67 158.587 81.35V83.27C157.747 83.12 156.937 83.03 156.187 83.03C151.837 83.03 149.107 84.98 149.107 87.86C149.107 90.59 151.237 92.24 154.477 92.24C156.487 92.24 157.957 91.49 158.887 90.02L159.667 92H161.977V81.71C161.977 78.59 159.697 76.82 156.007 76.82C152.557 76.82 150.337 78.41 149.587 80.9H153.097ZM175.923 81.47C176.733 79.94 177.843 79.19 179.313 79.19C181.803 79.19 183.033 81.02 183.003 84.65C182.973 88.31 181.743 90.14 179.313 90.14C177.783 90.14 176.673 89.48 175.923 88.19V81.47ZM172.533 77.06V98.09H175.923V90.71C176.883 91.73 178.233 92.24 179.943 92.24C181.833 92.24 183.393 91.55 184.623 90.17C185.853 88.82 186.483 86.93 186.483 84.53C186.483 79.64 184.023 76.82 180.303 76.82C178.293 76.82 176.763 77.69 175.773 79.4L175.023 77.06H172.533ZM198.841 86.36C198.841 88.85 197.521 90.08 195.631 90.08C193.921 90.08 192.841 89.24 192.841 87.71C192.841 85.88 194.221 84.77 196.651 84.77C197.221 84.77 197.971 84.86 198.841 85.01V86.36ZM193.351 80.9C193.801 79.49 194.761 78.77 196.201 78.77C197.791 78.77 198.841 79.67 198.841 81.35V83.27C198.001 83.12 197.191 83.03 196.441 83.03C192.091 83.03 189.361 84.98 189.361 87.86C189.361 90.59 191.491 92.24 194.731 92.24C196.741 92.24 198.211 91.49 199.141 90.02L199.921 92H202.231V81.71C202.231 78.59 199.951 76.82 196.261 76.82C192.811 76.82 190.591 78.41 189.841 80.9H193.351ZM211.794 89.3L207.984 77.06H204.414L210.174 92.27L209.544 93.86C208.974 95.21 208.344 95.69 207.024 95.69H205.644V98.09H207.144C210.174 98.09 211.734 96.74 213.084 93.14L219.174 77.06H215.874L211.794 89.3ZM221.488 77.06V92H224.878V81.74C225.808 80.15 227.218 79.28 228.688 79.28C230.608 79.28 231.568 80.42 231.568 82.67V92H234.928V82.49C234.928 82.25 234.898 81.92 234.868 81.53C235.978 80.03 237.208 79.28 238.618 79.28C240.508 79.28 241.468 80.42 241.468 82.67V92H244.858V82.49C244.858 78.89 242.968 76.82 239.818 76.82C237.748 76.82 235.918 77.72 234.358 79.49C233.578 77.72 232.078 76.82 229.888 76.82C227.818 76.82 226.138 77.66 224.848 79.37L224.128 77.06H221.488ZM258.681 87.62C258.201 89.33 257.091 90.2 255.321 90.2C253.311 90.2 251.871 88.76 251.871 85.76V85.04H262.311V83.93C262.311 81.62 261.651 79.88 260.301 78.65C258.951 77.42 257.301 76.82 255.321 76.82C253.341 76.82 251.691 77.45 250.371 78.74C249.051 80.03 248.391 81.98 248.391 84.53C248.391 87.08 249.051 89 250.371 90.29C251.691 91.58 253.341 92.24 255.321 92.24C258.801 92.24 261.261 90.53 262.071 87.62H258.681ZM251.871 82.7C251.871 80.3 253.161 78.74 255.321 78.74C257.481 78.74 258.771 80.21 258.771 82.7V83.09H251.871V82.7ZM269.321 81.74C270.251 80.15 271.661 79.28 273.131 79.28C275.051 79.28 276.011 80.42 276.011 82.67V92H279.371V82.49C279.371 78.92 277.571 76.82 274.331 76.82C272.261 76.82 270.581 77.66 269.291 79.37L268.571 77.06H265.931V92H269.321V81.74ZM291.392 79.1V77.06H287.402V73.37L284.042 74.24V77.06H281.972V79.1H284.042V87.5C284.042 90.83 285.542 92.24 288.692 92.24C289.742 92.24 290.732 92.09 291.692 91.76V89.84C290.702 90.05 289.922 90.17 289.382 90.17C288.062 90.17 287.402 89.36 287.402 87.71V79.1H291.392Z" fill="#586068"/>
<path d="M68.71 140.82L70.57 146.265H66.88L68.71 140.82ZM73.195 150L69.49 139.77H67.93L64.3 150H65.635L66.55 147.285H70.915L71.845 150H73.195ZM74.7072 142.53V150H75.9522V144.72C76.4472 143.88 77.2722 143.415 78.0972 143.415C79.1922 143.415 79.7322 144.06 79.7322 145.35V150H80.9772V145.305C80.9772 145.05 80.9622 144.825 80.9322 144.615C81.5472 143.82 82.2522 143.415 83.0322 143.415C84.1272 143.415 84.6822 144.06 84.6822 145.35V150H85.9272V145.305C85.9272 143.505 85.0122 142.425 83.4372 142.425C82.4022 142.425 81.4872 142.875 80.6922 143.76C80.3172 142.875 79.5822 142.425 78.4872 142.425C77.4222 142.425 76.5822 142.845 75.9372 143.7L75.6222 142.53H74.7072ZM94.5413 146.28C94.5413 143.745 93.2363 142.425 91.1513 142.425C89.0963 142.425 87.7913 143.745 87.7913 146.28C87.7913 148.8 89.0663 150.105 91.1513 150.105C93.2363 150.105 94.5413 148.8 94.5413 146.28ZM89.0813 146.28C89.0813 144.255 89.7713 143.25 91.1513 143.25C92.5463 143.25 93.2513 144.255 93.2513 146.28C93.2513 148.26 92.5463 149.25 91.1513 149.25C89.7713 149.25 89.0813 148.26 89.0813 146.28ZM101.755 150H102.685V142.53H101.44V147.81C100.945 148.65 100.09 149.13 99.2948 149.13C98.1998 149.13 97.6448 148.575 97.6448 147.45V142.53H96.3998V147.495C96.3998 149.22 97.3148 150.105 98.8898 150.105C99.9548 150.105 100.795 149.685 101.44 148.83L101.755 150ZM106.348 144.72C106.843 143.88 107.668 143.415 108.493 143.415C109.588 143.415 110.128 144.06 110.128 145.35V150H111.373V145.305C111.373 143.505 110.518 142.425 108.883 142.425C107.818 142.425 106.978 142.845 106.333 143.7L106.018 142.53H105.103V150H106.348V144.72ZM117.136 143.43V142.53H115.051V140.805L113.806 141.12V142.53H112.771V143.43H113.806V147.885C113.806 149.445 114.511 150.105 115.906 150.105C116.431 150.105 116.896 150.03 117.301 149.88V149.1C116.821 149.205 116.416 149.265 116.071 149.265C115.396 149.265 115.051 148.83 115.051 147.945V143.43H117.136Z" fill="#586068" fill-opacity="0.5"/>
<path d="M64 170.4C64 168.16 64 167.04 64.436 166.184C64.8195 165.431 65.4314 164.819 66.184 164.436C67.0397 164 68.1598 164 70.4 164H437.6C439.84 164 440.96 164 441.816 164.436C442.569 164.819 443.181 165.431 443.564 166.184C444 167.04 444 168.16 444 170.4V197.6C444 199.84 444 200.96 443.564 201.816C443.181 202.569 442.569 203.181 441.816 203.564C440.96 204 439.84 204 437.6 204H70.4C68.1598 204 67.0397 204 66.184 203.564C65.4314 203.181 64.8195 202.569 64.436 201.816C64 200.96 64 199.84 64 197.6V170.4Z" fill="white"/>
<path d="M66.184 203.564L66.638 202.673L66.184 203.564ZM64.436 201.816L65.327 201.362L64.436 201.816ZM443.564 201.816L444.455 202.27L443.564 201.816ZM441.816 203.564L441.362 202.673L441.816 203.564ZM441.816 164.436L442.27 163.545L441.816 164.436ZM443.564 166.184L444.455 165.73L443.564 166.184ZM66.184 164.436L65.73 163.545L66.184 164.436ZM64.436 166.184L63.545 165.73L64.436 166.184ZM70.4 165H437.6V163H70.4V165ZM443 170.4V197.6H445V170.4H443ZM437.6 203H70.4V205H437.6V203ZM65 197.6V170.4H63V197.6H65ZM70.4 203C69.2634 203 68.4711 202.999 67.8542 202.949C67.2491 202.899 66.9014 202.807 66.638 202.673L65.73 204.455C66.3223 204.757 66.9625 204.883 67.6914 204.942C68.4085 205.001 69.2964 205 70.4 205V203ZM63 197.6C63 198.704 62.9992 199.591 63.0578 200.309C63.1174 201.037 63.2432 201.678 63.545 202.27L65.327 201.362C65.1928 201.099 65.1006 200.751 65.0512 200.146C65.0008 199.529 65 198.737 65 197.6H63ZM66.638 202.673C66.0735 202.385 65.6146 201.926 65.327 201.362L63.545 202.27C64.0243 203.211 64.7892 203.976 65.73 204.455L66.638 202.673ZM443 197.6C443 198.737 442.999 199.529 442.949 200.146C442.899 200.751 442.807 201.099 442.673 201.362L444.455 202.27C444.757 201.678 444.883 201.037 444.942 200.309C445.001 199.591 445 198.704 445 197.6H443ZM437.6 205C438.704 205 439.591 205.001 440.309 204.942C441.037 204.883 441.678 204.757 442.27 204.455L441.362 202.673C441.099 202.807 440.751 202.899 440.146 202.949C439.529 202.999 438.737 203 437.6 203V205ZM442.673 201.362C442.385 201.926 441.926 202.385 441.362 202.673L442.27 204.455C443.211 203.976 443.976 203.211 444.455 202.27L442.673 201.362ZM437.6 165C438.737 165 439.529 165.001 440.146 165.051C440.751 165.101 441.099 165.193 441.362 165.327L442.27 163.545C441.678 163.243 441.037 163.117 440.309 163.058C439.591 162.999 438.704 163 437.6 163V165ZM445 170.4C445 169.296 445.001 168.409 444.942 167.691C444.883 166.963 444.757 166.322 444.455 165.73L442.673 166.638C442.807 166.901 442.899 167.249 442.949 167.854C442.999 168.471 443 169.263 443 170.4H445ZM441.362 165.327C441.926 165.615 442.385 166.074 442.673 166.638L444.455 165.73C443.976 164.789 443.211 164.024 442.27 163.545L441.362 165.327ZM70.4 163C69.2964 163 68.4086 162.999 67.6914 163.058C66.9625 163.117 66.3223 163.243 65.73 163.545L66.638 165.327C66.9014 165.193 67.2491 165.101 67.8542 165.051C68.4711 165.001 69.2634 165 70.4 165V163ZM65 170.4C65 169.263 65.0008 168.471 65.0512 167.854C65.1006 167.249 65.1928 166.901 65.327 166.638L63.545 165.73C63.2432 166.322 63.1174 166.963 63.0578 167.691C62.9992 168.409 63 169.296 63 170.4H65ZM65.73 163.545C64.7892 164.024 64.0243 164.789 63.545 165.73L65.327 166.638C65.6146 166.074 66.0735 165.615 66.638 165.327L65.73 163.545Z" fill="#E6E8E3"/>
<path d="M83.125 185.25H96.875" stroke="#586068" stroke-opacity="0.5" stroke-linecap="round" stroke-linejoin="round"/>
<path d="M83.125 182.75H96.875" stroke="#586068" stroke-opacity="0.5" stroke-linecap="round" stroke-linejoin="round"/>
<path d="M85 190.406V177.594L95 190.406V177.594" stroke="#586068" stroke-opacity="0.5" stroke-linecap="round" stroke-linejoin="round"/>
<path d="M113 182L108 187L103 182" stroke="#586068" stroke-opacity="0.5" stroke-linecap="round" stroke-linejoin="round"/>
<rect x="124" y="176" width="244" height="16" rx="8" fill="#586068" fill-opacity="0.1"/>
<path d="M69.024 216.208L71.008 222.016H67.072L69.024 216.208ZM73.808 226L69.856 215.088H68.192L64.32 226H65.744L66.72 223.104H71.376L72.368 226H73.808ZM77.8865 224.576L75.5505 218.032H74.1585L77.2465 226H78.5105L81.6145 218.032H80.2705L77.8865 224.576ZM87.6715 222.912C87.6715 224.448 86.8395 225.2 85.7035 225.2C84.5995 225.2 83.9595 224.704 83.9595 223.76C83.9595 222.688 84.7755 222.032 86.2635 222.032C86.6955 222.032 87.1595 222.096 87.6715 222.208V222.912ZM84.2155 220.048C84.5195 219.2 85.1275 218.784 86.0075 218.784C87.0155 218.784 87.6715 219.328 87.6715 220.352V221.376C87.0475 221.264 86.5675 221.216 86.1995 221.216C83.9115 221.216 82.5835 222.32 82.5835 223.808C82.5835 225.216 83.6715 226.112 85.3835 226.112C86.4555 226.112 87.2395 225.728 87.7355 224.976L88.1035 226H88.9995V220.448C88.9995 218.864 87.8475 217.92 86.0075 217.92C84.3275 217.92 83.1915 218.784 82.8075 220.048H84.2155ZM92.7468 218.032H91.4188V226H92.7468V218.032ZM92.9228 215.696C92.9228 215.2 92.5868 214.912 92.0748 214.912C91.5788 214.912 91.2268 215.2 91.2268 215.696C91.2268 216.16 91.5788 216.48 92.0748 216.48C92.5868 216.48 92.9228 216.16 92.9228 215.696ZM96.5931 215.088H95.2651V226H96.5931V215.088ZM103.89 222.912C103.89 224.448 103.058 225.2 101.922 225.2C100.818 225.2 100.178 224.704 100.178 223.76C100.178 222.688 100.994 222.032 102.482 222.032C102.914 222.032 103.378 222.096 103.89 222.208V222.912ZM100.434 220.048C100.738 219.2 101.346 218.784 102.226 218.784C103.234 218.784 103.89 219.328 103.89 220.352V221.376C103.266 221.264 102.786 221.216 102.418 221.216C100.13 221.216 98.8023 222.32 98.8023 223.808C98.8023 225.216 99.8903 226.112 101.602 226.112C102.674 226.112 103.458 225.728 103.954 224.976L104.322 226H105.218V220.448C105.218 218.864 104.066 217.92 102.226 217.92C100.546 217.92 99.4103 218.784 99.0263 220.048H100.434ZM109.078 220.32C109.574 219.344 110.278 218.848 111.19 218.848C112.614 218.848 113.382 219.968 113.382 222.032C113.366 224.096 112.598 225.216 111.19 225.216C110.278 225.216 109.574 224.736 109.078 223.76V220.32ZM107.75 215.088V226H108.598L108.934 224.832C109.526 225.68 110.326 226.112 111.334 226.112C112.342 226.112 113.174 225.744 113.814 225.008C114.438 224.288 114.758 223.28 114.758 222.016C114.758 219.456 113.446 217.92 111.478 217.92C110.454 217.92 109.654 218.352 109.078 219.216V215.088H107.75ZM118.171 215.088H116.843V226H118.171V215.088ZM125.772 223.776C125.436 224.752 124.764 225.232 123.756 225.232C122.524 225.232 121.644 224.352 121.644 222.496V222.256H127.276V221.68C127.276 220.496 126.94 219.568 126.284 218.912C125.628 218.256 124.78 217.92 123.756 217.92C121.692 217.92 120.252 219.328 120.252 222.016C120.252 224.704 121.692 226.112 123.756 226.112C125.5 226.112 126.668 225.232 127.164 223.776H125.772ZM121.66 221.168C121.66 219.712 122.46 218.768 123.756 218.768C125.084 218.768 125.868 219.68 125.868 221.168V221.344H121.66V221.168ZM136.334 218.992V218.032H134.11V216.192L132.782 216.528V218.032H131.678V218.992H132.782V223.744C132.782 225.408 133.534 226.112 135.022 226.112C135.582 226.112 136.078 226.032 136.51 225.872V225.04C135.998 225.152 135.566 225.216 135.198 225.216C134.478 225.216 134.11 224.752 134.11 223.808V218.992H136.334ZM144.937 222.032C144.937 219.328 143.545 217.92 141.321 217.92C139.129 217.92 137.737 219.328 137.737 222.032C137.737 224.72 139.097 226.112 141.321 226.112C143.545 226.112 144.937 224.72 144.937 222.032ZM139.113 222.032C139.113 219.872 139.849 218.8 141.321 218.8C142.809 218.8 143.561 219.872 143.561 222.032C143.561 224.144 142.809 225.2 141.321 225.2C139.849 225.2 139.113 224.144 139.113 222.032ZM156.295 223.856C156.295 222.512 155.399 221.952 153.863 221.584L152.839 221.344C151.863 221.104 151.351 220.784 151.351 220.096C151.351 219.312 152.007 218.816 152.983 218.816C153.991 218.816 154.455 219.232 154.823 220.08H156.231C155.735 218.656 154.663 217.952 153.015 217.936C151.207 217.936 150.023 218.816 150.023 220.176C150.023 221.472 150.919 222.064 152.375 222.4L153.479 222.64C154.455 222.848 154.967 223.2 154.967 223.952C154.967 224.784 154.263 225.248 153.191 225.248C151.959 225.248 151.271 224.752 151.095 223.776H149.767C149.959 225.264 151.207 226.112 153.127 226.112C155.063 226.112 156.279 225.264 156.295 223.856ZM159.671 220.336C160.167 219.376 160.871 218.896 161.767 218.896C163.223 218.896 163.975 219.984 163.975 222.048C163.959 224.16 163.223 225.216 161.767 225.216C160.839 225.216 160.135 224.816 159.671 224V220.336ZM158.343 218.032V229.248H159.671V225.168C160.199 225.792 160.951 226.112 161.927 226.112C162.935 226.112 163.751 225.744 164.391 225.024C165.031 224.304 165.351 223.296 165.351 222.016C165.351 219.44 164.039 217.92 162.071 217.92C161.031 217.92 160.231 218.368 159.639 219.28L159.287 218.032H158.343ZM172.413 223.776C172.077 224.752 171.405 225.232 170.397 225.232C169.165 225.232 168.285 224.352 168.285 222.496V222.256H173.917V221.68C173.917 220.496 173.581 219.568 172.925 218.912C172.269 218.256 171.421 217.92 170.397 217.92C168.333 217.92 166.893 219.328 166.893 222.016C166.893 224.704 168.333 226.112 170.397 226.112C172.141 226.112 173.309 225.232 173.805 223.776H172.413ZM168.301 221.168C168.301 219.712 169.101 218.768 170.397 218.768C171.725 218.768 172.509 219.68 172.509 221.168V221.344H168.301V221.168ZM177.312 220.368C177.84 219.472 178.72 218.976 179.6 218.976C180.768 218.976 181.344 219.664 181.344 221.04V226H182.672V220.992C182.672 219.072 181.76 217.92 180.016 217.92C178.88 217.92 177.984 218.368 177.296 219.28L176.96 218.032H175.984V226H177.312V220.368ZM190.323 223.76C189.827 224.736 189.123 225.216 188.211 225.216C186.803 225.216 186.035 224.08 186.019 222.016C186.019 219.968 186.883 218.816 188.291 218.816C189.091 218.816 189.763 219.152 190.323 219.824V223.76ZM190.323 218.832C189.731 218.224 189.011 217.92 188.147 217.92C187.155 217.92 186.323 218.288 185.651 219.008C184.979 219.744 184.643 220.752 184.643 222.016C184.643 223.28 184.963 224.288 185.603 225.008C186.227 225.744 187.059 226.112 188.067 226.112C188.979 226.112 189.779 225.696 190.451 224.864L190.771 226H191.651V215.088H190.323V218.832Z" fill="#586068" fill-opacity="0.8"/>
<rect x="196" y="214" width="144" height="16" rx="8" fill="#586068" fill-opacity="0.1"/>
<path d="M74.14 268.695L71.725 259.77H70.3L67.9 268.695L65.68 259.77H64.3L67.165 270H68.65L71.02 261.345L73.39 270H74.86L77.725 259.77H76.36L74.14 268.695ZM80.5386 264.72C81.0336 263.88 81.8586 263.415 82.6836 263.415C83.7786 263.415 84.3186 264.06 84.3186 265.35V270H85.5636V265.305C85.5636 263.505 84.7086 262.425 83.0736 262.425C82.0086 262.425 81.1536 262.845 80.5386 263.7V259.77H79.2936V270H80.5386V264.72ZM94.1897 266.28C94.1897 263.745 92.8847 262.425 90.7997 262.425C88.7447 262.425 87.4397 263.745 87.4397 266.28C87.4397 268.8 88.7147 270.105 90.7997 270.105C92.8847 270.105 94.1897 268.8 94.1897 266.28ZM88.7297 266.28C88.7297 264.255 89.4197 263.25 90.7997 263.25C92.1947 263.25 92.8997 264.255 92.8997 266.28C92.8997 268.26 92.1947 269.25 90.7997 269.25C89.4197 269.25 88.7297 268.26 88.7297 266.28ZM103.668 267.105C103.668 268.545 102.888 269.25 101.823 269.25C100.788 269.25 100.188 268.785 100.188 267.9C100.188 266.895 100.953 266.28 102.348 266.28C102.753 266.28 103.188 266.34 103.668 266.445V267.105ZM100.428 264.42C100.713 263.625 101.283 263.235 102.108 263.235C103.053 263.235 103.668 263.745 103.668 264.705V265.665C103.083 265.56 102.633 265.515 102.288 265.515C100.143 265.515 98.8976 266.55 98.8976 267.945C98.8976 269.265 99.9176 270.105 101.523 270.105C102.528 270.105 103.263 269.745 103.728 269.04L104.073 270H104.913V264.795C104.913 263.31 103.833 262.425 102.108 262.425C100.533 262.425 99.4676 263.235 99.1076 264.42H100.428ZM107.271 262.53V270H108.516V265.035C109.071 264.09 109.896 263.61 110.976 263.61V262.425C109.836 262.425 109.101 262.935 108.486 264.03L108.186 262.53H107.271ZM116.975 267.915C116.66 268.83 116.03 269.28 115.085 269.28C113.93 269.28 113.105 268.455 113.105 266.715V266.49H118.385V265.95C118.385 264.84 118.07 263.97 117.455 263.355C116.84 262.74 116.045 262.425 115.085 262.425C113.15 262.425 111.8 263.745 111.8 266.265C111.8 268.785 113.15 270.105 115.085 270.105C116.72 270.105 117.815 269.28 118.28 267.915H116.975ZM113.12 265.47C113.12 264.105 113.87 263.22 115.085 263.22C116.33 263.22 117.065 264.075 117.065 265.47V265.635H113.12V265.47ZM125.827 268.725L123.652 262.53H122.347L125.212 269.985L124.807 271.02C124.492 271.815 124.132 272.085 123.427 272.085H122.842V273.045H123.457C124.777 273.045 125.452 272.445 126.097 270.81L129.292 262.53H128.047L125.827 268.725ZM136.846 266.28C136.846 263.745 135.541 262.425 133.456 262.425C131.401 262.425 130.096 263.745 130.096 266.28C130.096 268.8 131.371 270.105 133.456 270.105C135.541 270.105 136.846 268.8 136.846 266.28ZM131.386 266.28C131.386 264.255 132.076 263.25 133.456 263.25C134.851 263.25 135.556 264.255 135.556 266.28C135.556 268.26 134.851 269.25 133.456 269.25C132.076 269.25 131.386 268.26 131.386 266.28ZM144.059 270H144.989V262.53H143.744V267.81C143.249 268.65 142.394 269.13 141.599 269.13C140.504 269.13 139.949 268.575 139.949 267.45V262.53H138.704V267.495C138.704 269.22 139.619 270.105 141.194 270.105C142.259 270.105 143.099 269.685 143.744 268.83L144.059 270ZM151.802 264.69C152.267 263.79 152.927 263.34 153.767 263.34C155.132 263.34 155.837 264.36 155.837 266.295C155.822 268.275 155.132 269.265 153.767 269.265C152.897 269.265 152.237 268.89 151.802 268.125V264.69ZM150.557 262.53V273.045H151.802V269.22C152.297 269.805 153.002 270.105 153.917 270.105C154.862 270.105 155.627 269.76 156.227 269.085C156.827 268.41 157.127 267.465 157.127 266.265C157.127 263.85 155.897 262.425 154.052 262.425C153.077 262.425 152.327 262.845 151.772 263.7L151.442 262.53H150.557ZM163.463 267.105C163.463 268.545 162.683 269.25 161.618 269.25C160.583 269.25 159.983 268.785 159.983 267.9C159.983 266.895 160.748 266.28 162.143 266.28C162.548 266.28 162.983 266.34 163.463 266.445V267.105ZM160.223 264.42C160.508 263.625 161.078 263.235 161.903 263.235C162.848 263.235 163.463 263.745 163.463 264.705V265.665C162.878 265.56 162.428 265.515 162.083 265.515C159.938 265.515 158.693 266.55 158.693 267.945C158.693 269.265 159.713 270.105 161.318 270.105C162.323 270.105 163.058 269.745 163.523 269.04L163.868 270H164.708V264.795C164.708 263.31 163.628 262.425 161.903 262.425C160.328 262.425 159.263 263.235 158.903 264.42H160.223ZM169.421 268.725L167.246 262.53H165.941L168.806 269.985L168.401 271.02C168.086 271.815 167.726 272.085 167.021 272.085H166.436V273.045H167.051C168.371 273.045 169.046 272.445 169.691 270.81L172.886 262.53H171.641L169.421 268.725ZM175.34 262.53H174.095V270H175.34V262.53ZM175.505 260.34C175.505 259.875 175.19 259.605 174.71 259.605C174.245 259.605 173.915 259.875 173.915 260.34C173.915 260.775 174.245 261.075 174.71 261.075C175.19 261.075 175.505 260.775 175.505 260.34ZM178.931 264.72C179.426 263.88 180.251 263.415 181.076 263.415C182.171 263.415 182.711 264.06 182.711 265.35V270H183.956V265.305C183.956 263.505 183.101 262.425 181.466 262.425C180.401 262.425 179.561 262.845 178.916 263.7L178.601 262.53H177.686V270H178.931V264.72ZM187.874 266.7C187.544 266.355 187.379 265.86 187.379 265.23C187.379 263.955 188.009 263.265 189.164 263.265C190.259 263.265 190.934 263.97 190.934 265.23C190.934 265.86 190.769 266.355 190.454 266.7C190.139 267.06 189.704 267.24 189.164 267.24C188.624 267.24 188.189 267.06 187.874 266.7ZM190.454 270.075C191.369 270.075 191.759 270.345 191.759 270.99C191.759 271.785 190.889 272.415 189.164 272.415C187.379 272.415 186.719 271.995 186.719 271.155C186.719 270.63 187.004 270.21 187.559 269.925C187.874 270.03 188.219 270.075 188.594 270.075H190.454ZM190.574 262.77C190.124 262.605 189.659 262.53 189.164 262.53C188.264 262.53 187.514 262.77 186.929 263.25C186.344 263.73 186.044 264.39 186.044 265.245C186.044 266.16 186.404 266.865 187.124 267.375C186.749 267.75 186.569 268.155 186.569 268.62C186.569 268.965 186.689 269.28 186.914 269.535C185.909 269.88 185.399 270.45 185.399 271.275C185.399 272.43 186.719 273.18 189.164 273.18C190.319 273.18 191.249 272.94 191.969 272.475C192.689 272.01 193.049 271.44 193.049 270.765C193.049 269.64 192.239 269.085 190.634 269.085H188.579C187.904 269.085 187.574 268.86 187.574 268.395C187.574 268.17 187.664 267.96 187.829 267.735C188.234 267.885 188.669 267.96 189.164 267.96C190.049 267.96 190.799 267.72 191.399 267.24C191.984 266.775 192.284 266.1 192.284 265.245C192.284 264.42 191.999 263.775 191.444 263.295H193.079V262.2L190.574 262.77ZM197.813 266.82C197.813 266.235 197.933 265.95 198.458 265.545L199.448 264.795C200.528 264 200.858 263.355 200.858 262.29C200.858 261.525 200.543 260.865 199.913 260.34C199.268 259.815 198.458 259.545 197.453 259.545C195.488 259.545 194.243 260.505 193.898 262.2H195.218C195.458 261.015 196.208 260.43 197.453 260.43C198.698 260.43 199.553 261.255 199.553 262.29C199.553 263.055 199.358 263.505 198.413 264.21L197.528 264.885C196.733 265.485 196.568 265.92 196.568 266.775V267.66H197.813V266.82ZM198.023 269.37C198.023 268.935 197.693 268.605 197.228 268.605C196.763 268.605 196.418 268.935 196.418 269.37C196.343 270.39 198.113 270.39 198.023 269.37Z" fill="#586068" fill-opacity="0.5"/>
<rect x="64.5" y="284.5" width="379" height="39" rx="3.5" fill="white"/>
<rect x="80" y="296" width="217" height="16" rx="8" fill="#586068" fill-opacity="0.1"/>
<rect x="64.5" y="284.5" width="379" height="39" rx="3.5" stroke="#E6E8E3"/>
<path d="M425 302L420 307L415 302" stroke="#586068" stroke-opacity="0.1" stroke-linecap="round" stroke-linejoin="round"/>
<path d="M68.624 375C70.272 375 71.552 374.504 72.448 373.528C73.328 372.552 73.776 371.24 73.776 369.56C73.776 367.88 73.328 366.536 72.448 365.56C71.552 364.584 70.272 364.088 68.624 364.088H65.376V375H68.624ZM68.624 365.176C71.136 365.176 72.4 366.632 72.4 369.56C72.4 372.456 71.136 373.912 68.624 373.912H66.704V365.176H68.624ZM80.9599 372.776C80.6239 373.752 79.9519 374.232 78.9439 374.232C77.7119 374.232 76.8319 373.352 76.8319 371.496V371.256H82.4639V370.68C82.4639 369.496 82.1279 368.568 81.4719 367.912C80.8159 367.256 79.9679 366.92 78.9439 366.92C76.8799 366.92 75.4399 368.328 75.4399 371.016C75.4399 373.704 76.8799 375.112 78.9439 375.112C80.6879 375.112 81.8559 374.232 82.3519 372.776H80.9599ZM76.8479 370.168C76.8479 368.712 77.6479 367.768 78.9439 367.768C80.2719 367.768 81.0559 368.68 81.0559 370.168V370.344H76.8479V370.168ZM90.4664 372.856C90.4664 371.512 89.5704 370.952 88.0344 370.584L87.0104 370.344C86.0344 370.104 85.5224 369.784 85.5224 369.096C85.5224 368.312 86.1784 367.816 87.1544 367.816C88.1624 367.816 88.6264 368.232 88.9944 369.08H90.4024C89.9064 367.656 88.8344 366.952 87.1864 366.936C85.3784 366.936 84.1944 367.816 84.1944 369.176C84.1944 370.472 85.0904 371.064 86.5464 371.4L87.6504 371.64C88.6264 371.848 89.1384 372.2 89.1384 372.952C89.1384 373.784 88.4344 374.248 87.3624 374.248C86.1304 374.248 85.4424 373.752 85.2664 372.776H83.9384C84.1304 374.264 85.3784 375.112 87.2984 375.112C89.2344 375.112 90.4504 374.264 90.4664 372.856ZM97.4908 372.6C97.1868 373.672 96.5468 374.2 95.5708 374.2C94.0828 374.2 93.3468 373.144 93.3468 371.032C93.3468 368.872 94.0828 367.8 95.5708 367.8C96.5308 367.8 97.2508 368.408 97.4908 369.432H98.8508C98.5148 367.896 97.2988 366.92 95.5708 366.92C93.3468 366.92 91.9708 368.328 91.9708 371.032C91.9708 373.72 93.3468 375.112 95.5708 375.112C97.2508 375.112 98.4668 374.184 98.8508 372.6H97.4908ZM100.905 367.032V375H102.233V369.704C102.825 368.696 103.705 368.184 104.857 368.184V366.92C103.641 366.92 102.857 367.464 102.201 368.632L101.881 367.032H100.905ZM107.497 367.032H106.169V375H107.497V367.032ZM107.673 364.696C107.673 364.2 107.337 363.912 106.825 363.912C106.329 363.912 105.977 364.2 105.977 364.696C105.977 365.16 106.329 365.48 106.825 365.48C107.337 365.48 107.673 365.16 107.673 364.696ZM111.327 369.336C111.823 368.376 112.527 367.896 113.423 367.896C114.879 367.896 115.631 368.984 115.631 371.048C115.615 373.16 114.879 374.216 113.423 374.216C112.495 374.216 111.791 373.816 111.327 373V369.336ZM109.999 367.032V378.248H111.327V374.168C111.855 374.792 112.607 375.112 113.583 375.112C114.591 375.112 115.407 374.744 116.047 374.024C116.687 373.304 117.007 372.296 117.007 371.016C117.007 368.44 115.695 366.92 113.727 366.92C112.687 366.92 111.887 367.368 111.295 368.28L110.943 367.032H109.999ZM122.709 367.992V367.032H120.485V365.192L119.157 365.528V367.032H118.053V367.992H119.157V372.744C119.157 374.408 119.909 375.112 121.397 375.112C121.957 375.112 122.453 375.032 122.885 374.872V374.04C122.373 374.152 121.941 374.216 121.573 374.216C120.853 374.216 120.485 373.752 120.485 372.808V367.992H122.709ZM125.872 367.032H124.544V375H125.872V367.032ZM126.048 364.696C126.048 364.2 125.712 363.912 125.2 363.912C124.704 363.912 124.352 364.2 124.352 364.696C124.352 365.16 124.704 365.48 125.2 365.48C125.712 365.48 126.048 365.16 126.048 364.696ZM135.046 371.032C135.046 368.328 133.654 366.92 131.43 366.92C129.238 366.92 127.846 368.328 127.846 371.032C127.846 373.72 129.206 375.112 131.43 375.112C133.654 375.112 135.046 373.72 135.046 371.032ZM129.222 371.032C129.222 368.872 129.958 367.8 131.43 367.8C132.918 367.8 133.67 368.872 133.67 371.032C133.67 373.144 132.918 374.2 131.43 374.2C129.958 374.2 129.222 373.144 129.222 371.032ZM138.437 369.368C138.965 368.472 139.845 367.976 140.725 367.976C141.893 367.976 142.469 368.664 142.469 370.04V375H143.797V369.992C143.797 368.072 142.885 366.92 141.141 366.92C140.005 366.92 139.109 367.368 138.421 368.28L138.085 367.032H137.109V375H138.437V369.368Z" fill="#586068" fill-opacity="0.5"/>
<rect x="64.5" y="405.5" width="379" height="78" rx="3.5" fill="white"/>
<rect x="64.5" y="405.5" width="379" height="78" rx="3.5" stroke="#E6E8E3"/>
<rect x="80" y="420" width="335" height="16" rx="8" fill="#586068" fill-opacity="0.1"/>
<rect x="80" y="452" width="293" height="16" rx="8" fill="#586068" fill-opacity="0.1"/>
<path d="M425 423L420 428L415 423" stroke="#586068" stroke-opacity="0.1" stroke-linecap="round" stroke-linejoin="round"/>
<path d="M66.535 517.335H69.4C70.765 517.335 71.455 518.01 71.455 519.165C71.455 520.32 70.765 520.995 69.4 520.995H66.535V517.335ZM69.175 512.775C70.45 512.775 71.17 513.435 71.17 514.56C71.17 515.685 70.45 516.33 69.175 516.33H66.535V512.775H69.175ZM65.29 522H69.445C70.525 522 71.35 521.73 71.905 521.19C72.46 520.65 72.73 519.99 72.73 519.225C72.73 518.025 71.995 517.065 70.855 516.81C71.77 516.525 72.46 515.565 72.46 514.5C72.46 513.735 72.19 513.09 71.635 512.565C71.08 512.04 70.27 511.77 69.205 511.77H65.29V522ZM80.119 522H81.049V514.53H79.804V519.81C79.309 520.65 78.454 521.13 77.659 521.13C76.564 521.13 76.009 520.575 76.009 519.45V514.53H74.764V519.495C74.764 521.22 75.679 522.105 77.254 522.105C78.319 522.105 79.159 521.685 79.804 520.83L80.119 522ZM88.282 519.9C87.817 520.815 87.157 521.265 86.302 521.265C84.982 521.265 84.262 520.2 84.247 518.265C84.247 516.345 85.057 515.265 86.377 515.265C87.127 515.265 87.757 515.58 88.282 516.21V519.9ZM88.282 515.28C87.727 514.71 87.052 514.425 86.242 514.425C85.312 514.425 84.532 514.77 83.902 515.445C83.272 516.135 82.957 517.08 82.957 518.265C82.957 519.45 83.257 520.395 83.857 521.07C84.442 521.76 85.222 522.105 86.167 522.105C87.022 522.105 87.772 521.715 88.402 520.935L88.702 522H89.527V511.77H88.282V515.28ZM93.5377 518.7C93.2077 518.355 93.0427 517.86 93.0427 517.23C93.0427 515.955 93.6727 515.265 94.8277 515.265C95.9227 515.265 96.5977 515.97 96.5977 517.23C96.5977 517.86 96.4327 518.355 96.1177 518.7C95.8027 519.06 95.3677 519.24 94.8277 519.24C94.2877 519.24 93.8527 519.06 93.5377 518.7ZM96.1177 522.075C97.0327 522.075 97.4227 522.345 97.4227 522.99C97.4227 523.785 96.5527 524.415 94.8277 524.415C93.0427 524.415 92.3827 523.995 92.3827 523.155C92.3827 522.63 92.6677 522.21 93.2227 521.925C93.5377 522.03 93.8827 522.075 94.2577 522.075H96.1177ZM96.2377 514.77C95.7877 514.605 95.3227 514.53 94.8277 514.53C93.9277 514.53 93.1777 514.77 92.5927 515.25C92.0077 515.73 91.7077 516.39 91.7077 517.245C91.7077 518.16 92.0677 518.865 92.7877 519.375C92.4127 519.75 92.2327 520.155 92.2327 520.62C92.2327 520.965 92.3527 521.28 92.5777 521.535C91.5727 521.88 91.0627 522.45 91.0627 523.275C91.0627 524.43 92.3827 525.18 94.8277 525.18C95.9827 525.18 96.9127 524.94 97.6327 524.475C98.3527 524.01 98.7127 523.44 98.7127 522.765C98.7127 521.64 97.9027 521.085 96.2977 521.085H94.2427C93.5677 521.085 93.2377 520.86 93.2377 520.395C93.2377 520.17 93.3277 519.96 93.4927 519.735C93.8977 519.885 94.3327 519.96 94.8277 519.96C95.7127 519.96 96.4627 519.72 97.0627 519.24C97.6477 518.775 97.9477 518.1 97.9477 517.245C97.9477 516.42 97.6627 515.775 97.1077 515.295H98.7427V514.2L96.2377 514.77ZM105.022 519.915C104.707 520.83 104.077 521.28 103.132 521.28C101.977 521.28 101.152 520.455 101.152 518.715V518.49H106.432V517.95C106.432 516.84 106.117 515.97 105.502 515.355C104.887 514.74 104.092 514.425 103.132 514.425C101.197 514.425 99.847 515.745 99.847 518.265C99.847 520.785 101.197 522.105 103.132 522.105C104.767 522.105 105.862 521.28 106.327 519.915H105.022ZM101.167 517.47C101.167 516.105 101.917 515.22 103.132 515.22C104.377 515.22 105.112 516.075 105.112 517.47V517.635H101.167V517.47ZM111.774 515.43V514.53H109.689V512.805L108.444 513.12V514.53H107.409V515.43H108.444V519.885C108.444 521.445 109.149 522.105 110.544 522.105C111.069 522.105 111.534 522.03 111.939 521.88V521.1C111.459 521.205 111.054 521.265 110.709 521.265C110.034 521.265 109.689 520.83 109.689 519.945V515.43H111.774ZM120.709 524.34C119.164 522.315 118.444 520.305 118.444 517.785C118.444 515.265 119.149 513.27 120.709 511.23L120.079 510.9C118.114 512.94 117.169 515.04 117.169 517.785C117.169 520.545 118.114 522.63 120.079 524.67L120.709 524.34ZM128.54 518.28C128.54 515.745 127.235 514.425 125.15 514.425C123.095 514.425 121.79 515.745 121.79 518.28C121.79 520.8 123.065 522.105 125.15 522.105C127.235 522.105 128.54 520.8 128.54 518.28ZM123.08 518.28C123.08 516.255 123.77 515.25 125.15 515.25C126.545 515.25 127.25 516.255 127.25 518.28C127.25 520.26 126.545 521.25 125.15 521.25C123.77 521.25 123.08 520.26 123.08 518.28ZM131.719 516.69C132.184 515.79 132.844 515.34 133.684 515.34C135.049 515.34 135.754 516.36 135.754 518.295C135.739 520.275 135.049 521.265 133.684 521.265C132.814 521.265 132.154 520.89 131.719 520.125V516.69ZM130.474 514.53V525.045H131.719V521.22C132.214 521.805 132.919 522.105 133.834 522.105C134.779 522.105 135.544 521.76 136.144 521.085C136.744 520.41 137.044 519.465 137.044 518.265C137.044 515.85 135.814 514.425 133.969 514.425C132.994 514.425 132.244 514.845 131.689 515.7L131.359 514.53H130.474ZM142.39 515.43V514.53H140.305V512.805L139.06 513.12V514.53H138.025V515.43H139.06V519.885C139.06 521.445 139.765 522.105 141.16 522.105C141.685 522.105 142.15 522.03 142.555 521.88V521.1C142.075 521.205 141.67 521.265 141.325 521.265C140.65 521.265 140.305 520.83 140.305 519.945V515.43H142.39ZM145.354 514.53H144.109V522H145.354V514.53ZM145.519 512.34C145.519 511.875 145.204 511.605 144.724 511.605C144.259 511.605 143.929 511.875 143.929 512.34C143.929 512.775 144.259 513.075 144.724 513.075C145.204 513.075 145.519 512.775 145.519 512.34ZM153.955 518.28C153.955 515.745 152.65 514.425 150.565 514.425C148.51 514.425 147.205 515.745 147.205 518.28C147.205 520.8 148.48 522.105 150.565 522.105C152.65 522.105 153.955 520.8 153.955 518.28ZM148.495 518.28C148.495 516.255 149.185 515.25 150.565 515.25C151.96 515.25 152.665 516.255 152.665 518.28C152.665 520.26 151.96 521.25 150.565 521.25C149.185 521.25 148.495 520.26 148.495 518.28ZM157.134 516.72C157.629 515.88 158.454 515.415 159.279 515.415C160.374 515.415 160.914 516.06 160.914 517.35V522H162.159V517.305C162.159 515.505 161.304 514.425 159.669 514.425C158.604 514.425 157.764 514.845 157.119 515.7L156.804 514.53H155.889V522H157.134V516.72ZM168.912 519.105C168.912 520.545 168.132 521.25 167.067 521.25C166.032 521.25 165.432 520.785 165.432 519.9C165.432 518.895 166.197 518.28 167.592 518.28C167.997 518.28 168.432 518.34 168.912 518.445V519.105ZM165.672 516.42C165.957 515.625 166.527 515.235 167.352 515.235C168.297 515.235 168.912 515.745 168.912 516.705V517.665C168.327 517.56 167.877 517.515 167.532 517.515C165.387 517.515 164.142 518.55 164.142 519.945C164.142 521.265 165.162 522.105 166.767 522.105C167.772 522.105 168.507 521.745 168.972 521.04L169.317 522H170.157V516.795C170.157 515.31 169.077 514.425 167.352 514.425C165.777 514.425 164.712 515.235 164.352 516.42H165.672ZM173.775 511.77H172.53V522H173.775V511.77ZM178.906 517.785C178.906 515.04 177.961 512.94 175.996 510.9L175.366 511.23C176.926 513.27 177.631 515.265 177.631 517.785C177.631 520.305 176.911 522.315 175.366 524.34L175.996 524.67C177.961 522.63 178.906 520.545 178.906 517.785Z" fill="#586068" fill-opacity="0.5"/>
<rect x="64.5" y="536.5" width="379" height="39" rx="3.5" fill="white"/>
<rect x="80" y="548" width="347" height="16" rx="8" fill="#586068" fill-opacity="0.1"/>
<rect x="64.5" y="536.5" width="379" height="39" rx="3.5" stroke="#E6E8E3"/>
<path d="M425 554L420 559L415 554" stroke="#586068" stroke-opacity="0.1" stroke-linecap="round" stroke-linejoin="round"/>
<rect x="467" y="270" width="78" height="56" rx="8" fill="#242628"/>
<path d="M494.77 298.212H497.452C500.17 298.212 501.826 296.736 501.826 294.45C501.826 292.146 500.17 290.706 497.452 290.706H492.736V303H494.77V298.212ZM497.452 292.272C498.946 292.272 499.756 293.064 499.756 294.45C499.756 295.836 498.946 296.646 497.452 296.646H494.77V292.272H497.452ZM508.502 299.616C508.502 301.11 507.71 301.848 506.576 301.848C505.55 301.848 504.902 301.344 504.902 300.426C504.902 299.328 505.73 298.662 507.188 298.662C507.53 298.662 507.98 298.716 508.502 298.806V299.616ZM505.208 296.34C505.478 295.494 506.054 295.062 506.918 295.062C507.872 295.062 508.502 295.602 508.502 296.61V297.762C507.998 297.672 507.512 297.618 507.062 297.618C504.452 297.618 502.814 298.788 502.814 300.516C502.814 302.154 504.092 303.144 506.036 303.144C507.242 303.144 508.124 302.694 508.682 301.812L509.15 303H510.536V296.826C510.536 294.954 509.168 293.892 506.954 293.892C504.884 293.892 503.552 294.846 503.102 296.34H505.208ZM516.273 301.38L513.987 294.036H511.845L515.301 303.162L514.923 304.116C514.581 304.926 514.203 305.214 513.411 305.214H512.583V306.654H513.483C515.301 306.654 516.237 305.844 517.047 303.684L520.701 294.036H518.721L516.273 301.38Z" fill="white"/>
</svg>
