<svg width="671" height="684" viewBox="0 0 671 684" fill="none" xmlns="http://www.w3.org/2000/svg">
<rect x="90" width="508" height="684" rx="32" fill="white"/>
<path d="M169.789 86.42C169.069 88.76 167.539 89.93 165.229 89.93C161.779 89.93 159.589 87.32 159.589 81.77C159.589 76.22 161.749 73.58 165.229 73.58C167.539 73.58 169.069 74.72 169.759 77.03H173.359C172.549 73.4 169.429 71.03 165.229 71.03C159.499 71.03 156.049 74.72 156.049 81.77C156.049 88.82 159.499 92.48 165.229 92.48C169.339 92.48 172.339 90.26 173.389 86.42H169.789ZM180.755 71.51H177.365V92H180.755V71.51ZM194.092 86.36C194.092 88.85 192.772 90.08 190.882 90.08C189.172 90.08 188.092 89.24 188.092 87.71C188.092 85.88 189.472 84.77 191.902 84.77C192.472 84.77 193.222 84.86 194.092 85.01V86.36ZM188.602 80.9C189.052 79.49 190.012 78.77 191.452 78.77C193.042 78.77 194.092 79.67 194.092 81.35V83.27C193.252 83.12 192.442 83.03 191.692 83.03C187.342 83.03 184.612 84.98 184.612 87.86C184.612 90.59 186.742 92.24 189.982 92.24C191.992 92.24 193.462 91.49 194.392 90.02L195.172 92H197.482V81.71C197.482 78.59 195.202 76.82 191.512 76.82C188.062 76.82 185.842 78.41 185.092 80.9H188.602ZM205.095 77.06H201.705V92H205.095V77.06ZM204.855 71.48C204.135 70.88 202.695 70.88 201.975 71.48C201.225 72.11 201.225 73.43 201.975 74.03C202.695 74.63 204.135 74.63 204.855 74.03C205.575 73.43 205.575 72.11 204.855 71.48ZM209.444 77.06V92H212.834V81.74C213.764 80.15 215.174 79.28 216.644 79.28C218.564 79.28 219.524 80.42 219.524 82.67V92H222.884V82.49C222.884 82.25 222.854 81.92 222.824 81.53C223.934 80.03 225.164 79.28 226.574 79.28C228.464 79.28 229.424 80.42 229.424 82.67V92H232.814V82.49C232.814 78.89 230.924 76.82 227.774 76.82C225.704 76.82 223.874 77.72 222.314 79.49C221.534 77.72 220.034 76.82 217.844 76.82C215.774 76.82 214.094 77.66 212.804 79.37L212.084 77.06H209.444ZM252.1 86.36C252.1 88.85 250.78 90.08 248.89 90.08C247.18 90.08 246.1 89.24 246.1 87.71C246.1 85.88 247.48 84.77 249.91 84.77C250.48 84.77 251.23 84.86 252.1 85.01V86.36ZM246.61 80.9C247.06 79.49 248.02 78.77 249.46 78.77C251.05 78.77 252.1 79.67 252.1 81.35V83.27C251.26 83.12 250.45 83.03 249.7 83.03C245.35 83.03 242.62 84.98 242.62 87.86C242.62 90.59 244.75 92.24 247.99 92.24C250 92.24 251.47 91.49 252.4 90.02L253.18 92H255.49V81.71C255.49 78.59 253.21 76.82 249.52 76.82C246.07 76.82 243.85 78.41 243.1 80.9H246.61ZM266.046 77.06V92H269.436V82.55C270.516 80.78 272.136 79.91 274.326 79.91V76.82C272.016 76.82 270.576 77.9 269.376 80.09L268.686 77.06H266.046ZM286.305 87.62C285.825 89.33 284.715 90.2 282.945 90.2C280.935 90.2 279.495 88.76 279.495 85.76V85.04H289.935V83.93C289.935 81.62 289.275 79.88 287.925 78.65C286.575 77.42 284.925 76.82 282.945 76.82C280.965 76.82 279.315 77.45 277.995 78.74C276.675 80.03 276.015 81.98 276.015 84.53C276.015 87.08 276.675 89 277.995 90.29C279.315 91.58 280.965 92.24 282.945 92.24C286.425 92.24 288.885 90.53 289.695 87.62H286.305ZM279.495 82.7C279.495 80.3 280.785 78.74 282.945 78.74C285.105 78.74 286.395 80.21 286.395 82.7V83.09H279.495V82.7ZM296.735 77.06H293.345V92H296.735V77.06ZM296.495 71.48C295.775 70.88 294.335 70.88 293.615 71.48C292.865 72.11 292.865 73.43 293.615 74.03C294.335 74.63 295.775 74.63 296.495 74.03C297.215 73.43 297.215 72.11 296.495 71.48ZM301.085 77.06V92H304.475V81.74C305.405 80.15 306.815 79.28 308.285 79.28C310.205 79.28 311.165 80.42 311.165 82.67V92H314.525V82.49C314.525 82.25 314.495 81.92 314.465 81.53C315.575 80.03 316.805 79.28 318.215 79.28C320.105 79.28 321.065 80.42 321.065 82.67V92H324.455V82.49C324.455 78.89 322.565 76.82 319.415 76.82C317.345 76.82 315.515 77.72 313.955 79.49C313.175 77.72 311.675 76.82 309.485 76.82C307.415 76.82 305.735 77.66 304.445 79.37L303.725 77.06H301.085ZM332.337 81.35C333.177 79.82 334.317 79.04 335.787 79.04C338.097 79.04 339.447 80.9 339.417 84.59C339.387 88.28 338.097 90.14 335.787 90.14C334.257 90.14 333.117 89.36 332.337 87.83V81.35ZM328.947 71.51V92H331.077L331.797 89.9C332.937 91.46 334.467 92.24 336.357 92.24C338.247 92.24 339.837 91.55 341.067 90.17C342.297 88.82 342.897 86.93 342.897 84.53C342.897 79.64 340.467 76.82 336.717 76.82C334.827 76.82 333.357 77.6 332.337 79.16V71.51H328.947ZM357.233 92H359.873V77.06H356.513V87.32C355.553 88.97 354.263 89.78 352.673 89.78C350.783 89.78 349.823 88.76 349.823 86.75V77.06H346.463V86.96C346.463 90.44 348.323 92.24 351.473 92.24C353.573 92.24 355.253 91.4 356.513 89.69L357.233 92ZM364.425 77.06V92H367.815V82.55C368.895 80.78 370.515 79.91 372.705 79.91V76.82C370.395 76.82 368.955 77.9 367.755 80.09L367.065 77.06H364.425ZM387.204 87.8C387.204 85.31 385.554 84.11 382.554 83.42L380.544 82.94C378.834 82.58 377.994 81.98 377.994 80.87C377.994 79.64 379.044 78.83 380.604 78.83C382.104 78.83 383.124 79.55 383.634 80.96H387.054C386.214 78.47 384.084 76.85 380.724 76.82C377.034 76.82 374.724 78.56 374.724 81.2C374.724 83.33 376.194 84.77 379.104 85.46L381.534 86C383.184 86.39 383.934 86.96 383.934 88.16C383.934 89.48 382.824 90.23 380.994 90.23C378.954 90.23 377.814 89.42 377.544 87.77L374.304 87.74C374.694 90.71 377.124 92.24 380.874 92.24C384.804 92.24 387.174 90.56 387.204 87.8ZM400.24 87.62C399.76 89.33 398.65 90.2 396.88 90.2C394.87 90.2 393.43 88.76 393.43 85.76V85.04H403.87V83.93C403.87 81.62 403.21 79.88 401.86 78.65C400.51 77.42 398.86 76.82 396.88 76.82C394.9 76.82 393.25 77.45 391.93 78.74C390.61 80.03 389.95 81.98 389.95 84.53C389.95 87.08 390.61 89 391.93 90.29C393.25 91.58 394.9 92.24 396.88 92.24C400.36 92.24 402.82 90.53 403.63 87.62H400.24ZM393.43 82.7C393.43 80.3 394.72 78.74 396.88 78.74C399.04 78.74 400.33 80.21 400.33 82.7V83.09H393.43V82.7ZM407.491 77.06V92H410.881V81.74C411.811 80.15 413.221 79.28 414.691 79.28C416.611 79.28 417.571 80.42 417.571 82.67V92H420.931V82.49C420.931 82.25 420.901 81.92 420.871 81.53C421.981 80.03 423.211 79.28 424.621 79.28C426.511 79.28 427.471 80.42 427.471 82.67V92H430.861V82.49C430.861 78.89 428.971 76.82 425.821 76.82C423.751 76.82 421.921 77.72 420.361 79.49C419.581 77.72 418.081 76.82 415.891 76.82C413.821 76.82 412.141 77.66 410.851 79.37L410.131 77.06H407.491ZM444.684 87.62C444.204 89.33 443.094 90.2 441.324 90.2C439.314 90.2 437.874 88.76 437.874 85.76V85.04H448.314V83.93C448.314 81.62 447.654 79.88 446.304 78.65C444.954 77.42 443.304 76.82 441.324 76.82C439.344 76.82 437.694 77.45 436.374 78.74C435.054 80.03 434.394 81.98 434.394 84.53C434.394 87.08 435.054 89 436.374 90.29C437.694 91.58 439.344 92.24 441.324 92.24C444.804 92.24 447.264 90.53 448.074 87.62H444.684ZM437.874 82.7C437.874 80.3 439.164 78.74 441.324 78.74C443.484 78.74 444.774 80.21 444.774 82.7V83.09H437.874V82.7ZM455.324 81.74C456.254 80.15 457.664 79.28 459.134 79.28C461.054 79.28 462.014 80.42 462.014 82.67V92H465.374V82.49C465.374 78.92 463.574 76.82 460.334 76.82C458.264 76.82 456.584 77.66 455.294 79.37L454.574 77.06H451.934V92H455.324V81.74ZM477.395 79.1V77.06H473.405V73.37L470.045 74.24V77.06H467.975V79.1H470.045V87.5C470.045 90.83 471.545 92.24 474.695 92.24C475.745 92.24 476.735 92.09 477.695 91.76V89.84C476.705 90.05 475.925 90.17 475.385 90.17C474.065 90.17 473.405 89.36 473.405 87.71V79.1H477.395Z" fill="#586068"/>
<path d="M162.016 148.912H156.704V145.072H161.76V143.984H156.704V140.176H162.016V139.088H155.376V150H162.016V148.912ZM167.73 146L170.594 142.032H169.154L167.01 145.136L164.85 142.032H163.346L166.226 146.048L163.362 150H164.802L166.946 146.896L169.09 150H170.61L167.73 146ZM173.343 144.336C173.839 143.376 174.543 142.896 175.439 142.896C176.895 142.896 177.647 143.984 177.647 146.048C177.631 148.16 176.895 149.216 175.439 149.216C174.511 149.216 173.807 148.816 173.343 148V144.336ZM172.015 142.032V153.248H173.343V149.168C173.871 149.792 174.623 150.112 175.599 150.112C176.607 150.112 177.423 149.744 178.063 149.024C178.703 148.304 179.023 147.296 179.023 146.016C179.023 143.44 177.711 141.92 175.743 141.92C174.703 141.92 173.903 142.368 173.311 143.28L172.959 142.032H172.015ZM186.085 147.776C185.749 148.752 185.077 149.232 184.069 149.232C182.837 149.232 181.957 148.352 181.957 146.496V146.256H187.589V145.68C187.589 144.496 187.253 143.568 186.597 142.912C185.941 142.256 185.093 141.92 184.069 141.92C182.005 141.92 180.565 143.328 180.565 146.016C180.565 148.704 182.005 150.112 184.069 150.112C185.813 150.112 186.981 149.232 187.477 147.776H186.085ZM181.973 145.168C181.973 143.712 182.773 142.768 184.069 142.768C185.397 142.768 186.181 143.68 186.181 145.168V145.344H181.973V145.168ZM190.983 144.368C191.511 143.472 192.391 142.976 193.271 142.976C194.439 142.976 195.015 143.664 195.015 145.04V150H196.343V144.992C196.343 143.072 195.431 141.92 193.687 141.92C192.551 141.92 191.655 142.368 190.967 143.28L190.631 142.032H189.655V150H190.983V144.368ZM204.795 147.856C204.795 146.512 203.899 145.952 202.363 145.584L201.339 145.344C200.363 145.104 199.851 144.784 199.851 144.096C199.851 143.312 200.507 142.816 201.483 142.816C202.491 142.816 202.955 143.232 203.323 144.08H204.731C204.235 142.656 203.163 141.952 201.515 141.936C199.707 141.936 198.523 142.816 198.523 144.176C198.523 145.472 199.419 146.064 200.875 146.4L201.979 146.64C202.955 146.848 203.467 147.2 203.467 147.952C203.467 148.784 202.763 149.248 201.691 149.248C200.459 149.248 199.771 148.752 199.595 147.776H198.267C198.459 149.264 199.707 150.112 201.627 150.112C203.563 150.112 204.779 149.264 204.795 147.856ZM211.835 147.776C211.499 148.752 210.827 149.232 209.819 149.232C208.587 149.232 207.707 148.352 207.707 146.496V146.256H213.339V145.68C213.339 144.496 213.003 143.568 212.347 142.912C211.691 142.256 210.843 141.92 209.819 141.92C207.755 141.92 206.315 143.328 206.315 146.016C206.315 148.704 207.755 150.112 209.819 150.112C211.563 150.112 212.731 149.232 213.227 147.776H211.835ZM207.723 145.168C207.723 143.712 208.523 142.768 209.819 142.768C211.147 142.768 211.931 143.68 211.931 145.168V145.344H207.723V145.168ZM223.901 147.76C223.405 148.736 222.701 149.216 221.789 149.216C220.381 149.216 219.613 148.08 219.597 146.016C219.597 143.968 220.461 142.816 221.869 142.816C222.669 142.816 223.341 143.152 223.901 143.824V147.76ZM223.901 142.832C223.309 142.224 222.589 141.92 221.725 141.92C220.733 141.92 219.901 142.288 219.229 143.008C218.557 143.744 218.221 144.752 218.221 146.016C218.221 147.28 218.541 148.288 219.181 149.008C219.805 149.744 220.637 150.112 221.645 150.112C222.557 150.112 223.357 149.696 224.029 148.864L224.349 150H225.229V139.088H223.901V142.832ZM232.531 146.912C232.531 148.448 231.699 149.2 230.563 149.2C229.459 149.2 228.819 148.704 228.819 147.76C228.819 146.688 229.635 146.032 231.123 146.032C231.555 146.032 232.019 146.096 232.531 146.208V146.912ZM229.075 144.048C229.379 143.2 229.987 142.784 230.867 142.784C231.875 142.784 232.531 143.328 232.531 144.352V145.376C231.907 145.264 231.427 145.216 231.059 145.216C228.771 145.216 227.443 146.32 227.443 147.808C227.443 149.216 228.531 150.112 230.243 150.112C231.315 150.112 232.099 149.728 232.595 148.976L232.963 150H233.859V144.448C233.859 142.864 232.707 141.92 230.867 141.92C229.187 141.92 228.051 142.784 227.667 144.048H229.075ZM240.006 142.992V142.032H237.782V140.192L236.454 140.528V142.032H235.35V142.992H236.454V147.744C236.454 149.408 237.206 150.112 238.694 150.112C239.254 150.112 239.75 150.032 240.182 149.872V149.04C239.67 149.152 239.238 149.216 238.87 149.216C238.15 149.216 237.782 148.752 237.782 147.808V142.992H240.006ZM246.929 147.776C246.593 148.752 245.921 149.232 244.913 149.232C243.681 149.232 242.801 148.352 242.801 146.496V146.256H248.433V145.68C248.433 144.496 248.097 143.568 247.441 142.912C246.785 142.256 245.937 141.92 244.913 141.92C242.849 141.92 241.409 143.328 241.409 146.016C241.409 148.704 242.849 150.112 244.913 150.112C246.657 150.112 247.825 149.232 248.321 147.776H246.929ZM242.817 145.168C242.817 143.712 243.617 142.768 244.913 142.768C246.241 142.768 247.025 143.68 247.025 145.168V145.344H242.817V145.168Z" fill="#586068" fill-opacity="0.5"/>
<rect x="154.5" y="164.5" width="379" height="39" rx="3.5" fill="white"/>
<rect x="154.5" y="164.5" width="379" height="39" rx="3.5" stroke="#E6E8E3"/>
<rect x="170" y="176" width="200" height="16" rx="8" fill="#586068" fill-opacity="0.1"/>
<path d="M158.71 232.82L160.57 238.265H156.88L158.71 232.82ZM163.195 242L159.49 231.77H157.93L154.3 242H155.635L156.55 239.285H160.915L161.845 242H163.195ZM164.707 234.53V242H165.952V236.72C166.447 235.88 167.272 235.415 168.097 235.415C169.192 235.415 169.732 236.06 169.732 237.35V242H170.977V237.305C170.977 237.05 170.962 236.825 170.932 236.615C171.547 235.82 172.252 235.415 173.032 235.415C174.127 235.415 174.682 236.06 174.682 237.35V242H175.927V237.305C175.927 235.505 175.012 234.425 173.437 234.425C172.402 234.425 171.487 234.875 170.692 235.76C170.317 234.875 169.582 234.425 168.487 234.425C167.422 234.425 166.582 234.845 165.937 235.7L165.622 234.53H164.707ZM184.541 238.28C184.541 235.745 183.236 234.425 181.151 234.425C179.096 234.425 177.791 235.745 177.791 238.28C177.791 240.8 179.066 242.105 181.151 242.105C183.236 242.105 184.541 240.8 184.541 238.28ZM179.081 238.28C179.081 236.255 179.771 235.25 181.151 235.25C182.546 235.25 183.251 236.255 183.251 238.28C183.251 240.26 182.546 241.25 181.151 241.25C179.771 241.25 179.081 240.26 179.081 238.28ZM191.755 242H192.685V234.53H191.44V239.81C190.945 240.65 190.09 241.13 189.295 241.13C188.2 241.13 187.645 240.575 187.645 239.45V234.53H186.4V239.495C186.4 241.22 187.315 242.105 188.89 242.105C189.955 242.105 190.795 241.685 191.44 240.83L191.755 242ZM196.348 236.72C196.843 235.88 197.668 235.415 198.493 235.415C199.588 235.415 200.128 236.06 200.128 237.35V242H201.373V237.305C201.373 235.505 200.518 234.425 198.883 234.425C197.818 234.425 196.978 234.845 196.333 235.7L196.018 234.53H195.103V242H196.348V236.72ZM207.136 235.43V234.53H205.051V232.805L203.806 233.12V234.53H202.771V235.43H203.806V239.885C203.806 241.445 204.511 242.105 205.906 242.105C206.431 242.105 206.896 242.03 207.301 241.88V241.1C206.821 241.205 206.416 241.265 206.071 241.265C205.396 241.265 205.051 240.83 205.051 239.945V235.43H207.136Z" fill="#586068" fill-opacity="0.5"/>
<path d="M154 262.4C154 260.16 154 259.04 154.436 258.184C154.819 257.431 155.431 256.819 156.184 256.436C157.04 256 158.16 256 160.4 256H527.6C529.84 256 530.96 256 531.816 256.436C532.569 256.819 533.181 257.431 533.564 258.184C534 259.04 534 260.16 534 262.4V289.6C534 291.84 534 292.96 533.564 293.816C533.181 294.569 532.569 295.181 531.816 295.564C530.96 296 529.84 296 527.6 296H160.4C158.16 296 157.04 296 156.184 295.564C155.431 295.181 154.819 294.569 154.436 293.816C154 292.96 154 291.84 154 289.6V262.4Z" fill="white"/>
<path d="M156.184 295.564L156.638 294.673L156.184 295.564ZM154.436 293.816L155.327 293.362L154.436 293.816ZM533.564 293.816L534.455 294.27L533.564 293.816ZM531.816 295.564L531.362 294.673L531.816 295.564ZM531.816 256.436L532.27 255.545L531.816 256.436ZM533.564 258.184L534.455 257.73L533.564 258.184ZM156.184 256.436L155.73 255.545L156.184 256.436ZM154.436 258.184L153.545 257.73L154.436 258.184ZM160.4 257H527.6V255H160.4V257ZM533 262.4V289.6H535V262.4H533ZM527.6 295H160.4V297H527.6V295ZM155 289.6V262.4H153V289.6H155ZM160.4 295C159.263 295 158.471 294.999 157.854 294.949C157.249 294.899 156.901 294.807 156.638 294.673L155.73 296.455C156.322 296.757 156.963 296.883 157.691 296.942C158.409 297.001 159.296 297 160.4 297V295ZM153 289.6C153 290.704 152.999 291.591 153.058 292.309C153.117 293.037 153.243 293.678 153.545 294.27L155.327 293.362C155.193 293.099 155.101 292.751 155.051 292.146C155.001 291.529 155 290.737 155 289.6H153ZM156.638 294.673C156.074 294.385 155.615 293.926 155.327 293.362L153.545 294.27C154.024 295.211 154.789 295.976 155.73 296.455L156.638 294.673ZM533 289.6C533 290.737 532.999 291.529 532.949 292.146C532.899 292.751 532.807 293.099 532.673 293.362L534.455 294.27C534.757 293.678 534.883 293.037 534.942 292.309C535.001 291.591 535 290.704 535 289.6H533ZM527.6 297C528.704 297 529.591 297.001 530.309 296.942C531.037 296.883 531.678 296.757 532.27 296.455L531.362 294.673C531.099 294.807 530.751 294.899 530.146 294.949C529.529 294.999 528.737 295 527.6 295V297ZM532.673 293.362C532.385 293.926 531.926 294.385 531.362 294.673L532.27 296.455C533.211 295.976 533.976 295.211 534.455 294.27L532.673 293.362ZM527.6 257C528.737 257 529.529 257.001 530.146 257.051C530.751 257.101 531.099 257.193 531.362 257.327L532.27 255.545C531.678 255.243 531.037 255.117 530.309 255.058C529.591 254.999 528.704 255 527.6 255V257ZM535 262.4C535 261.296 535.001 260.409 534.942 259.691C534.883 258.963 534.757 258.322 534.455 257.73L532.673 258.638C532.807 258.901 532.899 259.249 532.949 259.854C532.999 260.471 533 261.263 533 262.4H535ZM531.362 257.327C531.926 257.615 532.385 258.074 532.673 258.638L534.455 257.73C533.976 256.789 533.211 256.024 532.27 255.545L531.362 257.327ZM160.4 255C159.296 255 158.409 254.999 157.691 255.058C156.963 255.117 156.322 255.243 155.73 255.545L156.638 257.327C156.901 257.193 157.249 257.101 157.854 257.051C158.471 257.001 159.263 257 160.4 257V255ZM155 262.4C155 261.263 155.001 260.471 155.051 259.854C155.101 259.249 155.193 258.901 155.327 258.638L153.545 257.73C153.243 258.322 153.117 258.963 153.058 259.691C152.999 260.409 153 261.296 153 262.4H155ZM155.73 255.545C154.789 256.024 154.024 256.789 153.545 257.73L155.327 258.638C155.615 258.074 156.074 257.615 156.638 257.327L155.73 255.545Z" fill="#E6E8E3"/>
<path d="M173.125 277.25H186.875" stroke="#586068" stroke-opacity="0.5" stroke-linecap="round" stroke-linejoin="round"/>
<path d="M173.125 274.75H186.875" stroke="#586068" stroke-opacity="0.5" stroke-linecap="round" stroke-linejoin="round"/>
<path d="M175 282.406V269.594L185 282.406V269.594" stroke="#586068" stroke-opacity="0.5" stroke-linecap="round" stroke-linejoin="round"/>
<path d="M203 274L198 279L193 274" stroke="#586068" stroke-opacity="0.5" stroke-linecap="round" stroke-linejoin="round"/>
<rect x="214" y="268" width="244" height="16" rx="8" fill="#586068" fill-opacity="0.1"/>
<path d="M158.624 334C160.272 334 161.552 333.504 162.448 332.528C163.328 331.552 163.776 330.24 163.776 328.56C163.776 326.88 163.328 325.536 162.448 324.56C161.552 323.584 160.272 323.088 158.624 323.088H155.376V334H158.624ZM158.624 324.176C161.136 324.176 162.4 325.632 162.4 328.56C162.4 331.456 161.136 332.912 158.624 332.912H156.704V324.176H158.624ZM170.96 331.776C170.624 332.752 169.952 333.232 168.944 333.232C167.712 333.232 166.832 332.352 166.832 330.496V330.256H172.464V329.68C172.464 328.496 172.128 327.568 171.472 326.912C170.816 326.256 169.968 325.92 168.944 325.92C166.88 325.92 165.44 327.328 165.44 330.016C165.44 332.704 166.88 334.112 168.944 334.112C170.688 334.112 171.856 333.232 172.352 331.776H170.96ZM166.848 329.168C166.848 327.712 167.648 326.768 168.944 326.768C170.272 326.768 171.056 327.68 171.056 329.168V329.344H166.848V329.168ZM180.466 331.856C180.466 330.512 179.57 329.952 178.034 329.584L177.01 329.344C176.034 329.104 175.522 328.784 175.522 328.096C175.522 327.312 176.178 326.816 177.154 326.816C178.162 326.816 178.626 327.232 178.994 328.08H180.402C179.906 326.656 178.834 325.952 177.186 325.936C175.378 325.936 174.194 326.816 174.194 328.176C174.194 329.472 175.09 330.064 176.546 330.4L177.65 330.64C178.626 330.848 179.138 331.2 179.138 331.952C179.138 332.784 178.434 333.248 177.362 333.248C176.13 333.248 175.442 332.752 175.266 331.776H173.938C174.13 333.264 175.378 334.112 177.298 334.112C179.234 334.112 180.45 333.264 180.466 331.856ZM187.491 331.6C187.187 332.672 186.547 333.2 185.571 333.2C184.083 333.2 183.347 332.144 183.347 330.032C183.347 327.872 184.083 326.8 185.571 326.8C186.531 326.8 187.251 327.408 187.491 328.432H188.851C188.515 326.896 187.299 325.92 185.571 325.92C183.347 325.92 181.971 327.328 181.971 330.032C181.971 332.72 183.347 334.112 185.571 334.112C187.251 334.112 188.467 333.184 188.851 331.6H187.491ZM190.905 326.032V334H192.233V328.704C192.825 327.696 193.705 327.184 194.857 327.184V325.92C193.641 325.92 192.857 326.464 192.201 327.632L191.881 326.032H190.905ZM197.497 326.032H196.169V334H197.497V326.032ZM197.673 323.696C197.673 323.2 197.337 322.912 196.825 322.912C196.329 322.912 195.977 323.2 195.977 323.696C195.977 324.16 196.329 324.48 196.825 324.48C197.337 324.48 197.673 324.16 197.673 323.696ZM201.327 328.336C201.823 327.376 202.527 326.896 203.423 326.896C204.879 326.896 205.631 327.984 205.631 330.048C205.615 332.16 204.879 333.216 203.423 333.216C202.495 333.216 201.791 332.816 201.327 332V328.336ZM199.999 326.032V337.248H201.327V333.168C201.855 333.792 202.607 334.112 203.583 334.112C204.591 334.112 205.407 333.744 206.047 333.024C206.687 332.304 207.007 331.296 207.007 330.016C207.007 327.44 205.695 325.92 203.727 325.92C202.687 325.92 201.887 326.368 201.295 327.28L200.943 326.032H199.999ZM212.709 326.992V326.032H210.485V324.192L209.157 324.528V326.032H208.053V326.992H209.157V331.744C209.157 333.408 209.909 334.112 211.397 334.112C211.957 334.112 212.453 334.032 212.885 333.872V333.04C212.373 333.152 211.941 333.216 211.573 333.216C210.853 333.216 210.485 332.752 210.485 331.808V326.992H212.709ZM215.872 326.032H214.544V334H215.872V326.032ZM216.048 323.696C216.048 323.2 215.712 322.912 215.2 322.912C214.704 322.912 214.352 323.2 214.352 323.696C214.352 324.16 214.704 324.48 215.2 324.48C215.712 324.48 216.048 324.16 216.048 323.696ZM225.046 330.032C225.046 327.328 223.654 325.92 221.43 325.92C219.238 325.92 217.846 327.328 217.846 330.032C217.846 332.72 219.206 334.112 221.43 334.112C223.654 334.112 225.046 332.72 225.046 330.032ZM219.222 330.032C219.222 327.872 219.958 326.8 221.43 326.8C222.918 326.8 223.67 327.872 223.67 330.032C223.67 332.144 222.918 333.2 221.43 333.2C219.958 333.2 219.222 332.144 219.222 330.032ZM228.437 328.368C228.965 327.472 229.845 326.976 230.725 326.976C231.893 326.976 232.469 327.664 232.469 329.04V334H233.797V328.992C233.797 327.072 232.885 325.92 231.141 325.92C230.005 325.92 229.109 326.368 228.421 327.28L228.085 326.032H227.109V334H228.437V328.368Z" fill="#586068" fill-opacity="0.5"/>
<rect x="154.5" y="364.5" width="379" height="78" rx="3.5" fill="white"/>
<rect x="154.5" y="364.5" width="379" height="78" rx="3.5" stroke="#E6E8E3"/>
<rect x="170" y="379" width="335" height="16" rx="8" fill="#586068" fill-opacity="0.1"/>
<rect x="170" y="411" width="293" height="16" rx="8" fill="#586068" fill-opacity="0.1"/>
<path d="M515 382L510 387L505 382" stroke="#586068" stroke-opacity="0.1" stroke-linecap="round" stroke-linejoin="round"/>
<path d="M163.195 470.77H161.845L158.71 479.785L155.635 470.77H154.3L158.065 481H159.355L163.195 470.77ZM168.582 478.915C168.267 479.83 167.637 480.28 166.692 480.28C165.537 480.28 164.712 479.455 164.712 477.715V477.49H169.992V476.95C169.992 475.84 169.677 474.97 169.062 474.355C168.447 473.74 167.652 473.425 166.692 473.425C164.757 473.425 163.407 474.745 163.407 477.265C163.407 479.785 164.757 481.105 166.692 481.105C168.327 481.105 169.422 480.28 169.887 478.915H168.582ZM164.727 476.47C164.727 475.105 165.477 474.22 166.692 474.22C167.937 474.22 168.672 475.075 168.672 476.47V476.635H164.727V476.47ZM173.174 475.72C173.669 474.88 174.494 474.415 175.319 474.415C176.414 474.415 176.954 475.06 176.954 476.35V481H178.199V476.305C178.199 474.505 177.344 473.425 175.709 473.425C174.644 473.425 173.804 473.845 173.159 474.7L172.844 473.53H171.929V481H173.174V475.72ZM185.372 478.9C184.907 479.815 184.247 480.265 183.392 480.265C182.072 480.265 181.352 479.2 181.337 477.265C181.337 475.345 182.147 474.265 183.467 474.265C184.217 474.265 184.847 474.58 185.372 475.21V478.9ZM185.372 474.28C184.817 473.71 184.142 473.425 183.332 473.425C182.402 473.425 181.622 473.77 180.992 474.445C180.362 475.135 180.047 476.08 180.047 477.265C180.047 478.45 180.347 479.395 180.947 480.07C181.532 480.76 182.312 481.105 183.257 481.105C184.112 481.105 184.862 480.715 185.492 479.935L185.792 481H186.617V470.77H185.372V474.28ZM195.323 477.28C195.323 474.745 194.018 473.425 191.933 473.425C189.878 473.425 188.573 474.745 188.573 477.28C188.573 479.8 189.848 481.105 191.933 481.105C194.018 481.105 195.323 479.8 195.323 477.28ZM189.863 477.28C189.863 475.255 190.553 474.25 191.933 474.25C193.328 474.25 194.033 475.255 194.033 477.28C194.033 479.26 193.328 480.25 191.933 480.25C190.553 480.25 189.863 479.26 189.863 477.28ZM197.256 473.53V481H198.501V476.035C199.056 475.09 199.881 474.61 200.961 474.61V473.425C199.821 473.425 199.086 473.935 198.471 475.03L198.171 473.53H197.256ZM209.405 483.34C207.86 481.315 207.14 479.305 207.14 476.785C207.14 474.265 207.845 472.27 209.405 470.23L208.775 469.9C206.81 471.94 205.865 474.04 205.865 476.785C205.865 479.545 206.81 481.63 208.775 483.67L209.405 483.34ZM217.957 479.905L216.067 473.53H214.747L212.857 479.89L211.147 473.53H209.857L212.137 481H213.487L215.407 474.715L217.327 481H218.677L220.957 473.53H219.652L217.957 479.905ZM223.566 475.72C224.061 474.88 224.886 474.415 225.711 474.415C226.806 474.415 227.346 475.06 227.346 476.35V481H228.591V476.305C228.591 474.505 227.736 473.425 226.101 473.425C225.036 473.425 224.181 473.845 223.566 474.7V470.77H222.321V481H223.566V475.72ZM235.642 478.915C235.327 479.83 234.697 480.28 233.752 480.28C232.597 480.28 231.772 479.455 231.772 477.715V477.49H237.052V476.95C237.052 475.84 236.737 474.97 236.122 474.355C235.507 473.74 234.712 473.425 233.752 473.425C231.817 473.425 230.467 474.745 230.467 477.265C230.467 479.785 231.817 481.105 233.752 481.105C235.387 481.105 236.482 480.28 236.947 478.915H235.642ZM231.787 476.47C231.787 475.105 232.537 474.22 233.752 474.22C234.997 474.22 235.732 475.075 235.732 476.47V476.635H231.787V476.47ZM238.989 473.53V481H240.234V476.035C240.789 475.09 241.614 474.61 242.694 474.61V473.425C241.554 473.425 240.819 473.935 240.204 475.03L239.904 473.53H238.989ZM248.694 478.915C248.379 479.83 247.749 480.28 246.804 480.28C245.649 480.28 244.824 479.455 244.824 477.715V477.49H250.104V476.95C250.104 475.84 249.789 474.97 249.174 474.355C248.559 473.74 247.764 473.425 246.804 473.425C244.869 473.425 243.519 474.745 243.519 477.265C243.519 479.785 244.869 481.105 246.804 481.105C248.439 481.105 249.534 480.28 249.999 478.915H248.694ZM244.839 476.47C244.839 475.105 245.589 474.22 246.804 474.22C248.049 474.22 248.784 475.075 248.784 476.47V476.635H244.839V476.47ZM260.006 478.9C259.541 479.815 258.881 480.265 258.026 480.265C256.706 480.265 255.986 479.2 255.971 477.265C255.971 475.345 256.781 474.265 258.101 474.265C258.851 474.265 259.481 474.58 260.006 475.21V478.9ZM260.006 474.28C259.451 473.71 258.776 473.425 257.966 473.425C257.036 473.425 256.256 473.77 255.626 474.445C254.996 475.135 254.681 476.08 254.681 477.265C254.681 478.45 254.981 479.395 255.581 480.07C256.166 480.76 256.946 481.105 257.891 481.105C258.746 481.105 259.496 480.715 260.126 479.935L260.426 481H261.251V470.77H260.006V474.28ZM264.856 473.53H263.611V481H264.856V473.53ZM265.021 471.34C265.021 470.875 264.706 470.605 264.226 470.605C263.761 470.605 263.431 470.875 263.431 471.34C263.431 471.775 263.761 472.075 264.226 472.075C264.706 472.075 265.021 471.775 265.021 471.34ZM272.017 478.9C271.552 479.815 270.892 480.265 270.037 480.265C268.717 480.265 267.997 479.2 267.982 477.265C267.982 475.345 268.792 474.265 270.112 474.265C270.862 474.265 271.492 474.58 272.017 475.21V478.9ZM272.017 474.28C271.462 473.71 270.787 473.425 269.977 473.425C269.047 473.425 268.267 473.77 267.637 474.445C267.007 475.135 266.692 476.08 266.692 477.265C266.692 478.45 266.992 479.395 267.592 480.07C268.177 480.76 268.957 481.105 269.902 481.105C270.757 481.105 271.507 480.715 272.137 479.935L272.437 481H273.262V470.77H272.017V474.28ZM281.217 479.725L279.042 473.53H277.737L280.602 480.985L280.197 482.02C279.882 482.815 279.522 483.085 278.817 483.085H278.232V484.045H278.847C280.167 484.045 280.842 483.445 281.487 481.81L284.682 473.53H283.437L281.217 479.725ZM292.237 477.28C292.237 474.745 290.932 473.425 288.847 473.425C286.792 473.425 285.487 474.745 285.487 477.28C285.487 479.8 286.762 481.105 288.847 481.105C290.932 481.105 292.237 479.8 292.237 477.28ZM286.777 477.28C286.777 475.255 287.467 474.25 288.847 474.25C290.242 474.25 290.947 475.255 290.947 477.28C290.947 479.26 290.242 480.25 288.847 480.25C287.467 480.25 286.777 479.26 286.777 477.28ZM299.45 481H300.38V473.53H299.135V478.81C298.64 479.65 297.785 480.13 296.99 480.13C295.895 480.13 295.34 479.575 295.34 478.45V473.53H294.095V478.495C294.095 480.22 295.01 481.105 296.585 481.105C297.65 481.105 298.49 480.685 299.135 479.83L299.45 481ZM314.662 478.99C314.662 477.73 313.822 477.205 312.382 476.86L311.422 476.635C310.507 476.41 310.027 476.11 310.027 475.465C310.027 474.73 310.642 474.265 311.557 474.265C312.502 474.265 312.937 474.655 313.282 475.45H314.602C314.137 474.115 313.132 473.455 311.587 473.44C309.892 473.44 308.782 474.265 308.782 475.54C308.782 476.755 309.622 477.31 310.987 477.625L312.022 477.85C312.937 478.045 313.417 478.375 313.417 479.08C313.417 479.86 312.757 480.295 311.752 480.295C310.597 480.295 309.952 479.83 309.787 478.915H308.542C308.722 480.31 309.892 481.105 311.692 481.105C313.507 481.105 314.647 480.31 314.662 478.99ZM317.827 475.69C318.292 474.79 318.952 474.34 319.792 474.34C321.157 474.34 321.862 475.36 321.862 477.295C321.847 479.275 321.157 480.265 319.792 480.265C318.922 480.265 318.262 479.89 317.827 479.125V475.69ZM316.582 473.53V484.045H317.827V480.22C318.322 480.805 319.027 481.105 319.942 481.105C320.887 481.105 321.652 480.76 322.252 480.085C322.852 479.41 323.152 478.465 323.152 477.265C323.152 474.85 321.922 473.425 320.077 473.425C319.102 473.425 318.352 473.845 317.797 474.7L317.467 473.53H316.582ZM329.773 478.915C329.458 479.83 328.828 480.28 327.883 480.28C326.728 480.28 325.903 479.455 325.903 477.715V477.49H331.183V476.95C331.183 475.84 330.868 474.97 330.253 474.355C329.638 473.74 328.843 473.425 327.883 473.425C325.948 473.425 324.598 474.745 324.598 477.265C324.598 479.785 325.948 481.105 327.883 481.105C329.518 481.105 330.613 480.28 331.078 478.915H329.773ZM325.918 476.47C325.918 475.105 326.668 474.22 327.883 474.22C329.128 474.22 329.863 475.075 329.863 476.47V476.635H325.918V476.47ZM334.365 475.72C334.86 474.88 335.685 474.415 336.51 474.415C337.605 474.415 338.145 475.06 338.145 476.35V481H339.39V476.305C339.39 474.505 338.535 473.425 336.9 473.425C335.835 473.425 334.995 473.845 334.35 474.7L334.035 473.53H333.12V481H334.365V475.72ZM346.563 478.9C346.098 479.815 345.438 480.265 344.583 480.265C343.263 480.265 342.543 479.2 342.528 477.265C342.528 475.345 343.338 474.265 344.658 474.265C345.408 474.265 346.038 474.58 346.563 475.21V478.9ZM346.563 474.28C346.008 473.71 345.333 473.425 344.523 473.425C343.593 473.425 342.813 473.77 342.183 474.445C341.553 475.135 341.238 476.08 341.238 477.265C341.238 478.45 341.538 479.395 342.138 480.07C342.723 480.76 343.503 481.105 344.448 481.105C345.303 481.105 346.053 480.715 346.683 479.935L346.983 481H347.808V470.77H346.563V474.28ZM356.813 474.43V473.53H354.728V471.805L353.483 472.12V473.53H352.448V474.43H353.483V478.885C353.483 480.445 354.188 481.105 355.583 481.105C356.108 481.105 356.573 481.03 356.978 480.88V480.1C356.498 480.205 356.093 480.265 355.748 480.265C355.073 480.265 354.728 479.83 354.728 478.945V474.43H356.813ZM359.928 475.72C360.423 474.88 361.248 474.415 362.073 474.415C363.168 474.415 363.708 475.06 363.708 476.35V481H364.953V476.305C364.953 474.505 364.098 473.425 362.463 473.425C361.398 473.425 360.543 473.845 359.928 474.7V470.77H358.683V481H359.928V475.72ZM372.004 478.915C371.689 479.83 371.059 480.28 370.114 480.28C368.959 480.28 368.134 479.455 368.134 477.715V477.49H373.414V476.95C373.414 475.84 373.099 474.97 372.484 474.355C371.869 473.74 371.074 473.425 370.114 473.425C368.179 473.425 366.829 474.745 366.829 477.265C366.829 479.785 368.179 481.105 370.114 481.105C371.749 481.105 372.844 480.28 373.309 478.915H372.004ZM368.149 476.47C368.149 475.105 368.899 474.22 370.114 474.22C371.359 474.22 372.094 475.075 372.094 476.47V476.635H368.149V476.47ZM378.501 473.53V481H379.746V475.72C380.241 474.88 381.066 474.415 381.891 474.415C382.986 474.415 383.526 475.06 383.526 476.35V481H384.771V476.305C384.771 476.05 384.756 475.825 384.726 475.615C385.341 474.82 386.046 474.415 386.826 474.415C387.921 474.415 388.476 475.06 388.476 476.35V481H389.721V476.305C389.721 474.505 388.806 473.425 387.231 473.425C386.196 473.425 385.281 473.875 384.486 474.76C384.111 473.875 383.376 473.425 382.281 473.425C381.216 473.425 380.376 473.845 379.731 474.7L379.416 473.53H378.501ZM398.335 477.28C398.335 474.745 397.03 473.425 394.945 473.425C392.89 473.425 391.585 474.745 391.585 477.28C391.585 479.8 392.86 481.105 394.945 481.105C397.03 481.105 398.335 479.8 398.335 477.28ZM392.875 477.28C392.875 475.255 393.565 474.25 394.945 474.25C396.34 474.25 397.045 475.255 397.045 477.28C397.045 479.26 396.34 480.25 394.945 480.25C393.565 480.25 392.875 479.26 392.875 477.28ZM401.514 475.72C402.009 474.88 402.834 474.415 403.659 474.415C404.754 474.415 405.294 475.06 405.294 476.35V481H406.539V476.305C406.539 474.505 405.684 473.425 404.049 473.425C402.984 473.425 402.144 473.845 401.499 474.7L401.184 473.53H400.269V481H401.514V475.72ZM413.577 478.915C413.262 479.83 412.632 480.28 411.687 480.28C410.532 480.28 409.707 479.455 409.707 477.715V477.49H414.987V476.95C414.987 475.84 414.672 474.97 414.057 474.355C413.442 473.74 412.647 473.425 411.687 473.425C409.752 473.425 408.402 474.745 408.402 477.265C408.402 479.785 409.752 481.105 411.687 481.105C413.322 481.105 414.417 480.28 414.882 478.915H413.577ZM409.722 476.47C409.722 475.105 410.472 474.22 411.687 474.22C412.932 474.22 413.667 475.075 413.667 476.47V476.635H409.722V476.47ZM419.279 479.725L417.104 473.53H415.799L418.664 480.985L418.259 482.02C417.944 482.815 417.584 483.085 416.879 483.085H416.294V484.045H416.909C418.229 484.045 418.904 483.445 419.549 481.81L422.744 473.53H421.499L419.279 479.725ZM427.178 477.82C427.178 477.235 427.298 476.95 427.823 476.545L428.813 475.795C429.893 475 430.223 474.355 430.223 473.29C430.223 472.525 429.908 471.865 429.278 471.34C428.633 470.815 427.823 470.545 426.818 470.545C424.853 470.545 423.608 471.505 423.263 473.2H424.583C424.823 472.015 425.573 471.43 426.818 471.43C428.063 471.43 428.918 472.255 428.918 473.29C428.918 474.055 428.723 474.505 427.778 475.21L426.893 475.885C426.098 476.485 425.933 476.92 425.933 477.775V478.66H427.178V477.82ZM427.388 480.37C427.388 479.935 427.058 479.605 426.593 479.605C426.128 479.605 425.783 479.935 425.783 480.37C425.708 481.39 427.478 481.39 427.388 480.37ZM434.594 476.785C434.594 474.04 433.649 471.94 431.684 469.9L431.054 470.23C432.614 472.27 433.319 474.265 433.319 476.785C433.319 479.305 432.599 481.315 431.054 483.34L431.684 483.67C433.649 481.63 434.594 479.545 434.594 476.785Z" fill="#586068" fill-opacity="0.5"/>
<rect x="154.5" y="495.5" width="379" height="39" rx="3.5" fill="white"/>
<rect x="170" y="507" width="217" height="16" rx="8" fill="#586068" fill-opacity="0.1"/>
<rect x="154.5" y="495.5" width="379" height="39" rx="3.5" stroke="#E6E8E3"/>
<path d="M515 513L510 518L505 513" stroke="#586068" stroke-opacity="0.1" stroke-linecap="round" stroke-linejoin="round"/>
<path d="M156.535 581.335H159.4C160.765 581.335 161.455 582.01 161.455 583.165C161.455 584.32 160.765 584.995 159.4 584.995H156.535V581.335ZM159.175 576.775C160.45 576.775 161.17 577.435 161.17 578.56C161.17 579.685 160.45 580.33 159.175 580.33H156.535V576.775H159.175ZM155.29 586H159.445C160.525 586 161.35 585.73 161.905 585.19C162.46 584.65 162.73 583.99 162.73 583.225C162.73 582.025 161.995 581.065 160.855 580.81C161.77 580.525 162.46 579.565 162.46 578.5C162.46 577.735 162.19 577.09 161.635 576.565C161.08 576.04 160.27 575.77 159.205 575.77H155.29V586ZM170.119 586H171.049V578.53H169.804V583.81C169.309 584.65 168.454 585.13 167.659 585.13C166.564 585.13 166.009 584.575 166.009 583.45V578.53H164.764V583.495C164.764 585.22 165.679 586.105 167.254 586.105C168.319 586.105 169.159 585.685 169.804 584.83L170.119 586ZM178.282 583.9C177.817 584.815 177.157 585.265 176.302 585.265C174.982 585.265 174.262 584.2 174.247 582.265C174.247 580.345 175.057 579.265 176.377 579.265C177.127 579.265 177.757 579.58 178.282 580.21V583.9ZM178.282 579.28C177.727 578.71 177.052 578.425 176.242 578.425C175.312 578.425 174.532 578.77 173.902 579.445C173.272 580.135 172.957 581.08 172.957 582.265C172.957 583.45 173.257 584.395 173.857 585.07C174.442 585.76 175.222 586.105 176.167 586.105C177.022 586.105 177.772 585.715 178.402 584.935L178.702 586H179.527V575.77H178.282V579.28ZM183.538 582.7C183.208 582.355 183.043 581.86 183.043 581.23C183.043 579.955 183.673 579.265 184.828 579.265C185.923 579.265 186.598 579.97 186.598 581.23C186.598 581.86 186.433 582.355 186.118 582.7C185.803 583.06 185.368 583.24 184.828 583.24C184.288 583.24 183.853 583.06 183.538 582.7ZM186.118 586.075C187.033 586.075 187.423 586.345 187.423 586.99C187.423 587.785 186.553 588.415 184.828 588.415C183.043 588.415 182.383 587.995 182.383 587.155C182.383 586.63 182.668 586.21 183.223 585.925C183.538 586.03 183.883 586.075 184.258 586.075H186.118ZM186.238 578.77C185.788 578.605 185.323 578.53 184.828 578.53C183.928 578.53 183.178 578.77 182.593 579.25C182.008 579.73 181.708 580.39 181.708 581.245C181.708 582.16 182.068 582.865 182.788 583.375C182.413 583.75 182.233 584.155 182.233 584.62C182.233 584.965 182.353 585.28 182.578 585.535C181.573 585.88 181.063 586.45 181.063 587.275C181.063 588.43 182.383 589.18 184.828 589.18C185.983 589.18 186.913 588.94 187.633 588.475C188.353 588.01 188.713 587.44 188.713 586.765C188.713 585.64 187.903 585.085 186.298 585.085H184.243C183.568 585.085 183.238 584.86 183.238 584.395C183.238 584.17 183.328 583.96 183.493 583.735C183.898 583.885 184.333 583.96 184.828 583.96C185.713 583.96 186.463 583.72 187.063 583.24C187.648 582.775 187.948 582.1 187.948 581.245C187.948 580.42 187.663 579.775 187.108 579.295H188.743V578.2L186.238 578.77ZM195.022 583.915C194.707 584.83 194.077 585.28 193.132 585.28C191.977 585.28 191.152 584.455 191.152 582.715V582.49H196.432V581.95C196.432 580.84 196.117 579.97 195.502 579.355C194.887 578.74 194.092 578.425 193.132 578.425C191.197 578.425 189.847 579.745 189.847 582.265C189.847 584.785 191.197 586.105 193.132 586.105C194.767 586.105 195.862 585.28 196.327 583.915H195.022ZM191.167 581.47C191.167 580.105 191.917 579.22 193.132 579.22C194.377 579.22 195.112 580.075 195.112 581.47V581.635H191.167V581.47ZM201.774 579.43V578.53H199.689V576.805L198.444 577.12V578.53H197.409V579.43H198.444V583.885C198.444 585.445 199.149 586.105 200.544 586.105C201.069 586.105 201.534 586.03 201.939 585.88V585.1C201.459 585.205 201.054 585.265 200.709 585.265C200.034 585.265 199.689 584.83 199.689 583.945V579.43H201.774ZM210.709 588.34C209.164 586.315 208.444 584.305 208.444 581.785C208.444 579.265 209.149 577.27 210.709 575.23L210.079 574.9C208.114 576.94 207.169 579.04 207.169 581.785C207.169 584.545 208.114 586.63 210.079 588.67L210.709 588.34ZM218.54 582.28C218.54 579.745 217.235 578.425 215.15 578.425C213.095 578.425 211.79 579.745 211.79 582.28C211.79 584.8 213.065 586.105 215.15 586.105C217.235 586.105 218.54 584.8 218.54 582.28ZM213.08 582.28C213.08 580.255 213.77 579.25 215.15 579.25C216.545 579.25 217.25 580.255 217.25 582.28C217.25 584.26 216.545 585.25 215.15 585.25C213.77 585.25 213.08 584.26 213.08 582.28ZM221.719 580.69C222.184 579.79 222.844 579.34 223.684 579.34C225.049 579.34 225.754 580.36 225.754 582.295C225.739 584.275 225.049 585.265 223.684 585.265C222.814 585.265 222.154 584.89 221.719 584.125V580.69ZM220.474 578.53V589.045H221.719V585.22C222.214 585.805 222.919 586.105 223.834 586.105C224.779 586.105 225.544 585.76 226.144 585.085C226.744 584.41 227.044 583.465 227.044 582.265C227.044 579.85 225.814 578.425 223.969 578.425C222.994 578.425 222.244 578.845 221.689 579.7L221.359 578.53H220.474ZM232.39 579.43V578.53H230.305V576.805L229.06 577.12V578.53H228.025V579.43H229.06V583.885C229.06 585.445 229.765 586.105 231.16 586.105C231.685 586.105 232.15 586.03 232.555 585.88V585.1C232.075 585.205 231.67 585.265 231.325 585.265C230.65 585.265 230.305 584.83 230.305 583.945V579.43H232.39ZM235.354 578.53H234.109V586H235.354V578.53ZM235.519 576.34C235.519 575.875 235.204 575.605 234.724 575.605C234.259 575.605 233.929 575.875 233.929 576.34C233.929 576.775 234.259 577.075 234.724 577.075C235.204 577.075 235.519 576.775 235.519 576.34ZM243.955 582.28C243.955 579.745 242.65 578.425 240.565 578.425C238.51 578.425 237.205 579.745 237.205 582.28C237.205 584.8 238.48 586.105 240.565 586.105C242.65 586.105 243.955 584.8 243.955 582.28ZM238.495 582.28C238.495 580.255 239.185 579.25 240.565 579.25C241.96 579.25 242.665 580.255 242.665 582.28C242.665 584.26 241.96 585.25 240.565 585.25C239.185 585.25 238.495 584.26 238.495 582.28ZM247.134 580.72C247.629 579.88 248.454 579.415 249.279 579.415C250.374 579.415 250.914 580.06 250.914 581.35V586H252.159V581.305C252.159 579.505 251.304 578.425 249.669 578.425C248.604 578.425 247.764 578.845 247.119 579.7L246.804 578.53H245.889V586H247.134V580.72ZM258.912 583.105C258.912 584.545 258.132 585.25 257.067 585.25C256.032 585.25 255.432 584.785 255.432 583.9C255.432 582.895 256.197 582.28 257.592 582.28C257.997 582.28 258.432 582.34 258.912 582.445V583.105ZM255.672 580.42C255.957 579.625 256.527 579.235 257.352 579.235C258.297 579.235 258.912 579.745 258.912 580.705V581.665C258.327 581.56 257.877 581.515 257.532 581.515C255.387 581.515 254.142 582.55 254.142 583.945C254.142 585.265 255.162 586.105 256.767 586.105C257.772 586.105 258.507 585.745 258.972 585.04L259.317 586H260.157V580.795C260.157 579.31 259.077 578.425 257.352 578.425C255.777 578.425 254.712 579.235 254.352 580.42H255.672ZM263.775 575.77H262.53V586H263.775V575.77ZM268.906 581.785C268.906 579.04 267.961 576.94 265.996 574.9L265.366 575.23C266.926 577.27 267.631 579.265 267.631 581.785C267.631 584.305 266.911 586.315 265.366 588.34L265.996 588.67C267.961 586.63 268.906 584.545 268.906 581.785Z" fill="#586068" fill-opacity="0.5"/>
<rect x="154.5" y="600.5" width="379" height="39" rx="3.5" fill="white"/>
<rect x="170" y="612" width="347" height="16" rx="8" fill="#586068" fill-opacity="0.1"/>
<rect x="154.5" y="600.5" width="379" height="39" rx="3.5" stroke="#E6E8E3"/>
<path d="M515 618L510 623L505 618" stroke="#586068" stroke-opacity="0.1" stroke-linecap="round" stroke-linejoin="round"/>
<rect x="482" y="218" width="189" height="56" rx="8" fill="#242628"/>
<path d="M508.812 246H521.188" stroke="white" stroke-linecap="round" stroke-linejoin="round"/>
<path d="M515 239.812V252.188" stroke="white" stroke-linecap="round" stroke-linejoin="round"/>
<path d="M547.298 247.724C547.298 245.546 545.876 244.718 544.274 244.232C542.114 243.602 539.594 243.566 539.594 241.748C539.594 240.668 540.494 239.948 542.078 239.948C543.536 239.948 544.472 240.542 544.904 241.748H547.226C546.434 239.534 544.724 238.418 542.078 238.418C540.638 238.418 539.504 238.742 538.676 239.372C537.83 240.02 537.416 240.848 537.416 241.856C537.416 243.998 538.856 244.79 540.476 245.24C542.654 245.852 545.192 245.96 545.192 247.94C545.192 249.074 544.166 249.776 542.438 249.776C540.602 249.758 539.576 249.02 539.342 247.58H537.056C537.434 249.974 539.414 251.288 542.366 251.288C543.914 251.288 545.12 250.946 546.002 250.28C546.866 249.614 547.298 248.768 547.298 247.724ZM555.163 248.372C554.875 249.398 554.209 249.92 553.147 249.92C551.941 249.92 551.077 249.056 551.077 247.256V246.824H557.341V246.158C557.341 244.772 556.945 243.728 556.135 242.99C555.325 242.252 554.335 241.892 553.147 241.892C551.959 241.892 550.969 242.27 550.177 243.044C549.385 243.818 548.989 244.988 548.989 246.518C548.989 248.048 549.385 249.2 550.177 249.974C550.969 250.748 551.959 251.144 553.147 251.144C555.235 251.144 556.711 250.118 557.197 248.372H555.163ZM551.077 245.42C551.077 243.98 551.851 243.044 553.147 243.044C554.443 243.044 555.217 243.926 555.217 245.42V245.654H551.077V245.42ZM561.548 244.844C562.106 243.89 562.952 243.368 563.834 243.368C564.986 243.368 565.562 244.052 565.562 245.402V251H567.578V245.294C567.578 243.152 566.498 241.892 564.554 241.892C563.312 241.892 562.304 242.396 561.53 243.422L561.098 242.036H559.514V251H561.548V244.844ZM576.014 248.48C575.546 249.416 574.862 249.884 573.944 249.884C572.504 249.884 571.784 248.768 571.766 246.518C571.748 244.304 572.63 243.134 574.016 243.134C574.772 243.134 575.438 243.458 576.014 244.106V248.48ZM576.014 242.828C575.366 242.198 574.574 241.892 573.656 241.892C572.522 241.892 571.586 242.306 570.83 243.116C570.056 243.944 569.678 245.078 569.678 246.5C569.678 247.958 570.056 249.092 570.794 249.902C571.532 250.73 572.468 251.144 573.602 251.144C574.646 251.144 575.546 250.694 576.284 249.794L576.68 251H578.048V238.706H576.014V242.828ZM584.492 242.036V251H586.526V245.33C587.174 244.268 588.146 243.746 589.46 243.746V241.892C588.074 241.892 587.21 242.54 586.49 243.854L586.076 242.036H584.492ZM596.648 248.372C596.36 249.398 595.694 249.92 594.632 249.92C593.426 249.92 592.562 249.056 592.562 247.256V246.824H598.826V246.158C598.826 244.772 598.43 243.728 597.62 242.99C596.81 242.252 595.82 241.892 594.632 241.892C593.444 241.892 592.454 242.27 591.662 243.044C590.87 243.818 590.474 244.988 590.474 246.518C590.474 248.048 590.87 249.2 591.662 249.974C592.454 250.748 593.444 251.144 594.632 251.144C596.72 251.144 598.196 250.118 598.682 248.372H596.648ZM592.562 245.42C592.562 243.98 593.336 243.044 594.632 243.044C595.928 243.044 596.702 243.926 596.702 245.42V245.654H592.562V245.42ZM606.776 248.606C606.326 249.452 605.624 249.884 604.706 249.884C603.266 249.884 602.546 248.768 602.528 246.518C602.51 244.304 603.392 243.134 604.778 243.134C605.534 243.134 606.2 243.458 606.776 244.106V248.606ZM607.154 243.224C606.434 242.342 605.516 241.892 604.418 241.892C603.284 241.892 602.348 242.306 601.592 243.116C600.818 243.944 600.44 245.078 600.44 246.518C600.44 247.958 600.818 249.092 601.556 249.902C602.294 250.73 603.23 251.144 604.364 251.144C605.372 251.144 606.182 250.802 606.812 250.136V254.654H608.81V242.036H607.46L607.154 243.224ZM617.988 251H619.572V242.036H617.556V248.192C616.98 249.182 616.206 249.668 615.252 249.668C614.118 249.668 613.542 249.056 613.542 247.85V242.036H611.526V247.976C611.526 250.064 612.642 251.144 614.532 251.144C615.792 251.144 616.8 250.64 617.556 249.614L617.988 251ZM627.937 248.372C627.649 249.398 626.983 249.92 625.921 249.92C624.715 249.92 623.851 249.056 623.851 247.256V246.824H630.115V246.158C630.115 244.772 629.719 243.728 628.909 242.99C628.099 242.252 627.109 241.892 625.921 241.892C624.733 241.892 623.743 242.27 622.951 243.044C622.159 243.818 621.763 244.988 621.763 246.518C621.763 248.048 622.159 249.2 622.951 249.974C623.743 250.748 624.733 251.144 625.921 251.144C628.009 251.144 629.485 250.118 629.971 248.372H627.937ZM623.851 245.42C623.851 243.98 624.625 243.044 625.921 243.044C627.217 243.044 627.991 243.926 627.991 245.42V245.654H623.851V245.42ZM639.433 248.48C639.433 246.986 638.443 246.266 636.643 245.852L635.437 245.564C634.411 245.348 633.907 244.988 633.907 244.322C633.907 243.584 634.537 243.098 635.473 243.098C636.373 243.098 636.985 243.53 637.291 244.376H639.343C638.839 242.882 637.561 241.91 635.545 241.892C633.331 241.892 631.945 242.936 631.945 244.52C631.945 245.798 632.827 246.662 634.573 247.076L636.031 247.4C637.021 247.634 637.471 247.976 637.471 248.696C637.471 249.488 636.805 249.938 635.707 249.938C634.483 249.938 633.799 249.452 633.637 248.462L631.693 248.444C631.927 250.226 633.385 251.144 635.635 251.144C637.993 251.144 639.415 250.136 639.433 248.48ZM646.175 243.26V242.036H643.781V239.822L641.765 240.344V242.036H640.523V243.26H641.765V248.3C641.765 250.298 642.665 251.144 644.555 251.144C645.185 251.144 645.779 251.054 646.355 250.856V249.704C645.761 249.83 645.293 249.902 644.969 249.902C644.177 249.902 643.781 249.416 643.781 248.426V243.26H646.175Z" fill="white"/>
<rect y="369" width="147" height="56" rx="8" fill="#BFFF0B"/>
<path d="M26.8125 392.5V401.5C26.8125 401.798 26.931 402.085 27.142 402.295C27.353 402.506 27.6391 402.625 27.9375 402.625H39.1875C39.3367 402.625 39.4798 402.566 39.5852 402.46C39.6907 402.355 39.75 402.212 39.75 402.062V394.188C39.75 394.038 39.6907 393.895 39.5852 393.79C39.4798 393.684 39.3367 393.625 39.1875 393.625H27.9375C27.6391 393.625 27.353 393.506 27.142 393.295C26.931 393.085 26.8125 392.798 26.8125 392.5ZM26.8125 392.5C26.8125 392.202 26.931 391.915 27.142 391.705C27.353 391.494 27.6391 391.375 27.9375 391.375H37.5" stroke="black" stroke-linecap="round" stroke-linejoin="round"/>
<path d="M36.8594 398.125C36.8594 398.237 36.7684 398.328 36.6562 398.328C36.5441 398.328 36.4531 398.237 36.4531 398.125C36.4531 398.013 36.5441 397.922 36.6562 397.922C36.7684 397.922 36.8594 398.013 36.8594 398.125Z" fill="black" stroke="black"/>
<path d="M59.994 391.272L62.046 397.464H58.086L59.994 391.272ZM65.718 402L61.308 389.706H58.698L54.486 402H56.682L57.6 399.03H62.55L63.54 402H65.718ZM69.4811 395.682C69.9671 394.764 70.6331 394.314 71.5151 394.314C73.0091 394.314 73.7471 395.412 73.7291 397.59C73.7111 399.786 72.9731 400.884 71.5151 400.884C70.5971 400.884 69.9311 400.488 69.4811 399.714V395.682ZM67.4471 393.036V405.654H69.4811V401.226C70.0571 401.838 70.8671 402.144 71.8931 402.144C73.0271 402.144 73.9631 401.73 74.7011 400.902C75.4391 400.092 75.8171 398.958 75.8171 397.518C75.8171 394.584 74.3411 392.892 72.1091 392.892C70.9031 392.892 69.9851 393.414 69.3911 394.44L68.9411 393.036H67.4471ZM80.028 395.682C80.514 394.764 81.18 394.314 82.062 394.314C83.556 394.314 84.294 395.412 84.276 397.59C84.258 399.786 83.52 400.884 82.062 400.884C81.144 400.884 80.478 400.488 80.028 399.714V395.682ZM77.994 393.036V405.654H80.028V401.226C80.604 401.838 81.414 402.144 82.44 402.144C83.574 402.144 84.51 401.73 85.248 400.902C85.986 400.092 86.364 398.958 86.364 397.518C86.364 394.584 84.888 392.892 82.656 392.892C81.45 392.892 80.532 393.414 79.938 394.44L79.488 393.036H77.994ZM88.5409 393.036V402H90.5749V396.33C91.2229 395.268 92.1949 394.746 93.5089 394.746V392.892C92.1229 392.892 91.2589 393.54 90.5389 394.854L90.1249 393.036H88.5409ZM101.938 394.062C101.182 393.288 100.138 392.892 98.7883 392.892C97.4383 392.892 96.3943 393.288 95.6563 394.062C94.9003 394.836 94.5223 395.988 94.5223 397.518C94.5223 399.048 94.9003 400.2 95.6563 400.974C96.3943 401.748 97.4383 402.144 98.7883 402.144C100.138 402.144 101.182 401.748 101.938 400.974C102.694 400.2 103.072 399.048 103.072 397.518C103.072 395.988 102.694 394.836 101.938 394.062ZM96.5923 397.518C96.5923 395.124 97.3303 394.116 98.7883 394.116C100.246 394.116 100.984 395.25 100.984 397.518C100.984 399.894 100.228 400.902 98.7883 400.902C97.3483 400.902 96.5923 399.894 96.5923 397.518ZM108.39 400.218L106.05 393.036H103.908L107.346 402H109.416L112.854 393.036H110.892L108.39 400.218ZM119.892 399.372C119.604 400.398 118.938 400.92 117.876 400.92C116.67 400.92 115.806 400.056 115.806 398.256V397.824H122.07V397.158C122.07 395.772 121.674 394.728 120.864 393.99C120.054 393.252 119.064 392.892 117.876 392.892C116.688 392.892 115.698 393.27 114.906 394.044C114.114 394.818 113.718 395.988 113.718 397.518C113.718 399.048 114.114 400.2 114.906 400.974C115.698 401.748 116.688 402.144 117.876 402.144C119.964 402.144 121.44 401.118 121.926 399.372H119.892ZM115.806 396.42C115.806 394.98 116.58 394.044 117.876 394.044C119.172 394.044 119.946 394.926 119.946 396.42V396.654H115.806V396.42Z" fill="black"/>
<rect x="543" y="512" width="111" height="56" rx="8" fill="#DC2626"/>
<path d="M572.841 545C576.639 545 578.853 542.696 578.853 538.862C578.853 536.954 578.331 535.442 577.269 534.344C576.207 533.246 574.731 532.706 572.841 532.706H568.845V545H572.841ZM572.841 534.272C575.469 534.272 576.783 535.802 576.783 538.862C576.783 541.904 575.469 543.434 572.841 543.434H570.879V534.272H572.841ZM586.816 542.372C586.528 543.398 585.862 543.92 584.8 543.92C583.594 543.92 582.73 543.056 582.73 541.256V540.824H588.994V540.158C588.994 538.772 588.598 537.728 587.788 536.99C586.978 536.252 585.988 535.892 584.8 535.892C583.612 535.892 582.622 536.27 581.83 537.044C581.038 537.818 580.642 538.988 580.642 540.518C580.642 542.048 581.038 543.2 581.83 543.974C582.622 544.748 583.612 545.144 584.8 545.144C586.888 545.144 588.364 544.118 588.85 542.372H586.816ZM582.73 539.42C582.73 537.98 583.504 537.044 584.8 537.044C586.096 537.044 586.87 537.926 586.87 539.42V539.654H582.73V539.42ZM596.783 542.246C596.513 543.344 595.883 543.902 594.875 543.902C593.435 543.902 592.697 542.912 592.697 540.518C592.697 538.124 593.435 537.116 594.875 537.116C595.919 537.116 596.549 537.674 596.783 538.79H598.799C598.421 536.99 596.909 535.892 594.875 535.892C592.193 535.892 590.609 537.476 590.609 540.518C590.609 543.56 592.211 545.144 594.875 545.144C596.891 545.144 598.367 544.1 598.799 542.246H596.783ZM602.993 532.706H600.959V545H602.993V532.706ZM607.665 536.036H605.631V545H607.665V536.036ZM607.521 532.688C607.089 532.328 606.225 532.328 605.793 532.688C605.343 533.066 605.343 533.858 605.793 534.218C606.225 534.578 607.089 534.578 607.521 534.218C607.953 533.858 607.953 533.066 607.521 532.688ZM612.308 538.844C612.866 537.89 613.712 537.368 614.594 537.368C615.746 537.368 616.322 538.052 616.322 539.402V545H618.338V539.294C618.338 537.152 617.258 535.892 615.314 535.892C614.072 535.892 613.064 536.396 612.29 537.422L611.858 536.036H610.274V545H612.308V538.844ZM626.631 542.372C626.343 543.398 625.677 543.92 624.615 543.92C623.409 543.92 622.545 543.056 622.545 541.256V540.824H628.809V540.158C628.809 538.772 628.413 537.728 627.603 536.99C626.793 536.252 625.803 535.892 624.615 535.892C623.427 535.892 622.437 536.27 621.645 537.044C620.853 537.818 620.457 538.988 620.457 540.518C620.457 542.048 620.853 543.2 621.645 543.974C622.437 544.748 623.427 545.144 624.615 545.144C626.703 545.144 628.179 544.118 628.665 542.372H626.631ZM622.545 539.42C622.545 537.98 623.319 537.044 624.615 537.044C625.911 537.044 626.685 537.926 626.685 539.42V539.654H622.545V539.42Z" fill="#F2F4F1"/>
</svg>
