<svg width="15" height="12" viewBox="0 0 15 12" fill="none" xmlns="http://www.w3.org/2000/svg">
<path d="M14.4 1.422C13.862 1.66826 13.2893 1.83016 12.702 1.902C13.325 1.518 13.7876 0.921098 14.004 0.222001C13.434 0.570001 12.804 0.822001 12.126 0.954001C11.8524 0.653162 11.5189 0.412878 11.1469 0.248583C10.7749 0.0842875 10.3726 -0.000385752 9.96599 1.32112e-06C9.51361 0.00462595 9.06816 0.11171 8.6631 0.313208C8.25804 0.514707 7.90391 0.805379 7.62732 1.16339C7.35073 1.5214 7.15887 1.93743 7.06615 2.38024C6.97343 2.82304 6.98227 3.2811 7.09199 3.72C5.90997 3.65547 4.75531 3.3395 3.70513 2.7932C2.65494 2.24689 1.73338 1.48282 1.002 0.552001C0.620453 1.21949 0.503069 2.00578 0.673028 2.75561C0.842988 3.50543 1.28793 4.16426 1.92 4.602C1.44939 4.58485 0.990082 4.45303 0.582 4.218V4.26C0.582 5.724 1.602 6.948 2.952 7.23C2.51772 7.34905 2.06171 7.36548 1.62 7.278C1.998 8.48399 3.09 9.35999 4.38 9.38399C3.7719 9.8773 3.07069 10.2431 2.31818 10.4596C1.56567 10.676 0.777271 10.7388 0 10.644C1.34429 11.5306 2.91967 12.0021 4.53 12C9.96599 12 12.93 7.38 12.93 3.378V2.988C13.506 2.562 14.004 2.028 14.4 1.422V1.422Z" fill="#BFC6B9"/>
</svg>
