<svg width="35" height="35" viewBox="0 0 35 35" fill="none" xmlns="http://www.w3.org/2000/svg">
<path d="M3 20.5C3 20.5 8.45455 10 18 10C27.5455 10 33 20.5 33 20.5C33 20.5 27.5455 31 18 31C8.45455 31 3 20.5 3 20.5Z" stroke="#D28B28" stroke-width="1.5" stroke-linecap="round" stroke-linejoin="round"/>
<path d="M18.0011 24.5455C20.2604 24.5455 22.092 22.7139 22.092 20.4546C22.092 18.1952 20.2604 16.3636 18.0011 16.3636C15.7417 16.3636 13.9102 18.1952 13.9102 20.4546C13.9102 22.7139 15.7417 24.5455 18.0011 24.5455Z" stroke="#D28B28" stroke-width="1.5" stroke-linecap="round" stroke-linejoin="round"/>
<line x1="17.75" y1="2.75" x2="17.75" y2="5.25" stroke="#D28B28" stroke-width="1.5" stroke-linecap="round"/>
<line x1="24.295" y1="4.33038" x2="22.9817" y2="6.45767" stroke="#D28B28" stroke-width="1.5" stroke-linecap="round"/>
<line x1="29.4571" y1="7.31699" x2="27.7291" y2="9.12357" stroke="#D28B28" stroke-width="1.5" stroke-linecap="round"/>
<line x1="31.5848" y1="11.976" x2="30.9763" y2="12.2213" stroke="#D28B28" stroke-width="1.5" stroke-linecap="round"/>
<line x1="0.75" y1="-0.75" x2="3.25" y2="-0.75" transform="matrix(0.525302 0.850916 0.850916 -0.525302 10.9492 3.29822)" stroke="#D28B28" stroke-width="1.5" stroke-linecap="round"/>
<line x1="0.75" y1="-0.75" x2="3.25" y2="-0.75" transform="matrix(0.691235 0.72263 0.72263 -0.691235 5.56641 6.25659)" stroke="#D28B28" stroke-width="1.5" stroke-linecap="round"/>
<line x1="0.75" y1="-0.75" x2="1.40606" y2="-0.75" transform="matrix(0.927491 0.373847 0.373847 -0.927491 3 11)" stroke="#D28B28" stroke-width="1.5" stroke-linecap="round"/>
</svg>
