<svg width="1440" height="800" viewBox="0 0 1440 800" fill="none" xmlns="http://www.w3.org/2000/svg">
<g clip-path="url(#clip0_5749_27889)">
<rect width="1440" height="800" fill="#FBF5EC"/>
<g opacity="0.35">
<path fill-rule="evenodd" clip-rule="evenodd" d="M1143.66 242.026L1186.64 202.821L1185.62 201.893L1142.65 241.099C1130.78 251.925 1124.7 262.782 1124.43 273.519C1124.15 284.213 1128.35 293.525 1136.69 301.126C1147.85 311.312 1163.74 315.661 1178.02 309.772C1170.05 323.026 1172.18 338.6 1184.52 349.857C1193.01 357.603 1203.21 361.439 1214.94 361.188C1227.02 360.941 1238.92 355.397 1250.79 344.569L1296.4 302.957L1295.38 302.03L1249.77 343.642C1238.06 354.328 1226.49 359.641 1214.9 359.878C1203.58 360.121 1193.75 356.433 1185.53 348.932C1173.08 337.569 1171.43 321.695 1180.47 308.558L1181.92 306.449L1179.52 307.633C1165.39 314.598 1149.1 310.606 1137.7 300.201C1129.64 292.847 1125.6 283.879 1125.86 273.553C1126.13 263.27 1131.95 252.714 1143.66 242.026ZM1172.75 233.328L1155.1 290.911L1215.81 275.42L1198.83 330.803L1261.94 314.696L1239.71 294.411L1238.69 295.336L1259.19 314.037L1200.9 328.913L1217.2 275.73L1234.63 291.627L1235.64 290.702L1199.05 257.323L1198.04 258.248L1215.47 274.146L1157.17 289.021L1173.48 235.838L1193.98 254.539L1194.99 253.614L1172.75 233.328Z" fill="url(#paint0_linear_5749_27889)"/>
<path fill-rule="evenodd" clip-rule="evenodd" d="M886.266 2.13135L1133.36 -223.302L1132.35 -224.229L885.25 1.20416C817.379 63.1247 783.01 124.814 781.396 185.425C779.783 245.994 803.506 298.662 850.692 341.711C890.004 377.575 939.49 400.547 990.642 404.87C997.832 405.477 1006 408.677 1014.22 413.61C1022.43 418.536 1030.63 425.161 1037.88 432.553C1045.13 439.945 1051.41 448.088 1055.79 456.043C1060.16 464.008 1062.6 471.731 1062.23 478.301C1059.4 529.495 1080.36 580.537 1125.24 621.485C1173.35 665.374 1231.08 687.019 1297.47 685.547C1365.72 684.102 1433.34 652.748 1501.21 590.826L1763.47 351.557L1762.46 350.63L1500.19 589.898C1432.48 651.679 1365.19 682.803 1297.43 684.237L1297.43 684.237C1231.45 685.7 1174.1 664.204 1126.26 620.56C1081.65 579.864 1060.86 529.178 1063.67 478.369C1064.05 471.482 1061.5 463.524 1057.07 455.458C1052.63 447.381 1046.27 439.143 1038.95 431.68C1031.63 424.218 1023.34 417.514 1015.01 412.516C1006.69 407.524 998.291 404.201 990.771 403.565C940 399.274 890.815 376.465 851.707 340.785C804.791 297.984 781.228 245.66 782.831 185.46C784.433 125.303 818.546 63.9142 886.266 2.13135Z" fill="url(#paint1_linear_5749_27889)"/>
<path fill-rule="evenodd" clip-rule="evenodd" d="M1146.41 196.557C1139.97 203.793 1129.39 215.469 1109.79 236.03L1109.76 236.064L1109.73 236.103C1098.79 251.482 1095.45 266.179 1099.55 279.862L1099.55 279.885L1099.56 279.907C1103.3 289.636 1109.79 297.488 1117.97 302.71C1126.34 308.057 1134.29 314.702 1140.52 322.07C1140.96 322.582 1141.4 323.085 1141.86 323.577C1153.99 336.612 1170.46 355.258 1181.5 369.063C1184.92 373.335 1189.37 377.195 1194.85 380.442L1194.88 380.457L1194.9 380.469C1208.11 386.989 1222.65 387.862 1238.39 382.955C1240.29 382.362 1242.07 381.517 1243.74 380.54L1282.76 357.688C1284.53 356.652 1286.17 355.445 1287.65 354.089L1338.86 307.375L1337.84 306.447L1286.64 353.162C1285.22 354.452 1283.66 355.6 1281.98 356.585L1242.96 379.437C1241.37 380.371 1239.69 381.164 1237.92 381.716C1222.53 386.514 1208.42 385.647 1195.61 379.33C1190.27 376.168 1185.96 372.422 1182.66 368.293C1171.59 354.453 1155.1 335.78 1142.96 322.731C1142.51 322.254 1142.08 321.767 1141.66 321.271C1135.32 313.783 1127.27 307.05 1118.79 301.637C1110.88 296.588 1104.58 288.977 1100.93 279.497C1096.98 266.285 1100.15 251.991 1110.91 236.856C1130.5 216.307 1141.08 204.629 1147.53 197.384C1148.91 195.827 1150.11 194.478 1151.16 193.29C1155.01 188.933 1156.94 186.76 1159.33 184.575L1158.31 183.648C1155.86 185.886 1153.88 188.127 1150.01 192.5C1148.97 193.683 1147.78 195.021 1146.41 196.557Z" fill="url(#paint2_linear_5749_27889)"/>
<path fill-rule="evenodd" clip-rule="evenodd" d="M1139.02 163.472C1133.88 164.651 1129.08 167.03 1125.59 170.735C1120.89 175.725 1116.31 181.547 1109.36 190.438C1109.09 190.78 1108.82 191.127 1108.55 191.479C1101.68 200.266 1092.51 211.997 1078.8 228.693C1077.55 230.222 1076.43 231.899 1075.6 233.679C1066.81 252.615 1066.61 270.238 1074.68 286.122L1074.69 286.142L1074.71 286.163C1080.95 296.495 1089.64 304.687 1099.68 309.967C1114.08 317.542 1128.55 330.218 1137.08 343.219C1140.67 348.681 1145.38 353.507 1151.07 357.4C1160.88 364.107 1169.19 373.422 1174.18 383.62C1179.79 395.083 1190.14 404.818 1205.17 410.991L1205.2 411.004L1205.23 411.014C1224.67 417.064 1245.35 414.407 1267.24 402.887L1267.27 402.87L1318.29 368.848C1319.51 368.035 1320.66 367.138 1321.72 366.164L1381.32 311.794L1380.3 310.866L1320.71 365.237C1319.69 366.163 1318.6 367.017 1317.44 367.79L1266.48 401.77C1244.89 413.125 1224.67 415.67 1205.72 409.784C1191.02 403.735 1180.95 394.233 1175.49 383.088C1170.39 372.677 1161.92 363.188 1151.93 356.353C1146.39 352.564 1141.8 347.867 1138.31 342.548C1129.65 329.344 1115 316.513 1100.4 308.833C1090.61 303.685 1082.1 295.683 1075.98 285.552C1068.11 270.063 1068.27 252.837 1076.93 234.192C1077.7 232.528 1078.75 230.942 1079.95 229.48C1093.67 212.771 1102.85 201.03 1109.72 192.242C1109.99 191.89 1110.26 191.542 1110.53 191.2C1117.49 182.296 1122.03 176.526 1126.68 171.59C1129.94 168.127 1134.46 165.868 1139.37 164.743L1203.5 150.042L1203.15 148.772L1139.02 163.472Z" fill="url(#paint3_linear_5749_27889)"/>
<path fill-rule="evenodd" clip-rule="evenodd" d="M1108.35 145.097C1105.34 146.406 1102.56 148.164 1100.26 150.401C1088.13 162.2 1079.42 174.841 1063.72 197.644C1058.66 204.995 1052.87 213.401 1046 223.176C1044.71 225.015 1043.63 227.017 1042.92 229.127C1035.14 252.374 1037.6 273.627 1049.82 292.335L1049.83 292.351L1049.84 292.367C1058.69 304.306 1070.24 313.576 1083.15 319.239C1101.63 327.353 1121.75 345.775 1130.27 362.792C1135.18 372.608 1142.89 381.281 1153.11 387.911C1159.93 392.345 1165.49 398.358 1169.03 405.281C1177.48 421.798 1193 434.908 1215.47 441.515L1215.5 441.523L1215.53 441.53C1240.4 446.734 1266.29 440.871 1293.27 423.749L1293.29 423.737L1354.82 379.127L1423.78 316.21L1422.77 315.282L1353.86 378.147L1292.43 422.685C1265.7 439.643 1240.23 445.347 1215.87 440.259C1193.79 433.759 1178.6 420.899 1170.33 404.729C1166.68 397.596 1160.96 391.407 1153.94 386.844C1143.93 380.349 1136.38 371.857 1131.57 362.25C1122.91 344.945 1102.55 326.302 1083.77 318.059C1071.12 312.507 1059.76 303.406 1051.04 291.65C1039.06 273.296 1036.62 252.436 1044.29 229.512C1044.96 227.536 1045.98 225.642 1047.21 223.884C1054.12 214.053 1059.93 205.617 1065 198.253C1080.67 175.5 1089.28 162.998 1101.31 151.298C1103.47 149.195 1106.09 147.529 1108.97 146.279L1195.81 108.533L1195.19 107.35L1108.35 145.097Z" fill="url(#paint4_linear_5749_27889)"/>
<path fill-rule="evenodd" clip-rule="evenodd" d="M1079.31 127.238C1077.41 128.316 1075.64 129.587 1074.08 131.06C1052.52 151.357 1040.14 172.205 1016.87 211.358C1015.6 213.508 1014.29 215.713 1012.94 217.976C1011.79 219.913 1010.87 221.996 1010.33 224.164C1003.41 251.873 1008.5 276.89 1024.94 298.531L1024.96 298.555C1036.73 312.656 1051.71 323.341 1068.14 329.396C1078.79 333.322 1090.4 341.181 1100.29 350.575C1110.19 359.97 1118.32 370.84 1122.06 380.737C1127.49 395.06 1137.62 407.953 1152.09 417.791C1156.82 421.008 1160.77 425.119 1163.6 429.84C1176.02 450.604 1196.81 465.878 1225.74 472.031L1225.77 472.037L1225.79 472.04C1256.09 476.405 1287.19 467.347 1319.28 444.625L1319.3 444.609L1389.51 390.633L1466.24 320.63L1465.23 319.703L1388.54 389.667L1318.4 443.589C1318.39 443.592 1318.39 443.595 1318.39 443.598C1286.52 466.16 1255.82 475.033 1226.04 470.75C1197.52 464.678 1177.08 449.642 1164.86 429.214C1161.93 424.323 1157.84 420.069 1152.95 416.741C1138.71 407.059 1128.75 394.383 1123.42 380.312C1119.59 370.176 1111.32 359.148 1101.33 349.669C1091.34 340.189 1079.57 332.198 1068.68 328.182C1052.52 322.225 1037.74 311.699 1026.11 297.774C1009.92 276.458 1004.89 251.826 1011.73 224.457C1012.24 222.424 1013.1 220.452 1014.2 218.603C1015.53 216.37 1016.82 214.195 1018.08 212.073C1041.4 172.828 1053.69 152.137 1075.11 131.973C1076.59 130.583 1078.26 129.378 1080.07 128.35L1188.05 67.0359L1187.29 65.9234L1079.31 127.238Z" fill="url(#paint5_linear_5749_27889)"/>
<path fill-rule="evenodd" clip-rule="evenodd" d="M1051.01 109.389C1049.76 110.218 1048.57 111.14 1047.48 112.151C1018.2 139.328 1002.75 166.718 979.766 213.011C978.835 214.887 978.124 216.875 977.735 218.919C971.604 251.201 979.324 280.073 1000.05 304.713L1000.07 304.731C1015.08 321.357 1033.98 333.638 1054.44 339.983C1066.12 343.606 1079.31 352.446 1090.37 363.167C1101.44 373.889 1110.27 386.401 1113.34 397.296C1118.71 416.362 1130.93 433.868 1149.59 447.35C1152.9 449.736 1155.75 452.608 1158 455.852C1175.05 480.429 1201.16 497.219 1236.01 502.54L1236.03 502.543L1236.05 502.545C1271.77 506.074 1308.08 493.827 1345.28 465.504L1345.29 465.493L1424.2 402.14L1508.7 325.049L1507.69 324.121L1423.22 401.183L1344.36 464.498C1344.36 464.5 1344.35 464.502 1344.35 464.504C1307.36 492.67 1271.43 504.717 1236.22 501.245C1201.79 495.983 1176.04 479.414 1159.21 455.153C1156.88 451.781 1153.91 448.799 1150.48 446.324C1132.06 433.016 1120.02 415.754 1114.73 396.972C1111.58 385.78 1102.57 373.077 1091.42 362.27C1080.27 351.463 1066.88 342.461 1054.9 338.743C1034.72 332.485 1016.04 320.36 1001.19 303.908C980.714 279.571 973.085 251.076 979.15 219.145C979.515 217.225 980.186 215.342 981.074 213.554C1004.05 167.272 1019.42 140.069 1048.51 113.07C1049.54 112.115 1050.66 111.24 1051.86 110.45L1180.26 25.5472L1179.41 24.4861L1051.01 109.389Z" fill="url(#paint6_linear_5749_27889)"/>
<path fill-rule="evenodd" clip-rule="evenodd" d="M1022.06 93.0677L1022.03 93.0931C985.56 126.366 966.85 159.479 946.809 208.888C946.121 210.584 945.614 212.36 945.352 214.164C939.981 251.09 950.339 283.875 975.415 311.553L975.427 311.566C993.961 330.984 1017.19 344.965 1042.08 351.444C1054.54 354.686 1069.03 364.307 1081.02 376.107C1093.01 387.909 1102.38 401.765 1104.73 413.377C1109.59 437.409 1123.66 459.874 1146.54 477.352C1148.84 479.108 1150.9 481.122 1152.64 483.346C1174.64 511.462 1206.07 529.399 1246.51 533.71L1246.55 533.714C1287.69 536.41 1329.22 520.976 1371.52 487.053L1371.53 487.046L1459.16 414.303L1551.41 330.133L1550.4 329.206L1458.15 413.364L1370.57 486.069C1370.57 486.07 1370.57 486.071 1370.57 486.073C1328.45 519.842 1287.29 535.066 1246.66 532.407C1206.64 528.137 1175.57 510.404 1153.81 482.587C1151.99 480.27 1149.85 478.174 1147.46 476.349C1124.83 459.061 1110.94 436.865 1106.14 413.141C1103.72 401.177 1094.15 387.1 1082.07 375.218C1070 363.334 1055.29 353.52 1042.48 350.185C1017.88 343.783 994.885 329.957 976.515 310.713C951.703 283.323 941.456 250.908 946.775 214.339C947.022 212.641 947.501 210.959 948.156 209.344C968.155 160.036 986.772 127.124 1023.02 94.0458L1172.7 -15.2692L1171.81 -16.2925L1022.06 93.0677Z" fill="url(#paint7_linear_5749_27889)"/>
<path fill-rule="evenodd" clip-rule="evenodd" d="M994.495 74.162L994.476 74.1796C951.808 113.106 929.976 151.849 913.383 203.554C912.924 204.987 912.595 206.469 912.429 207.96C907.804 249.579 920.814 286.314 950.275 317.054L950.284 317.063C972.59 339.481 1000.51 355.221 1030.18 361.654C1043.23 364.484 1058.78 374.726 1071.52 387.403C1084.26 400.083 1094.03 415.041 1095.67 427.177C1099.64 456.366 1115.37 484.087 1142.51 505.845C1144.08 507.103 1145.54 508.496 1146.83 509.994C1173.94 541.462 1210.69 560.329 1256.51 563.543L1256.54 563.545C1303.1 565.411 1349.85 546.792 1397.26 507.269L1397.27 507.264L1493.58 425.16L1493.59 425.144L1593.63 333.882L1592.61 332.955L1492.58 424.217L1396.3 506.301C1396.29 506.303 1396.29 506.304 1396.29 506.306C1349.05 545.677 1302.67 564.079 1256.61 562.237C1211.2 559.049 1174.83 540.371 1147.95 509.185C1146.61 507.623 1145.09 506.172 1143.46 504.862C1116.57 483.309 1101.02 455.878 1097.1 427.019C1095.4 414.482 1085.4 399.275 1072.58 386.519C1059.76 373.762 1043.97 363.298 1030.51 360.379C1001.15 354.015 973.483 338.431 951.35 316.187C922.156 285.724 909.273 249.351 913.858 208.094C914.014 206.689 914.325 205.286 914.761 203.925C931.299 152.391 953.022 113.859 995.473 75.1243L1164.64 -57.4163L1163.71 -58.4108L994.495 74.162Z" fill="url(#paint8_linear_5749_27889)"/>
<path fill-rule="evenodd" clip-rule="evenodd" d="M967.166 55.9365C917.76 101.011 892.792 145.879 879.874 200.608L879.865 200.648L879.861 200.69C875.458 247.722 891.099 289.002 925.379 323.221L925.385 323.228C951.68 348.816 984.606 366.349 1019.33 372.543C1032.85 374.955 1049.28 385.687 1062.62 399.078C1075.97 412.472 1086.03 428.337 1087.01 440.859C1089.72 475.369 1106.95 508.606 1138.43 534.883C1139.46 535.737 1140.43 536.658 1141.33 537.622C1173.65 572.311 1215.68 591.975 1266.75 594.046L1266.77 594.046C1318.76 595.084 1370.72 573.28 1423.25 528.158L1423.25 528.154L1528.27 436.668L1528.28 436.657L1636.09 338.302L1635.07 337.374L1527.26 435.73L1422.26 527.203C1369.9 572.179 1318.29 593.762 1266.81 592.737C1216.15 590.682 1174.49 571.194 1142.42 536.774C1141.49 535.768 1140.47 534.808 1139.4 533.917C1108.18 507.859 1091.12 474.931 1088.44 440.768C1087.42 427.803 1077.1 411.663 1063.68 398.199C1050.27 384.731 1033.57 373.75 1019.6 371.257C985.212 365.123 952.548 347.747 926.435 322.336C892.437 288.397 876.932 247.494 881.287 200.845C894.15 146.38 918.984 101.752 968.17 56.8752L1156.83 -98.8897L1155.86 -99.8617L967.166 55.9365Z" fill="url(#paint9_linear_5749_27889)"/>
<path fill-rule="evenodd" clip-rule="evenodd" d="M939.861 37.6917C884.299 88.3829 856.2 138.857 847.046 195.548L847.041 195.576L847.039 195.603C843.567 247.148 861.903 292.224 900.485 329.385L900.489 329.389C930.963 358.289 969.173 377.631 1009.18 383.392C1016.11 384.389 1023.87 387.657 1031.65 392.447C1039.42 397.232 1047.17 403.51 1054.07 410.48C1060.96 417.451 1067 425.099 1071.35 432.615C1075.71 440.14 1078.36 447.491 1078.54 453.877C1079.69 494.178 1098.59 533.48 1135.07 564.605C1172.77 602.965 1220.34 623.638 1277 624.546L1277.01 624.546C1334.41 624.755 1391.59 599.768 1449.24 549.046L1562.96 448.175L1562.97 448.168L1678.55 342.72L1677.53 341.793L1561.96 447.234L1561.95 447.241L1448.24 548.102C1390.76 598.68 1333.92 623.443 1277.01 623.236C1220.76 622.333 1173.57 601.821 1136.12 563.71L1136.1 563.688L1136.08 563.668C1099.85 532.771 1081.12 493.79 1079.97 453.845C1079.78 447.18 1077.03 439.625 1072.62 432.005C1068.2 424.377 1062.09 416.641 1055.13 409.604C1048.16 402.566 1040.33 396.214 1032.45 391.362C1024.57 386.514 1016.61 383.137 1009.4 382.098C969.743 376.388 931.809 357.203 901.525 328.484C863.222 291.59 845.032 246.879 848.47 195.714C857.579 139.352 885.508 89.1364 940.87 38.626C940.873 38.6237 940.875 38.6214 940.878 38.6191L1149.01 -140.362L1148.02 -141.316L939.861 37.6917Z" fill="url(#paint10_linear_5749_27889)"/>
<path fill-rule="evenodd" clip-rule="evenodd" d="M912.554 19.4506C850.837 75.757 819.605 131.838 814.218 190.49L814.215 190.518C811.673 246.574 832.704 295.446 875.588 335.551C910.408 367.882 954.149 389.042 999.644 394.177C1006.72 394.975 1014.7 398.215 1022.72 403.09C1030.73 407.96 1038.73 414.431 1045.82 421.634C1052.92 428.838 1059.09 436.758 1063.46 444.516C1067.84 452.284 1070.38 459.841 1070.28 466.332C1069.56 512.018 1089.53 557.09 1130.16 593.047C1173.06 634.172 1225.71 655.331 1287.23 655.049L1287.24 655.049C1350.07 654.431 1412.46 626.26 1475.22 569.937L1597.65 459.685L1721.01 347.141L1719.99 346.214L1596.64 458.755L1474.22 569.003C1411.62 625.183 1349.55 653.126 1287.22 653.739C1226.1 654.019 1173.83 633.014 1131.19 592.136L1131.17 592.117C1090.81 556.4 1071 511.667 1071.71 466.354C1071.82 459.563 1069.17 451.785 1064.74 443.92C1060.3 436.044 1054.05 428.033 1046.89 420.76C1039.73 413.488 1031.64 406.94 1023.52 402.001C1015.4 397.067 1007.2 393.71 999.817 392.877C954.688 387.783 911.238 366.785 876.615 334.638C834.005 294.789 813.129 246.271 815.65 190.589C821.005 132.328 852.028 76.5248 913.571 20.3778L1141.19 -181.83L1140.18 -182.769L912.554 19.4506Z" fill="url(#paint11_linear_5749_27889)"/>
<path fill-rule="evenodd" clip-rule="evenodd" d="M1194.31 254.235L1218.65 232.028L1217.63 231.101L1193.29 253.308L1194.31 254.235Z" fill="url(#paint12_linear_5749_27889)"/>
<path fill-rule="evenodd" clip-rule="evenodd" d="M1239.53 295.495L1263.88 273.288L1262.86 272.361L1238.52 294.568L1239.53 295.495Z" fill="url(#paint13_linear_5749_27889)"/>
</g>
</g>
<defs>
<linearGradient id="paint0_linear_5749_27889" x1="1186.66" y1="377.833" x2="1255.47" y2="302.495" gradientUnits="userSpaceOnUse">
<stop stop-color="#D28B28"/>
<stop offset="1" stop-color="#D28B28" stop-opacity="0"/>
</linearGradient>
<linearGradient id="paint1_linear_5749_27889" x1="1136.01" y1="780.177" x2="1529.66" y2="349.207" gradientUnits="userSpaceOnUse">
<stop stop-color="#D28B28"/>
<stop offset="1" stop-color="#D28B28" stop-opacity="0"/>
</linearGradient>
<linearGradient id="paint2_linear_5749_27889" x1="1186.51" y1="410.34" x2="1281.65" y2="306.173" gradientUnits="userSpaceOnUse">
<stop stop-color="#D28B28"/>
<stop offset="1" stop-color="#D28B28" stop-opacity="0"/>
</linearGradient>
<linearGradient id="paint3_linear_5749_27889" x1="1184.68" y1="444.427" x2="1307.56" y2="309.886" gradientUnits="userSpaceOnUse">
<stop stop-color="#D28B28"/>
<stop offset="1" stop-color="#D28B28" stop-opacity="0"/>
</linearGradient>
<linearGradient id="paint4_linear_5749_27889" x1="1181.59" y1="479.599" x2="1332.84" y2="313.994" gradientUnits="userSpaceOnUse">
<stop stop-color="#D28B28"/>
<stop offset="1" stop-color="#D28B28" stop-opacity="0"/>
</linearGradient>
<linearGradient id="paint5_linear_5749_27889" x1="1177.52" y1="515.68" x2="1357.88" y2="318.213" gradientUnits="userSpaceOnUse">
<stop stop-color="#D28B28"/>
<stop offset="1" stop-color="#D28B28" stop-opacity="0"/>
</linearGradient>
<linearGradient id="paint6_linear_5749_27889" x1="1172.72" y1="552.432" x2="1382.72" y2="322.511" gradientUnits="userSpaceOnUse">
<stop stop-color="#D28B28"/>
<stop offset="1" stop-color="#D28B28" stop-opacity="0"/>
</linearGradient>
<linearGradient id="paint7_linear_5749_27889" x1="1167.62" y1="590.352" x2="1407.67" y2="327.537" gradientUnits="userSpaceOnUse">
<stop stop-color="#D28B28"/>
<stop offset="1" stop-color="#D28B28" stop-opacity="0"/>
</linearGradient>
<linearGradient id="paint8_linear_5749_27889" x1="1161.61" y1="627.317" x2="1432.01" y2="331.275" gradientUnits="userSpaceOnUse">
<stop stop-color="#D28B28"/>
<stop offset="1" stop-color="#D28B28" stop-opacity="0"/>
</linearGradient>
<linearGradient id="paint9_linear_5749_27889" x1="1155.53" y1="665.242" x2="1456.51" y2="335.721" gradientUnits="userSpaceOnUse">
<stop stop-color="#D28B28"/>
<stop offset="1" stop-color="#D28B28" stop-opacity="0"/>
</linearGradient>
<linearGradient id="paint10_linear_5749_27889" x1="1149.2" y1="703.389" x2="1480.94" y2="340.194" gradientUnits="userSpaceOnUse">
<stop stop-color="#D28B28"/>
<stop offset="1" stop-color="#D28B28" stop-opacity="0"/>
</linearGradient>
<linearGradient id="paint11_linear_5749_27889" x1="1142.68" y1="741.716" x2="1505.32" y2="344.694" gradientUnits="userSpaceOnUse">
<stop stop-color="#D28B28"/>
<stop offset="1" stop-color="#D28B28" stop-opacity="0"/>
</linearGradient>
<linearGradient id="paint12_linear_5749_27889" x1="1189.93" y1="257.998" x2="1210.89" y2="235.888" gradientUnits="userSpaceOnUse">
<stop stop-color="#D28B28"/>
<stop offset="1" stop-color="#D28B28" stop-opacity="0"/>
</linearGradient>
<linearGradient id="paint13_linear_5749_27889" x1="1235.16" y1="299.258" x2="1256.12" y2="277.148" gradientUnits="userSpaceOnUse">
<stop stop-color="#D28B28"/>
<stop offset="1" stop-color="#D28B28" stop-opacity="0"/>
</linearGradient>
<clipPath id="clip0_5749_27889">
<rect width="1440" height="800" fill="white"/>
</clipPath>
</defs>
</svg>
