<svg width="70" height="30" viewBox="0 0 70 30" fill="none" xmlns="http://www.w3.org/2000/svg">
<path fill-rule="evenodd" clip-rule="evenodd" d="M27.8432 23.1631V21.183C26.5291 22.6759 24.8473 23.418 22.8249 23.418C21.122 23.418 19.7073 22.9145 18.7204 21.8654C17.7352 20.8181 17.2359 19.2904 17.2359 17.3661V6.40605H21.5547V17.143C21.5547 18.1473 21.7875 18.8242 22.1758 19.2499C22.5595 19.6707 23.1624 19.9193 24.0608 19.9193C25.4865 19.9193 26.6672 19.2013 27.5866 17.6274V6.40605H31.9054V23.1631H27.8432ZM37.8712 6.40605V23.1029C37.8712 25.1054 37.3727 26.7246 36.3158 27.898C35.2609 29.0692 33.7044 29.7351 31.7086 29.9492L31.235 30V26.5905L31.5867 26.5239C32.245 26.3991 32.7088 26.0911 33.0184 25.6136C33.3368 25.1227 33.5215 24.4072 33.5215 23.4216V6.40605H37.8712ZM37.4118 0.584076L37.4157 0.587587C37.8978 1.02272 38.1176 1.67214 38.1222 2.28375C38.1268 2.89367 37.9174 3.54054 37.4456 3.96377L37.4422 3.96682L37.4387 3.9698C36.968 4.37439 36.3031 4.55046 35.6847 4.55046C35.0677 4.55046 34.4055 4.37492 33.9471 3.96377C33.4753 3.54054 33.2659 2.89367 33.2704 2.28375C33.275 1.67214 33.4949 1.02272 33.977 0.587587L33.9775 0.587137L33.978 0.586689C34.4338 0.177871 35.0785 0 35.6847 0C36.2921 0 36.9397 0.178305 37.4078 0.580662L37.4118 0.584076ZM49.5384 17.6246H53.92L53.7685 18.186C52.8738 21.5018 50.1448 23.418 46.4032 23.418C44.2583 23.418 42.4493 22.6762 41.0051 21.2204C39.5355 19.7389 38.8367 17.5662 38.8367 14.7846C38.8367 12.0047 39.5346 9.79924 41.0051 8.3169C42.4527 6.85768 44.2633 6.15109 46.4032 6.15109C48.5379 6.15109 50.3437 6.82212 51.8212 8.21066C53.3237 9.62269 54.0314 11.6044 54.0314 14.1471V15.769H43.2791V16.0913C43.2791 17.6196 43.635 18.6856 44.1802 19.3618C44.7173 20.028 45.4775 20.3655 46.4032 20.3655C47.2432 20.3655 47.8858 20.1536 48.3695 19.7685C48.8541 19.3827 49.2215 18.7894 49.4505 17.9476L49.5384 17.6246ZM64.0326 9.45858H59.9232V18.1629C59.9232 18.9922 60.086 19.5271 60.3378 19.8489C60.5753 20.1523 60.9458 20.3336 61.5334 20.3336C62.0409 20.3336 62.8062 20.2153 63.8234 19.9927L64.3416 19.8793V22.7814L64.052 22.8841C63.0136 23.2523 61.9463 23.418 60.8227 23.418C59.1462 23.418 57.8144 23.032 56.9081 22.0972C56.002 21.1626 55.6044 19.7651 55.6044 17.9398V9.45858H53.4725V6.40605H55.6044V3.51021L59.9232 2.35672V6.40605H64.0326V9.45858ZM69.291 6.40605V23.1631H64.9413V6.40605H69.291ZM68.8934 0.584076L68.8973 0.587587C69.3794 1.02275 69.6 1.67295 69.6 2.28718C69.6 2.90071 69.3795 3.54858 68.8894 3.9698C68.4185 4.37457 67.7535 4.55046 67.1316 4.55046C66.5112 4.55046 65.8478 4.3754 65.3771 3.97262C64.8716 3.55345 64.6401 2.90562 64.6401 2.28718C64.6401 1.66687 64.8725 1.01503 65.3725 0.581776L65.3732 0.581218L65.3738 0.580662C65.8447 0.175885 66.5098 0 67.1316 0C67.7535 0 68.4185 0.175885 68.8894 0.580662L68.8934 0.584076ZM44.1179 10.0692C43.5955 10.6967 43.284 11.6264 43.2791 12.8121H49.5272C49.5225 11.5758 49.2094 10.6489 48.6907 10.0361C48.1748 9.42648 47.4125 9.07613 46.4032 9.07613C45.4016 9.07613 44.6377 9.44482 44.1179 10.0692ZM0 23.6057H9.07041C11.4151 23.6057 13.1737 23.0318 14.3769 21.8839C15.5493 20.7678 16.1354 19.3648 16.1354 17.7067C16.1354 15.1877 14.5352 13.2586 12.1596 12.7165C14.3769 12.0561 15.5801 9.95832 15.5801 7.66249C15.5801 6.03628 14.9939 4.63328 13.8216 3.51725C12.6492 2.40122 10.8907 1.82727 8.54593 1.82727H0V7.05056H4.8063V4.04052L12.5307 8.37851L4.8063 12.7165V9.70647H0V15.7265H4.8063V12.7165L12.5307 17.0545L4.8063 21.3925V18.3824H0V23.6057Z" fill="#F2F4F1"/>
</svg>
