<svg width="12" height="12" viewBox="0 0 12 12" fill="none" xmlns="http://www.w3.org/2000/svg">
<path d="M8.48945 0.00205405C8.95771 -0.014114 9.42436 0.0653021 9.86092 0.235456C10.2975 0.40561 10.6948 0.662933 11.0286 0.991723C11.3504 1.32551 11.602 1.72042 11.7685 2.15311C11.9351 2.5858 12.0132 3.04748 11.9983 3.51088V8.48921C11.9983 9.52886 11.6584 10.4236 11.0086 11.0534C10.3193 11.6898 9.40711 12.0291 8.46946 11.998H3.53111C2.6013 12.0268 1.69773 11.6873 1.01695 11.0534C0.679488 10.7153 0.415242 10.3115 0.240676 9.86689C0.0661097 9.4223 -0.0150373 8.94653 0.00229014 8.46922V3.51088C0.00229014 1.40159 1.40182 0.00205405 3.51112 0.00205405H8.48945ZM8.51444 1.11668H3.53111C2.80635 1.11668 2.18156 1.33161 1.7667 1.74147C1.54502 1.97759 1.37322 2.25597 1.26158 2.55999C1.14993 2.86401 1.10073 3.18741 1.11692 3.51088V8.46922C1.11692 9.21897 1.33185 9.81877 1.7667 10.2586C2.2517 10.6876 2.88424 10.9116 3.53111 10.8834H8.46946C9.11632 10.9116 9.74887 10.6876 10.2339 10.2586C10.4667 10.0283 10.6492 9.75201 10.7696 9.44742C10.8901 9.14283 10.9459 8.81653 10.9336 8.48921V3.51088C10.9498 2.86743 10.717 2.24256 10.2838 1.76646C10.0477 1.54478 9.76935 1.37299 9.46533 1.26134C9.16131 1.1497 8.83791 1.1005 8.51444 1.11668V1.11668ZM6.00028 2.88109C7.69472 2.88109 9.09925 4.28062 9.09925 5.98005C9.09925 6.80195 8.77275 7.59018 8.19158 8.17135C7.61041 8.75252 6.82218 9.07902 6.00028 9.07902C5.17839 9.07902 4.39015 8.75252 3.80899 8.17135C3.22782 7.59018 2.90132 6.80195 2.90132 5.98005C2.90132 5.15816 3.22782 4.36992 3.80899 3.78876C4.39015 3.20759 5.17839 2.88109 6.00028 2.88109V2.88109ZM6.00028 3.99072C5.47481 3.99335 4.97162 4.20325 4.60005 4.57482C4.22848 4.94639 4.01857 5.44959 4.01595 5.97505C4.01857 6.50052 4.22848 7.00372 4.60005 7.37529C4.97162 7.74686 5.47481 7.95676 6.00028 7.95939C6.52575 7.95676 7.02895 7.74686 7.40052 7.37529C7.77208 7.00372 7.98199 6.50052 7.98462 5.97505C7.98199 5.44959 7.77208 4.94639 7.40052 4.57482C7.02895 4.20325 6.52575 3.99335 6.00028 3.99072V3.99072ZM9.21921 2.10635C9.40479 2.10635 9.58278 2.18007 9.71401 2.31131C9.84525 2.44254 9.91897 2.62053 9.91897 2.80612C9.91897 2.9917 9.84525 3.16969 9.71401 3.30092C9.58278 3.43216 9.40479 3.50588 9.21921 3.50588C9.03362 3.50588 8.85563 3.43216 8.7244 3.30092C8.59316 3.16969 8.51944 2.9917 8.51944 2.80612C8.51944 2.62053 8.59316 2.44254 8.7244 2.31131C8.85563 2.18007 9.03362 2.10635 9.21921 2.10635Z" fill="#BFC6B9"/>
</svg>
