<svg width="18" height="16" viewBox="0 0 18 16" fill="none" xmlns="http://www.w3.org/2000/svg">
<g clip-path="url(#clip0_5824_30741)">
<path d="M9.993 1C6.129 1 3 4.136 3 8C3 11.864 6.129 15 9.993 15C13.864 15 17 11.864 17 8C17 4.136 13.864 1 9.993 1ZM14.844 5.2H12.779C12.555 4.325 12.233 3.485 11.813 2.708C13.101 3.149 14.172 4.045 14.844 5.2ZM10 2.428C10.581 3.268 11.036 4.199 11.337 5.2H8.663C8.964 4.199 9.419 3.268 10 2.428ZM4.582 9.4C4.47 8.952 4.4 8.483 4.4 8C4.4 7.517 4.47 7.048 4.582 6.6H6.948C6.892 7.062 6.85 7.524 6.85 8C6.85 8.476 6.892 8.938 6.948 9.4H4.582ZM5.156 10.8H7.221C7.445 11.675 7.767 12.515 8.187 13.292C6.899 12.851 5.828 11.962 5.156 10.8V10.8ZM7.221 5.2H5.156C5.828 4.038 6.899 3.149 8.187 2.708C7.767 3.485 7.445 4.325 7.221 5.2V5.2ZM10 13.572C9.419 12.732 8.964 11.801 8.663 10.8H11.337C11.036 11.801 10.581 12.732 10 13.572ZM11.638 9.4H8.362C8.299 8.938 8.25 8.476 8.25 8C8.25 7.524 8.299 7.055 8.362 6.6H11.638C11.701 7.055 11.75 7.524 11.75 8C11.75 8.476 11.701 8.938 11.638 9.4ZM11.813 13.292C12.233 12.515 12.555 11.675 12.779 10.8H14.844C14.172 11.955 13.101 12.851 11.813 13.292V13.292ZM13.052 9.4C13.108 8.938 13.15 8.476 13.15 8C13.15 7.524 13.108 7.062 13.052 6.6H15.418C15.53 7.048 15.6 7.517 15.6 8C15.6 8.483 15.53 8.952 15.418 9.4H13.052Z" fill="#D28B28"/>
</g>
<defs>
<clipPath id="clip0_5824_30741">
<rect width="17.0423" height="16" fill="white" transform="translate(0.644531)"/>
</clipPath>
</defs>
</svg>
