<svg width="20" height="20" viewBox="0 0 20 20" fill="none" xmlns="http://www.w3.org/2000/svg">
<path d="M15.115 4H4.885C4.4 4 4 4.385 4 4.86V15.14C4 15.615 4.4 16 4.885 16H15.115C15.605 16 16 15.615 16 15.14V4.86C16 4.385 15.6 4 15.115 4ZM7.635 14.05H5.825V8.62H7.635V14.05ZM6.735 7.88H6.72C6.11 7.88 5.72 7.465 5.72 6.945C5.72 6.415 6.12 6.01 6.745 6.01C7.365 6.01 7.745 6.41 7.755 6.945C7.755 7.465 7.365 7.88 6.73 7.88H6.735ZM14.17 14.05H12.355V11.15C12.355 10.425 12.095 9.925 11.44 9.925C10.94 9.925 10.64 10.26 10.505 10.585C10.455 10.7 10.45 10.86 10.45 11.025V14.05H8.64C8.64 14.05 8.665 9.14 8.64 8.63H10.455V9.4C10.6188 9.11565 10.8573 8.88149 11.1446 8.72287C11.4319 8.56424 11.7571 8.48717 12.085 8.5C13.28 8.5 14.175 9.28 14.175 10.945V14.05H14.17Z" fill="#586068"/>
</svg>
