<svg width="100" height="26" viewBox="0 0 100 26" fill="none" xmlns="http://www.w3.org/2000/svg">
<g clip-path="url(#clip0_5896_23675)">
<path d="M47.0441 4.43079C47.2106 4.43079 47.3772 4.51439 47.5437 4.59799C47.7102 4.68159 47.7935 4.93239 47.7935 5.2668V8.27644C47.7935 8.61085 47.7102 8.86165 47.4604 8.94526C47.2939 9.02886 47.1274 9.11246 46.9609 9.11246H46.2115C45.2956 9.11246 44.5462 9.36326 44.0466 9.86487C43.547 10.3665 43.2972 11.2025 43.2972 12.2893V19.2282C43.2972 19.3954 43.214 19.5626 43.0475 19.6462C42.8809 19.7298 42.7977 19.8134 42.6311 19.8134H39.6336C39.4671 19.8134 39.3006 19.7298 39.2173 19.6462C39.134 19.5626 39.0508 19.3954 39.0508 19.2282V5.5176C39.0508 5.3504 39.134 5.1832 39.2173 5.01599C39.3006 4.84879 39.4671 4.84879 39.6336 4.84879H42.5479C42.7144 4.84879 42.8809 4.93239 42.9642 5.01599C43.1307 5.0996 43.1307 5.2668 43.1307 5.434V6.60442C43.547 5.93561 44.0466 5.2668 44.6295 4.93239C45.2123 4.59799 45.8784 4.43079 46.5445 4.43079H47.0441Z" fill="#202939"/>
<path d="M65.8633 12.1221C65.8633 10.9517 66.0298 9.86487 66.4461 8.94526C66.8625 8.02564 67.362 7.18963 68.1114 6.52082C68.7775 5.85201 69.5269 5.3504 70.4428 4.93239C71.3587 4.59799 72.1913 4.43079 73.1905 4.43079C74.1897 4.43079 75.0223 4.59799 75.7717 5.01599C76.5211 5.3504 77.0207 5.85201 77.3537 6.43722V5.5176C77.3537 5.3504 77.437 5.1832 77.5202 5.01599C77.6868 4.84879 77.77 4.84879 77.9366 4.84879H80.9341C81.1006 4.84879 81.2671 4.93239 81.3504 5.01599C81.4336 5.1832 81.5169 5.2668 81.5169 5.5176V19.2282C81.5169 19.3954 81.4336 19.5626 81.3504 19.6462C81.2671 19.7298 81.1006 19.8134 80.9341 19.8134H77.9366C77.77 19.8134 77.6035 19.7298 77.5202 19.6462C77.3537 19.5626 77.3537 19.3954 77.3537 19.2282V17.8906C77.0207 18.4758 76.4378 18.9774 75.6884 19.3118C74.9391 19.6462 74.1064 19.897 73.1072 19.897C72.1913 19.897 71.2754 19.7298 70.3595 19.3954C69.4436 19.061 68.6943 18.4758 68.0281 17.807C67.362 17.1382 66.7792 16.3022 66.4461 15.3826C66.1131 14.3793 65.8633 13.2925 65.8633 12.1221ZM70.2763 12.1221C70.2763 12.6237 70.3595 13.1253 70.5261 13.5433C70.6926 14.0449 70.9424 14.3793 71.2754 14.7137C71.6085 15.0481 71.9416 15.299 72.4411 15.5498C72.8575 15.717 73.357 15.8842 73.8566 15.8842C74.3562 15.8842 74.8558 15.8006 75.2721 15.5498C75.6884 15.3826 76.1047 15.0481 76.3545 14.7137C76.6876 14.3793 76.9374 13.9613 77.1039 13.5433C77.2704 13.0417 77.3537 12.6237 77.3537 12.1221C77.3537 11.6205 77.2704 11.1189 77.1039 10.7009C76.9374 10.2829 76.6876 9.86487 76.3545 9.53046C76.0215 9.19606 75.6884 8.94525 75.2721 8.69445C74.8558 8.52725 74.3562 8.36005 73.8566 8.36005C73.357 8.36005 72.8575 8.44365 72.4411 8.69445C72.0248 8.86165 71.6085 9.19606 71.2754 9.53046C70.9424 9.86487 70.6926 10.2829 70.5261 10.7009C70.3595 11.1189 70.2763 11.6205 70.2763 12.1221Z" fill="#202939"/>
<path d="M48.2109 12.1221C48.2109 10.9517 48.3775 9.86487 48.7938 8.94526C49.2101 8.02564 49.7097 7.18963 50.4591 6.52082C51.1252 5.85201 51.8746 5.3504 52.7905 4.93239C53.7064 4.59799 54.539 4.43079 55.5382 4.43079C56.5373 4.43079 57.37 4.59799 58.1193 5.01599C58.8687 5.3504 59.3683 5.85201 59.7014 6.43722V5.5176C59.7014 5.3504 59.7846 5.1832 59.8679 5.01599C60.0344 4.84879 60.1177 4.84879 60.2842 4.84879H63.2817C63.4482 4.84879 63.6148 4.93239 63.698 5.01599C63.7813 5.1832 63.8646 5.2668 63.8646 5.5176V19.2282C63.8646 19.3954 63.7813 19.5626 63.698 19.6462C63.6148 19.7298 63.4482 19.8134 63.2817 19.8134H60.2842C60.1177 19.8134 59.9512 19.7298 59.8679 19.6462C59.7014 19.5626 59.7014 19.3954 59.7014 19.2282V17.8906C59.3683 18.4758 58.7855 18.9774 58.0361 19.3118C57.2867 19.6462 56.4541 19.897 55.4549 19.897C54.539 19.897 53.6231 19.7298 52.7072 19.3954C51.7913 19.061 51.0419 18.4758 50.3758 17.807C49.7097 17.1382 49.1268 16.3022 48.7938 15.3826C48.3775 14.3793 48.2109 13.2925 48.2109 12.1221ZM52.5407 12.1221C52.5407 12.6237 52.6239 13.1253 52.7905 13.5433C52.957 14.0449 53.2068 14.3793 53.5398 14.7137C53.8729 15.0481 54.2059 15.299 54.7055 15.5498C55.1218 15.717 55.6214 15.8842 56.121 15.8842C56.6206 15.8842 57.1202 15.8006 57.5365 15.5498C57.9528 15.3826 58.3691 15.0481 58.6189 14.7137C58.952 14.3793 59.2018 13.9613 59.3683 13.5433C59.5348 13.0417 59.6181 12.6237 59.6181 12.1221C59.6181 11.6205 59.5348 11.1189 59.3683 10.7009C59.2018 10.2829 58.952 9.86487 58.6189 9.53046C58.2859 9.19606 57.9528 8.94525 57.5365 8.69445C57.1202 8.52725 56.6206 8.36005 56.121 8.36005C55.6214 8.36005 55.1218 8.44365 54.7055 8.69445C54.2892 8.86165 53.8729 9.19606 53.5398 9.53046C53.2068 9.86487 52.957 10.2829 52.7905 10.7009C52.7072 11.1189 52.5407 11.6205 52.5407 12.1221Z" fill="#202939"/>
<path d="M88.5121 6.3536C88.9284 5.76839 89.5113 5.26678 90.2606 4.93238C91.01 4.59797 91.8426 4.34717 92.8418 4.34717C93.7577 4.34717 94.6736 4.51437 95.5895 4.84878C96.4222 5.18318 97.1715 5.68479 97.8377 6.4372C98.5038 7.10601 99.0033 7.94202 99.4197 8.86164C99.836 9.78125 100.003 10.8681 100.003 12.0385C100.003 13.2089 99.836 14.2957 99.4197 15.2153C99.0033 16.1349 98.5038 16.971 97.8377 17.6398C97.1715 18.3086 96.4222 18.8102 95.5063 19.2282C94.5904 19.5626 93.6745 19.7298 92.7586 19.7298C91.9259 19.7298 91.0933 19.5626 90.3439 19.3118C89.5113 19.061 88.9284 18.5594 88.5121 17.9742V25.2475C88.5121 25.4147 88.4288 25.5819 88.3456 25.6655C88.2623 25.7491 88.0958 25.8327 87.9292 25.8327H84.8485C84.6819 25.8327 84.5154 25.7491 84.4322 25.6655C84.3489 25.5819 84.2656 25.4147 84.2656 25.2475V5.51759C84.2656 5.35038 84.3489 5.18318 84.4322 5.01598C84.5154 4.84878 84.6819 4.84878 84.8485 4.84878H87.846C88.0125 4.84878 88.179 4.93238 88.2623 5.01598C88.3456 5.18318 88.4288 5.26678 88.4288 5.51759V6.3536H88.5121ZM88.5121 12.1221C88.5121 12.6237 88.5954 13.1253 88.7619 13.5433C88.9284 13.9613 89.1782 14.3793 89.5113 14.7137C89.8443 15.0481 90.2606 15.2989 90.677 15.5497C91.0933 15.7169 91.5929 15.8005 92.0924 15.8005C92.592 15.8005 93.0916 15.7169 93.5079 15.5497C93.9242 15.3825 94.3406 15.1317 94.5904 14.7137C94.9234 14.3793 95.1732 13.9613 95.3397 13.5433C95.5063 13.1253 95.5895 12.6237 95.5895 12.1221C95.5895 11.6205 95.5063 11.1189 95.3397 10.7009C95.1732 10.2829 94.9234 9.86485 94.5904 9.53045C94.2573 9.19604 93.9242 8.94524 93.5079 8.69443C93.0916 8.52723 92.592 8.36003 92.0924 8.36003C91.5929 8.36003 91.0933 8.44363 90.677 8.69443C90.2606 8.86164 89.8443 9.19604 89.5113 9.53045C89.1782 9.86485 88.9284 10.2829 88.7619 10.7009C88.5954 11.1189 88.5121 11.6205 88.5121 12.1221Z" fill="#202939"/>
<path d="M7.49509 18.4758L0.91724 11.8713C-0.248455 10.7009 -0.248455 8.77808 0.91724 7.52406L7.49509 0.919562C8.66079 -0.250856 10.5759 -0.250856 11.8248 0.919562L18.4027 7.52406C19.5684 8.69448 19.5684 10.6173 18.4027 11.8713L11.8248 18.4758C10.6591 19.7299 8.66079 19.7299 7.49509 18.4758Z" fill="#3EB65F"/>
<path d="M18.4013 18.4758L11.8235 11.8713C10.6578 10.7009 10.6578 8.77808 11.8235 7.52406L18.4013 0.919562C19.567 -0.250856 21.4821 -0.250856 22.7311 0.919562L29.3922 7.52406C30.5579 8.69448 30.5579 10.6173 29.3922 11.8713L22.8143 18.4758C21.5654 19.7299 19.6503 19.7299 18.4013 18.4758Z" fill="#0AA5DB"/>
<path d="M15.154 4.18005L11.8235 7.52411C10.6578 8.69452 10.6578 10.6174 11.8235 11.8714L15.154 15.2154L18.4846 11.8714C19.6503 10.701 19.6503 8.77812 18.4846 7.52411L15.154 4.18005Z" fill="#202939"/>
</g>
<defs>
<clipPath id="clip0_5896_23675">
<rect width="100" height="26" fill="white"/>
</clipPath>
</defs>
</svg>
