<svg width="1440" height="700" viewBox="0 0 1440 700" fill="none" xmlns="http://www.w3.org/2000/svg">
<path fill-rule="evenodd" clip-rule="evenodd" d="M-104.501 551.402L-127.141 588.84L-128.066 588.33L-105.426 550.892C-99.1744 540.554 -91.7874 534.184 -83.3814 531.822C-75.0093 529.469 -66.8664 530.47 -59.2796 534.652C-49.1128 540.256 -42.6362 550.286 -44.5347 561.284C-35.6232 553.127 -22.9456 551.435 -11.7097 557.628C-3.97796 561.89 1.00304 568.121 3.0549 576.221C5.17899 584.567 3.09528 593.859 -3.15734 604.199L-27.1872 643.934L-28.1126 643.424L-4.08284 603.689C2.08798 593.485 4.0536 584.466 2.01632 576.462C0.0358194 568.643 -4.75583 562.64 -12.244 558.512C-23.5854 552.261 -36.4063 554.346 -45.0212 563.211L-46.4043 564.634L-45.9327 562.745C-43.1575 551.633 -49.4281 541.26 -59.814 535.535C-67.1544 531.489 -74.9958 530.528 -83.0796 532.8C-91.1296 535.063 -98.3286 541.196 -104.501 551.402ZM-105.77 573.135L-63.7937 549.362L-64.3481 594.175L-23.9747 571.31L-24.5512 617.902L-44.7999 606.741L-44.2655 605.858L-25.5982 616.147L-25.0657 573.114L-63.8358 595.071L-47.9675 603.817L-48.5019 604.701L-81.8198 586.336L-81.2854 585.452L-65.4172 594.199L-64.8847 551.166L-103.655 573.123L-84.9874 583.412L-85.5218 584.296L-105.77 573.135Z" fill="url(#paint0_linear_5824_30796)"/>
<path fill-rule="evenodd" clip-rule="evenodd" d="M-342.893 423.228L-473.075 638.495L-474 637.985L-343.818 422.718C-308.061 363.59 -266.056 327.51 -218.615 314.137C-171.207 300.772 -125.161 306.402 -82.1911 330.087C-46.3922 349.819 -18.798 379.146 -5.57591 413.39C-3.71739 418.204 0.371213 423.166 5.83469 427.811C11.2913 432.449 18.0847 436.741 25.2995 440.223C32.5144 443.705 40.1348 446.369 47.2409 447.76C54.3561 449.154 60.9077 449.262 66.0135 447.683C105.802 435.381 150.036 439.439 190.909 461.968C234.718 486.115 262.849 521.369 274.43 567.249C286.389 614.399 274.664 667.168 238.905 726.298L100.734 954.776L99.8085 954.266L237.98 725.788C273.657 666.793 285.264 614.297 273.391 567.489L273.391 567.489C261.881 521.891 233.94 486.864 190.375 462.851C149.753 440.461 105.832 436.444 66.3427 448.654C60.9904 450.309 54.2315 450.171 47.0261 448.76C39.8115 447.347 32.1012 444.649 24.8174 441.134C17.5333 437.618 10.66 433.279 5.124 428.573C-0.405139 423.872 -4.63504 418.777 -6.57865 413.743C-19.7025 379.754 -47.1112 350.601 -82.7255 330.971C-125.449 307.422 -171.193 301.832 -218.312 315.115C-265.398 328.389 -307.215 364.232 -342.893 423.228Z" fill="url(#paint1_linear_5824_30796)"/>
<path fill-rule="evenodd" clip-rule="evenodd" d="M-139.797 562.492C-135.332 556.603 -128.164 546.979 -115.727 529.361L-115.706 529.331L-115.681 529.304C-105.665 518.679 -94.7275 513.412 -83.1608 513.458L-83.1419 513.458L-83.123 513.459C-74.7399 514.059 -67.3099 516.922 -61.6265 521.48C-55.8061 526.148 -49.0463 530.26 -42.045 533.05C-41.5578 533.244 -41.0762 533.449 -40.6005 533.664C-28.0035 539.355 -10.1531 546.889 2.84112 551.673C6.86198 553.153 10.7573 555.429 14.3681 558.537L14.384 558.551L14.3987 558.566C22.0711 566.318 25.5477 576.118 24.7025 587.918C24.6004 589.344 24.2761 590.739 23.8265 592.082L13.3112 623.494C12.8344 624.919 12.199 626.29 11.4159 627.585L-15.5606 672.193L-16.4861 671.683L10.4904 627.075C11.2353 625.843 11.8397 624.539 12.2932 623.184L22.8086 591.772C23.2387 590.487 23.5414 589.174 23.6364 587.848C24.4629 576.31 21.0728 566.802 13.6365 559.281C10.1222 556.259 6.34346 554.056 2.45662 552.625C-10.5701 547.829 -28.446 540.283 -41.0576 534.586C-41.5182 534.378 -41.9847 534.18 -42.4566 533.992C-49.5713 531.157 -56.4227 526.986 -62.3139 522.261C-67.8088 517.854 -75.0149 515.066 -83.184 514.478C-94.3512 514.44 -105.003 519.512 -114.862 529.96C-127.292 547.569 -134.462 557.195 -138.931 563.09C-139.891 564.357 -140.726 565.45 -141.46 566.411C-144.153 569.939 -145.496 571.699 -146.757 573.785L-147.683 573.275C-146.391 571.138 -145.005 569.324 -142.302 565.783C-141.572 564.826 -140.745 563.742 -139.797 562.492Z" fill="url(#paint2_linear_5824_30796)"/>
<path fill-rule="evenodd" clip-rule="evenodd" d="M-167.28 564.111C-167.338 560.343 -166.384 556.569 -164.135 553.424C-161.105 549.187 -157.397 544.865 -151.727 538.293C-151.509 538.04 -151.287 537.784 -151.063 537.524C-145.459 531.03 -137.976 522.361 -127.453 509.572C-126.489 508.401 -125.383 507.293 -124.139 506.366C-110.908 496.497 -97.0619 492.796 -83.0002 495.122L-82.9818 495.125L-82.9636 495.129C-73.6252 497.325 -65.5029 501.636 -59.4164 507.46C-50.6857 515.814 -37.9227 523.182 -26.0426 526.408C-21.052 527.763 -16.346 530.02 -12.1865 533.141C-5.02105 538.516 3.91242 542.338 12.9053 543.702C23.0131 545.236 32.6685 550.371 40.4155 559.439L40.4314 559.458L40.4455 559.478C48.9426 571.601 50.8174 586.334 45.9426 603.693L45.9351 603.719L28.9227 645.632C28.5164 646.633 28.03 647.603 27.4677 648.533L-3.93005 700.452L-4.85555 699.942L26.5422 648.023C27.077 647.138 27.5397 646.216 27.9262 645.264L44.9178 603.402C49.7199 586.28 47.8437 571.88 39.5713 560.066C31.9836 551.192 22.5648 546.201 12.7376 544.71C3.55764 543.317 -5.54402 539.422 -12.8469 533.943C-16.8946 530.906 -21.4751 528.709 -26.3349 527.389C-38.3999 524.113 -51.3204 516.652 -60.1729 508.181C-66.1064 502.503 -74.0441 498.281 -83.201 496.124C-96.9125 493.861 -110.454 497.453 -123.481 507.17C-124.644 508.037 -125.691 509.082 -126.613 510.202C-137.144 523 -144.632 531.677 -150.238 538.172C-150.462 538.432 -150.684 538.689 -150.902 538.942C-156.581 545.523 -160.255 549.808 -163.252 553.999C-165.354 556.94 -166.267 560.497 -166.211 564.096L-165.486 611.101L-166.554 611.116L-167.28 564.111Z" fill="url(#paint3_linear_5824_30796)"/>
<path fill-rule="evenodd" clip-rule="evenodd" d="M-187.642 546.771C-187.189 544.437 -186.337 542.175 -185.016 540.143C-178.049 529.426 -169.76 520.891 -154.809 505.496C-149.989 500.533 -144.478 494.858 -138.094 488.166C-136.894 486.908 -135.524 485.759 -133.997 484.847C-117.177 474.797 -99.9603 472.188 -82.8771 476.789L-82.8623 476.793L-82.8478 476.798C-71.7432 480.459 -62.223 486.516 -55.2857 494.228C-45.3452 505.278 -26.9711 515.364 -11.9306 517.768C-3.25443 519.154 5.05889 522.695 12.2418 528.364C17.0451 532.155 22.8484 534.75 28.982 535.781C43.6157 538.239 56.9231 546.243 66.4393 560.331L66.4518 560.349L66.4626 560.369C75.3357 576.392 75.685 595.352 67.3742 617.343L67.3684 617.358L44.0311 668.63L7.69815 728.71L6.77266 728.2L43.0752 668.171L66.3748 616.981C74.6044 595.195 74.2115 576.56 65.5286 560.865C56.1701 547.021 43.1227 539.192 28.7968 536.785C22.4767 535.724 16.5035 533.051 11.5609 529.15C4.52368 523.596 -3.6154 520.131 -12.107 518.774C-27.4017 516.329 -45.9978 506.119 -56.0964 494.893C-62.8968 487.333 -72.247 481.375 -83.1821 477.767C-99.941 473.258 -116.844 475.801 -133.43 485.712C-134.86 486.566 -136.156 487.65 -137.304 488.853C-143.724 495.583 -149.256 501.279 -154.084 506.251C-169.002 521.613 -177.199 530.054 -184.108 540.681C-185.35 542.591 -186.159 544.731 -186.592 546.957L-199.664 614.216L-200.715 614.03L-187.642 546.771Z" fill="url(#paint4_linear_5824_30796)"/>
<path fill-rule="evenodd" clip-rule="evenodd" d="M-207.283 530.451C-206.798 528.928 -206.136 527.456 -205.276 526.084C-193.423 507.176 -179.375 494.453 -152.993 470.56C-151.545 469.248 -150.059 467.902 -148.535 466.52C-147.23 465.337 -145.765 464.285 -144.161 463.475C-123.659 453.114 -102.973 451.548 -82.7695 458.455L-82.7469 458.463C-69.3785 463.692 -58.0846 471.818 -50.162 481.871C-45.0262 488.387 -36.6069 494.765 -27.3064 499.66C-18.0054 504.555 -7.88277 507.934 0.634026 508.504C12.9578 509.328 25.0607 513.678 35.5875 521.62C39.0306 524.218 43.0269 526.098 47.2887 527.082C66.0308 531.41 82.054 542.593 92.4538 561.211L92.463 561.227L92.4708 561.244C101.724 581.163 100.556 604.347 88.8125 630.976L88.8042 630.994L59.7549 690.121L19.3297 756.967L18.4043 756.457L58.8066 689.648L87.8276 630.58C87.829 630.577 87.8304 630.573 87.8318 630.57C99.4916 604.126 100.591 581.255 91.5016 561.675C81.2447 543.322 65.4766 532.332 47.0375 528.074C42.6221 527.054 38.4861 525.108 34.9249 522.421C24.565 514.605 12.6665 510.331 0.559387 509.522C-8.16231 508.939 -18.4376 505.492 -27.8223 500.553C-37.2076 495.614 -45.7618 489.151 -51.0159 482.484C-58.8102 472.595 -69.9388 464.578 -83.1411 459.412C-103.041 452.612 -123.411 454.143 -143.661 464.376C-145.166 465.137 -146.553 466.13 -147.799 467.26C-149.303 468.623 -150.769 469.951 -152.198 471.245C-178.642 495.196 -192.583 507.823 -204.359 526.608C-205.17 527.902 -205.798 529.297 -206.261 530.748L-233.845 617.285L-234.867 616.988L-207.283 530.451Z" fill="url(#paint5_linear_5824_30796)"/>
<path fill-rule="evenodd" clip-rule="evenodd" d="M-226.779 514.634C-226.366 513.605 -225.868 512.602 -225.281 511.65C-209.489 486.049 -190.876 469.895 -158.816 444.749C-157.517 443.73 -156.087 442.839 -154.551 442.159C-130.295 431.417 -106.068 430.875 -82.6775 440.122L-82.6605 440.129C-66.6814 447.07 -53.379 457.56 -44.4548 470.321C-39.3586 477.608 -29.8628 484.876 -19.2935 490.301C-8.72327 495.727 2.83002 499.263 12.0016 499.164C28.0523 498.992 44.1897 503.841 58.393 513.926C60.9057 515.71 63.7168 517.089 66.7038 517.977C89.3377 524.706 107.576 539.236 118.456 562.087L118.462 562.101L118.468 562.114C128.103 585.925 125.423 613.334 110.248 644.603L110.242 644.615L75.4747 711.612L30.9564 785.227L30.0309 784.717L74.5321 711.13L109.279 644.174C109.28 644.172 109.281 644.17 109.282 644.168C124.372 613.07 126.968 585.965 117.477 562.496C106.724 539.921 88.7289 525.594 66.386 518.951C63.2811 518.028 60.3623 516.595 57.7553 514.744C43.7356 504.79 27.8255 500.015 12.0136 500.184C2.59113 500.286 -9.14627 496.668 -19.7996 491.2C-30.4538 485.731 -40.1143 478.365 -45.3436 470.887C-54.1449 458.302 -67.2822 447.932 -83.0948 441.061C-106.196 431.931 -130.109 432.459 -154.101 443.085C-155.545 443.724 -156.899 444.566 -158.137 445.537C-190.19 470.677 -208.671 486.734 -224.36 512.168C-224.915 513.068 -225.388 514.019 -225.781 514.998L-268.028 620.335L-269.026 619.971L-226.779 514.634Z" fill="url(#paint6_linear_5824_30796)"/>
<path fill-rule="evenodd" clip-rule="evenodd" d="M-245.764 498.02L-245.749 497.996C-226.535 466.223 -204.039 446.676 -168.959 422.919C-167.755 422.103 -166.453 421.396 -165.082 420.851C-137.021 409.691 -109.205 410.168 -82.5874 421.783L-82.5749 421.789C-63.7201 430.584 -48.2478 443.703 -38.3662 459.484C-33.4212 467.381 -23.0614 475.381 -11.464 481.225C0.134843 487.07 12.8487 490.698 22.4475 489.961C42.3141 488.436 62.713 493.551 80.8732 505.722C82.6976 506.945 84.679 507.949 86.765 508.693C113.137 518.107 133.3 536.06 144.458 562.954L144.467 562.975C154.487 590.676 150.297 622.311 131.691 658.222L131.687 658.23L91.194 733.11L42.5877 813.484L41.6622 812.974L90.2617 732.61L130.733 657.77C130.734 657.768 130.734 657.767 130.735 657.765C149.257 622.015 153.352 590.677 143.46 563.319C132.416 536.706 112.483 518.963 86.3907 509.649C84.2179 508.873 82.1561 507.829 80.2592 506.557C62.297 494.518 42.1444 489.472 22.5332 490.978C12.6431 491.737 -0.284416 488.013 -11.9628 482.128C-23.6426 476.242 -34.1959 468.132 -39.2834 460.007C-49.0466 444.416 -64.3519 431.426 -83.0385 422.708C-109.379 411.216 -136.882 410.74 -164.671 421.792C-165.961 422.306 -167.194 422.975 -168.341 423.751C-203.349 447.46 -225.706 466.901 -244.809 498.481L-302.205 623.371L-303.183 622.961L-245.764 498.02Z" fill="url(#paint7_linear_5824_30796)"/>
<path fill-rule="evenodd" clip-rule="evenodd" d="M-265.373 482.958L-265.363 482.941C-242.884 445.77 -216.551 422.94 -179.001 401.086C-177.961 400.48 -176.857 399.955 -175.714 399.539C-143.813 387.942 -112.375 389.44 -82.504 403.447L-82.495 403.451C-60.5528 414.228 -42.7943 430.212 -32.0334 449.278C-27.2984 457.668 -16.2449 466.275 -3.81269 472.455C8.62139 478.636 22.2799 482.312 32.1566 480.987C55.9129 477.801 80.7707 482.991 103.122 497.226C104.414 498.049 105.791 498.765 107.218 499.347C137.213 511.598 159.129 533.006 170.455 563.819L170.461 563.835C180.867 595.426 175.169 631.287 153.132 671.841L153.129 671.846L106.927 754.581L106.919 754.596L54.2168 841.743L53.2914 841.233L105.993 754.086L152.184 671.371C152.184 671.37 152.185 671.368 152.186 671.367C174.138 630.967 179.734 595.396 169.444 564.149C158.219 533.618 136.524 512.426 106.798 500.285C105.308 499.677 103.875 498.932 102.529 498.075C80.3885 483.974 55.7933 478.847 32.3053 481.998C22.1024 483.366 8.20262 479.578 -4.30622 473.36C-16.8169 467.141 -28.091 458.414 -32.9742 449.762C-43.6207 430.899 -61.209 415.054 -82.9802 404.36C-112.583 390.481 -143.71 388.996 -175.333 400.492C-176.411 400.884 -177.456 401.381 -178.445 401.957C-215.87 423.739 -242.058 446.451 -264.428 483.434L-336.381 626.402L-337.344 625.961L-265.373 482.958Z" fill="url(#paint8_linear_5824_30796)"/>
<path fill-rule="evenodd" clip-rule="evenodd" d="M-284.977 467.884C-258.948 424.843 -228.391 398.621 -187.753 378.677L-187.723 378.662L-187.691 378.651C-151.483 366.111 -115.961 368.496 -82.423 385.107L-82.417 385.11C-57.2117 397.985 -37.08 417.043 -25.5374 439.627C-21.0423 448.422 -9.43356 457.534 3.67679 463.983C16.7894 470.434 31.2187 474.13 41.2727 472.271C68.9801 467.149 98.4721 472.254 125.215 488.551C126.085 489.081 126.997 489.564 127.929 489.986C161.461 505.156 185.017 530.029 196.451 564.679L196.454 564.69C207.248 600.171 200.042 640.259 174.575 685.456L174.573 685.459L122.65 776.07L122.644 776.08L65.8463 870L64.9208 869.49L121.718 775.57L173.634 684.973C199.018 639.922 206.117 600.119 195.43 564.981C184.088 530.613 160.742 505.96 127.471 490.908C126.498 490.467 125.547 489.963 124.64 489.411C98.1194 473.25 68.9046 468.202 41.4758 473.273C31.0657 475.197 16.3694 471.375 3.1873 464.89C-9.99702 458.404 -21.8521 449.164 -26.4978 440.074C-37.9297 417.707 -57.8875 398.797 -82.9181 386.011C-116.18 369.538 -151.38 367.17 -187.295 379.599C-227.735 399.452 -258.129 425.533 -284.045 468.383L-370.556 629.428L-371.507 628.963L-284.977 467.884Z" fill="url(#paint9_linear_5824_30796)"/>
<path fill-rule="evenodd" clip-rule="evenodd" d="M-304.591 452.83C-275.318 404.425 -240.946 374.919 -198.04 357.162L-198.019 357.153L-197.998 357.146C-158.056 344.332 -119.026 347.799 -82.3445 366.768L-82.3409 366.77C-53.7251 381.844 -31.1538 404.164 -18.9376 430.466C-16.8228 435.019 -12.7593 439.686 -7.49267 444.058C-2.23151 448.425 4.20188 452.474 11.0168 455.8C17.8319 459.126 25.0153 461.722 31.7725 463.189C38.5371 464.658 44.8361 464.988 49.902 463.822C81.874 456.458 116.464 461.481 147.985 480.229C185.442 498.35 210.856 526.823 222.445 565.538L222.447 565.545C233.628 604.916 224.915 649.23 196.018 699.072L138.373 797.56L138.369 797.567L77.4754 898.26L76.5499 897.749L137.44 797.063L137.444 797.056L195.083 698.577C223.899 648.877 232.499 604.843 221.416 565.814C209.909 527.377 184.692 499.126 147.481 481.129L147.46 481.119L147.44 481.107C116.146 462.488 81.8417 457.515 50.1526 464.813C44.8655 466.031 38.3856 465.672 31.5355 464.184C24.6781 462.695 17.4112 460.067 10.5304 456.709C3.64957 453.351 -2.85833 449.257 -8.19387 444.828C-13.5239 440.403 -17.7123 435.621 -19.9146 430.879C-32.0241 404.807 -54.4177 382.645 -82.8555 367.664C-119.272 348.833 -157.987 345.392 -197.636 358.107C-240.291 375.765 -274.492 405.102 -303.661 453.333C-303.663 453.336 -303.664 453.338 -303.665 453.34L-404.73 632.453L-405.671 631.969L-304.591 452.83Z" fill="url(#paint10_linear_5824_30796)"/>
<path fill-rule="evenodd" clip-rule="evenodd" d="M-324.206 437.774C-291.69 384.007 -253.502 351.215 -208.328 335.648L-208.307 335.641C-164.632 322.552 -122.094 327.101 -82.2687 348.428C-50.1158 365.791 -25.0515 391.541 -12.2751 421.736C-10.289 426.43 -6.20389 431.257 -0.824147 435.777C4.54941 440.292 11.1829 444.474 18.2191 447.886C25.2553 451.299 32.6797 453.934 39.6306 455.365C46.5898 456.797 53.0312 457.013 58.1255 455.629C93.9804 445.894 133.322 450.482 169.446 471.098C210.079 492.233 236.851 524.096 248.436 566.395L248.437 566.397C260.007 609.658 249.788 658.199 217.459 712.686L154.095 819.049L89.1032 926.518L88.1777 926.008L153.167 818.541L216.53 712.182C248.776 657.834 258.88 609.569 247.402 566.651C235.893 524.633 209.314 492.994 168.925 471.989L168.907 471.979C133.023 451.497 93.9809 446.955 58.4179 456.611C53.0886 458.058 46.4526 457.813 39.4054 456.362C32.3499 454.91 24.8387 452.241 17.735 448.796C10.6312 445.351 3.92041 441.123 -1.53015 436.543C-6.9745 431.969 -11.1932 427.018 -13.266 422.119C-25.9398 392.165 -50.8204 366.583 -82.7915 349.318C-122.362 328.127 -164.592 323.612 -207.976 336.611C-252.847 352.077 -290.857 384.669 -323.28 438.284L-438.904 635.475L-439.836 634.976L-324.206 437.774Z" fill="url(#paint11_linear_5824_30796)"/>
<defs>
<linearGradient id="paint0_linear_5824_30796" x1="10.7416" y1="553.437" x2="-26.3881" y2="620.891" gradientUnits="userSpaceOnUse">
<stop stop-color="#D28B28" stop-opacity="0.35"/>
<stop offset="1" stop-color="#B5B5B5" stop-opacity="0"/>
</linearGradient>
<linearGradient id="paint1_linear_5824_30796" x1="317.998" y1="437.25" x2="105.599" y2="823.121" gradientUnits="userSpaceOnUse">
<stop stop-color="#D28B28" stop-opacity="0.35"/>
<stop offset="1" stop-color="#B5B5B5" stop-opacity="0"/>
</linearGradient>
<linearGradient id="paint2_linear_5824_30796" x1="36.3213" y1="546.761" x2="-15.0169" y2="640.024" gradientUnits="userSpaceOnUse">
<stop stop-color="#D28B28" stop-opacity="0.35"/>
<stop offset="1" stop-color="#B5B5B5" stop-opacity="0"/>
</linearGradient>
<linearGradient id="paint3_linear_5824_30796" x1="62.8255" y1="538.605" x2="-3.48319" y2="659.064" gradientUnits="userSpaceOnUse">
<stop stop-color="#D28B28" stop-opacity="0.35"/>
<stop offset="1" stop-color="#B5B5B5" stop-opacity="0"/>
</linearGradient>
<linearGradient id="paint4_linear_5824_30796" x1="89.9404" y1="529.362" x2="8.32231" y2="677.632" gradientUnits="userSpaceOnUse">
<stop stop-color="#D28B28" stop-opacity="0.35"/>
<stop offset="1" stop-color="#B5B5B5" stop-opacity="0"/>
</linearGradient>
<linearGradient id="paint5_linear_5824_30796" x1="117.586" y1="519.269" x2="20.2652" y2="696.066" gradientUnits="userSpaceOnUse">
<stop stop-color="#D28B28" stop-opacity="0.35"/>
<stop offset="1" stop-color="#B5B5B5" stop-opacity="0"/>
</linearGradient>
<linearGradient id="paint6_linear_5824_30796" x1="145.617" y1="508.539" x2="32.3008" y2="714.394" gradientUnits="userSpaceOnUse">
<stop stop-color="#D28B28" stop-opacity="0.35"/>
<stop offset="1" stop-color="#B5B5B5" stop-opacity="0"/>
</linearGradient>
<linearGradient id="paint7_linear_5824_30796" x1="173.942" y1="497.328" x2="44.4149" y2="732.636" gradientUnits="userSpaceOnUse">
<stop stop-color="#D28B28" stop-opacity="0.35"/>
<stop offset="1" stop-color="#B5B5B5" stop-opacity="0"/>
</linearGradient>
<linearGradient id="paint8_linear_5824_30796" x1="202.485" y1="485.756" x2="56.5823" y2="750.814" gradientUnits="userSpaceOnUse">
<stop stop-color="#D28B28" stop-opacity="0.35"/>
<stop offset="1" stop-color="#B5B5B5" stop-opacity="0"/>
</linearGradient>
<linearGradient id="paint9_linear_5824_30796" x1="231.195" y1="473.907" x2="68.7932" y2="768.941" gradientUnits="userSpaceOnUse">
<stop stop-color="#D28B28" stop-opacity="0.35"/>
<stop offset="1" stop-color="#B5B5B5" stop-opacity="0"/>
</linearGradient>
<linearGradient id="paint10_linear_5824_30796" x1="260.035" y1="461.845" x2="81.0371" y2="787.031" gradientUnits="userSpaceOnUse">
<stop stop-color="#D28B28" stop-opacity="0.35"/>
<stop offset="1" stop-color="#B5B5B5" stop-opacity="0"/>
</linearGradient>
<linearGradient id="paint11_linear_5824_30796" x1="288.974" y1="449.614" x2="93.306" y2="805.088" gradientUnits="userSpaceOnUse">
<stop stop-color="#D28B28" stop-opacity="0.35"/>
<stop offset="1" stop-color="#B5B5B5" stop-opacity="0"/>
</linearGradient>
</defs>
</svg>
