<svg width="20" height="20" viewBox="0 0 20 20" fill="none" xmlns="http://www.w3.org/2000/svg">
<path d="M12.4894 4.00205C12.9577 3.98589 13.4244 4.0653 13.8609 4.23546C14.2975 4.40561 14.6948 4.66293 15.0286 4.99172C15.3504 5.32551 15.602 5.72042 15.7685 6.15311C15.9351 6.5858 16.0132 7.04748 15.9983 7.51088V12.4892C15.9983 13.5289 15.6584 14.4236 15.0086 15.0534C14.3193 15.6898 13.4071 16.0291 12.4695 15.998H7.53111C6.6013 16.0268 5.69773 15.6873 5.01695 15.0534C4.67949 14.7153 4.41524 14.3115 4.24068 13.8669C4.06611 13.4223 3.98496 12.9465 4.00229 12.4692V7.51088C4.00229 5.40159 5.40182 4.00205 7.51112 4.00205H12.4894ZM12.5144 5.11668H7.53111C6.80635 5.11668 6.18156 5.33161 5.7667 5.74147C5.54502 5.97759 5.37322 6.25597 5.26158 6.55999C5.14993 6.86401 5.10073 7.18741 5.11692 7.51088V12.4692C5.11692 13.219 5.33185 13.8188 5.7667 14.2586C6.2517 14.6876 6.88424 14.9116 7.53111 14.8834H12.4695C13.1163 14.9116 13.7489 14.6876 14.2339 14.2586C14.4667 14.0283 14.6491 13.752 14.7696 13.4474C14.8901 13.1428 14.9459 12.8165 14.9336 12.4892V7.51088C14.9498 6.86743 14.717 6.24256 14.2838 5.76646C14.0477 5.54478 13.7693 5.37299 13.4653 5.26134C13.1613 5.1497 12.8379 5.1005 12.5144 5.11668ZM10.0003 6.88109C11.6947 6.88109 13.0992 8.28062 13.0992 9.98005C13.0992 10.8019 12.7727 11.5902 12.1916 12.1714C11.6104 12.7525 10.8222 13.079 10.0003 13.079C9.17839 13.079 8.39015 12.7525 7.80898 12.1714C7.22782 11.5902 6.90132 10.8019 6.90132 9.98005C6.90132 9.15816 7.22782 8.36992 7.80898 7.78876C8.39015 7.20759 9.17839 6.88109 10.0003 6.88109ZM10.0003 7.99072C9.47481 7.99335 8.97162 8.20325 8.60005 8.57482C8.22848 8.94639 8.01857 9.44959 8.01595 9.97505C8.01857 10.5005 8.22848 11.0037 8.60005 11.3753C8.97162 11.7469 9.47481 11.9568 10.0003 11.9594C10.5258 11.9568 11.0289 11.7469 11.4005 11.3753C11.7721 11.0037 11.982 10.5005 11.9846 9.97505C11.982 9.44959 11.7721 8.94639 11.4005 8.57482C11.0289 8.20325 10.5258 7.99335 10.0003 7.99072ZM13.2192 6.10635C13.4048 6.10635 13.5828 6.18007 13.714 6.31131C13.8452 6.44254 13.919 6.62053 13.919 6.80612C13.919 6.9917 13.8452 7.16969 13.714 7.30092C13.5828 7.43216 13.4048 7.50588 13.2192 7.50588C13.0336 7.50588 12.8556 7.43216 12.7244 7.30092C12.5932 7.16969 12.5194 6.9917 12.5194 6.80612C12.5194 6.62053 12.5932 6.44254 12.7244 6.31131C12.8556 6.18007 13.0336 6.10635 13.2192 6.10635Z" fill="#586068"/>
</svg>
