<svg width="69" height="30" viewBox="0 0 69 30" fill="none" xmlns="http://www.w3.org/2000/svg">
<path fill-rule="evenodd" clip-rule="evenodd" d="M27.3782 23.1631V21.183C26.086 22.6759 24.4323 23.418 22.4437 23.418C20.7692 23.418 19.3781 22.9145 18.4077 21.8654C17.439 20.8181 16.948 19.2904 16.948 17.3661V6.40605H21.1947V17.143C21.1947 18.1473 21.4236 18.8242 21.8054 19.2499C22.1827 19.6707 22.7755 19.9193 23.659 19.9193C25.0608 19.9193 26.2218 19.2013 27.1258 17.6274V6.40605H31.3725V23.1631H27.3782ZM37.2386 6.40605V23.1029C37.2386 25.1054 36.7485 26.7246 35.7093 27.898C34.6719 29.0692 33.1415 29.7351 31.179 29.9492L30.7133 30V26.5905L31.0591 26.5239C31.7065 26.3991 32.1624 26.0911 32.467 25.6136C32.78 25.1227 32.9616 24.4072 32.9616 23.4216V6.40605H37.2386ZM36.7869 0.584076L36.7907 0.587587C37.2648 1.02272 37.481 1.67214 37.4855 2.28375C37.49 2.89367 37.2841 3.54054 36.8201 3.96377L36.8168 3.96682L36.8134 3.9698C36.3505 4.37439 35.6968 4.55046 35.0887 4.55046C34.482 4.55046 33.8308 4.37492 33.3801 3.96377C32.9161 3.54054 32.7102 2.89367 32.7147 2.28375C32.7193 1.67214 32.9354 1.02272 33.4095 0.587587L33.41 0.587137L33.4105 0.586689C33.8587 0.177871 34.4926 0 35.0887 0C35.686 0 36.3227 0.178305 36.783 0.580662L36.7869 0.584076ZM48.711 17.6246H53.0194L52.8705 18.186C51.9906 21.5018 49.3072 23.418 45.6281 23.418C43.5191 23.418 41.7403 22.6762 40.3202 21.2204C38.8751 19.7389 38.188 17.5662 38.188 14.7846C38.188 12.0047 38.8743 9.79924 40.3202 8.3169C41.7436 6.85768 43.524 6.15109 45.6281 6.15109C47.7272 6.15109 49.5028 6.82212 50.9556 8.21066C52.433 9.62269 53.129 11.6044 53.129 14.1471V15.769H42.5562V16.0913C42.5562 17.6196 42.9062 18.6856 43.4423 19.3618C43.9704 20.028 44.7179 20.3655 45.6281 20.3655C46.4541 20.3655 47.086 20.1536 47.5616 19.7685C48.0381 19.3827 48.3993 18.7894 48.6246 17.9476L48.711 17.6246ZM62.9631 9.45858H58.9224V18.1629C58.9224 18.9922 59.0824 19.5271 59.33 19.8489C59.5635 20.1523 59.9279 20.3336 60.5056 20.3336C61.0047 20.3336 61.7572 20.2153 62.7574 19.9927L63.2669 19.8793V22.7814L62.9821 22.8841C61.9611 23.2523 60.9116 23.418 59.8068 23.418C58.1583 23.418 56.8487 23.032 55.9576 22.0972C55.0666 21.1626 54.6757 19.7651 54.6757 17.9398V9.45858H52.5794V6.40605H54.6757V3.51021L58.9224 2.35672V6.40605H62.9631V9.45858ZM68.1337 6.40605V23.1631H63.8566V6.40605H68.1337ZM67.7427 0.584076L67.7465 0.587587C68.2206 1.02275 68.4375 1.67295 68.4375 2.28718C68.4375 2.90071 68.2206 3.54858 67.7388 3.9698C67.2758 4.37457 66.6218 4.55046 66.0103 4.55046C65.4003 4.55046 64.748 4.3754 64.2851 3.97262C63.7881 3.55345 63.5604 2.90562 63.5604 2.28718C63.5604 1.66687 63.789 1.01503 64.2806 0.581776L64.2813 0.581218L64.2819 0.580662C64.7449 0.175885 65.3989 0 66.0103 0C66.6218 0 67.2758 0.175885 67.7388 0.580662L67.7427 0.584076ZM43.381 10.0692C42.8674 10.6967 42.561 11.6264 42.5562 12.8121H48.7C48.6953 11.5758 48.3874 10.6489 47.8775 10.0361C47.3702 9.42648 46.6206 9.07613 45.6281 9.07613C44.6433 9.07613 43.8921 9.44482 43.381 10.0692ZM0 23.6057H8.91891C11.2245 23.6057 12.9536 23.0318 14.1368 21.8839C15.2896 20.7678 15.8659 19.3648 15.8659 17.7067C15.8659 15.1877 14.2924 13.2586 11.9565 12.7165C14.1368 12.0561 15.3199 9.95832 15.3199 7.66249C15.3199 6.03628 14.7435 4.63328 13.5907 3.51725C12.4379 2.40122 10.7088 1.82727 8.40319 1.82727H0V7.05056H4.72603V4.04052L12.3214 8.37851L4.72603 12.7165V9.70647H0V15.7265H4.72603V12.7165L12.3214 17.0545L4.72603 21.3925V18.3824H0V23.6057Z" fill="#242628"/>
</svg>
