<svg width="18" height="16" viewBox="0 0 18 16" fill="none" xmlns="http://www.w3.org/2000/svg">
<g clip-path="url(#clip0_5824_30765)">
<path d="M12.6364 0H6.81818C5.81455 0 5 0.814545 5 1.81818V14.1818C5 15.1855 5.81455 16 6.81818 16H12.6364C13.64 16 14.4545 15.1855 14.4545 14.1818V1.81818C14.4545 0.814545 13.64 0 12.6364 0ZM9.72727 15.2727C9.12364 15.2727 8.63636 14.7855 8.63636 14.1818C8.63636 13.5782 9.12364 13.0909 9.72727 13.0909C10.3309 13.0909 10.8182 13.5782 10.8182 14.1818C10.8182 14.7855 10.3309 15.2727 9.72727 15.2727ZM13 12.3636H6.45455V2.18182H13V12.3636Z" fill="#D28B28"/>
</g>
<defs>
<clipPath id="clip0_5824_30765">
<rect width="17.0423" height="16" fill="white" transform="translate(0.662109)"/>
</clipPath>
</defs>
</svg>
