<svg width="30" height="30" viewBox="0 0 30 30" fill="none" xmlns="http://www.w3.org/2000/svg">
<path d="M20 12H19.1429V10.2857C19.1429 7.92 17.2229 6 14.8571 6C12.4914 6 10.5714 7.92 10.5714 10.2857V12H9.71429C8.77143 12 8 12.7714 8 13.7143V22.2857C8 23.2286 8.77143 24 9.71429 24H20C20.9429 24 21.7143 23.2286 21.7143 22.2857V13.7143C21.7143 12.7714 20.9429 12 20 12ZM14.8571 19.7143C13.9143 19.7143 13.1429 18.9429 13.1429 18C13.1429 17.0571 13.9143 16.2857 14.8571 16.2857C15.8 16.2857 16.5714 17.0571 16.5714 18C16.5714 18.9429 15.8 19.7143 14.8571 19.7143ZM17.5143 12H12.2V10.2857C12.2 8.82 13.3914 7.62857 14.8571 7.62857C16.3229 7.62857 17.5143 8.82 17.5143 10.2857V12Z" fill="#BFFF0B"/>
</svg>
