<svg width="20" height="20" viewBox="0 0 20 20" fill="none" xmlns="http://www.w3.org/2000/svg">
<path d="M17.4 5.422C16.862 5.66826 16.2893 5.83016 15.702 5.902C16.325 5.518 16.7876 4.9211 17.004 4.222C16.434 4.57 15.804 4.822 15.126 4.954C14.8524 4.65316 14.5189 4.41288 14.1469 4.24858C13.7749 4.08429 13.3726 3.99961 12.966 4C12.5136 4.00463 12.0682 4.11171 11.6631 4.31321C11.258 4.51471 10.9039 4.80538 10.6273 5.16339C10.3507 5.5214 10.1589 5.93743 10.0662 6.38024C9.97343 6.82304 9.98227 7.2811 10.092 7.72C8.90997 7.65547 7.75531 7.3395 6.70513 6.7932C5.65494 6.24689 4.73338 5.48282 4.002 4.552C3.62045 5.21949 3.50307 6.00578 3.67303 6.75561C3.84299 7.50543 4.28793 8.16426 4.92 8.602C4.44939 8.58485 3.99008 8.45303 3.582 8.218V8.26C3.582 9.724 4.602 10.948 5.952 11.23C5.51772 11.3491 5.06171 11.3655 4.62 11.278C4.998 12.484 6.09 13.36 7.38 13.384C6.7719 13.8773 6.07069 14.2431 5.31818 14.4596C4.56567 14.676 3.77727 14.7388 3 14.644C4.34429 15.5306 5.91967 16.0021 7.53 16C12.966 16 15.93 11.38 15.93 7.378V6.988C16.506 6.562 17.004 6.028 17.4 5.422Z" fill="#586068"/>
</svg>
