<svg width="18" height="16" viewBox="0 0 18 16" fill="none" xmlns="http://www.w3.org/2000/svg">
<g clip-path="url(#clip0_5824_30746)">
<path d="M15.4444 2.55556H13.8889V1H6.11111V2.55556H4.55556C3.7 2.55556 3 3.25556 3 4.11111V4.88889C3 6.87222 4.49333 8.49 6.41444 8.73111C6.90444 9.89778 7.95444 10.7767 9.22222 11.0333V13.4444H6.11111V15H13.8889V13.4444H10.7778V11.0333C12.0456 10.7767 13.0956 9.89778 13.5856 8.73111C15.5067 8.49 17 6.87222 17 4.88889V4.11111C17 3.25556 16.3 2.55556 15.4444 2.55556ZM4.55556 4.88889V4.11111H6.11111V7.08222C5.20889 6.75556 4.55556 5.9 4.55556 4.88889ZM15.4444 4.88889C15.4444 5.9 14.7911 6.75556 13.8889 7.08222V4.11111H15.4444V4.88889Z" fill="#D28B28"/>
</g>
<defs>
<clipPath id="clip0_5824_30746">
<rect width="17.0423" height="16" fill="white" transform="translate(0.742188)"/>
</clipPath>
</defs>
</svg>
