<svg width="20" height="20" viewBox="0 0 20 20" fill="none" xmlns="http://www.w3.org/2000/svg">
<path d="M13.5 3H6.5C4.567 3 3 4.567 3 6.5V13.5C3 15.433 4.567 17 6.5 17H13.5C15.433 17 17 15.433 17 13.5V6.5C17 4.567 15.433 3 13.5 3Z" stroke="#D9DDD5" stroke-width="2" stroke-linecap="round" stroke-linejoin="round"/>
<path d="M12.8002 9.55897C12.8866 10.1415 12.7871 10.7365 12.5158 11.2593C12.2446 11.782 11.8154 12.206 11.2893 12.4707C10.7633 12.7355 10.1671 12.8277 9.58564 12.7341C9.00417 12.6406 8.46702 12.366 8.05057 11.9496C7.63413 11.5331 7.3596 10.996 7.26603 10.4145C7.17247 9.83305 7.26463 9.23689 7.52941 8.71083C7.7942 8.18476 8.21812 7.75559 8.74088 7.48434C9.26363 7.21309 9.85861 7.11358 10.4412 7.19997C11.0354 7.28809 11.5856 7.56499 12.0104 7.98978C12.4352 8.41457 12.7121 8.96472 12.8002 9.55897Z" stroke="#D9DDD5" stroke-width="2" stroke-linecap="round" stroke-linejoin="round"/>
<path d="M13.8516 6.15002H13.8586" stroke="#D9DDD5" stroke-width="1.5" stroke-linecap="round" stroke-linejoin="round"/>
</svg>
