<svg width="16" height="16" viewBox="0 0 16 16" fill="none" xmlns="http://www.w3.org/2000/svg">
<path d="M6.66732 10.6667V10H2.00732L2.00065 12.6667C2.00065 13.4067 2.59398 14 3.33398 14H12.6673C13.4073 14 14.0007 13.4067 14.0007 12.6667V10H9.33398V10.6667H6.66732ZM13.334 4.66667H10.6607V3.33333L9.32732 2H6.66065L5.32732 3.33333V4.66667H2.66732C1.93398 4.66667 1.33398 5.26667 1.33398 6V8C1.33398 8.74 1.92732 9.33333 2.66732 9.33333H6.66732V8H9.33398V9.33333H13.334C14.0673 9.33333 14.6673 8.73333 14.6673 8V6C14.6673 5.26667 14.0673 4.66667 13.334 4.66667ZM9.33398 4.66667H6.66732V3.33333H9.33398V4.66667Z" fill="#D28B28"/>
</svg>
