<svg width="35" height="35" viewBox="0 0 35 35" fill="none" xmlns="http://www.w3.org/2000/svg">
<path d="M29.9009 22.4505C29.01 24.5573 27.6166 26.4138 25.8426 27.8576C24.0685 29.3015 21.9677 30.2888 19.7239 30.7332C17.4801 31.1776 15.1616 31.0655 12.9711 30.4069C10.7806 29.7483 8.7848 28.5631 7.15817 26.9549C5.53154 25.3467 4.32361 23.3646 3.64 21.1818C2.95639 18.9989 2.81791 16.6818 3.23666 14.4331C3.65541 12.1844 4.61864 10.0725 6.04214 8.28204C7.46565 6.49158 9.30608 5.07709 11.4025 4.16223" stroke="#D28B28" stroke-width="1.5" stroke-linecap="round" stroke-linejoin="round"/>
<path d="M31.0072 17.0033C31.0072 15.1643 30.645 13.3434 29.9413 11.6445C29.2375 9.9455 28.206 8.40179 26.9057 7.10147C25.6054 5.80114 24.0617 4.76967 22.3627 4.06594C20.6638 3.36221 18.8428 3 17.0039 3V17.0033H31.0072Z" stroke="#D28B28" stroke-width="1.5" stroke-linecap="round" stroke-linejoin="round"/>
</svg>
