<svg width="1095" height="814" viewBox="0 0 1095 814" fill="none" xmlns="http://www.w3.org/2000/svg">
<path fill-rule="evenodd" clip-rule="evenodd" d="M453.93 377.861L453.539 452.15L451.785 452.141L452.177 377.852C452.285 357.339 457.39 341.823 467.36 331.461C477.29 321.14 489.75 316.012 504.125 316.083C523.389 316.179 541.162 325.881 547.821 343.84C553.578 324.418 570.208 311.583 591.498 311.688C606.148 311.761 618.554 317.01 628.376 327.43C638.511 338.159 643.454 353.723 643.346 374.239L642.93 453.087L641.177 453.079L641.592 374.23C641.699 353.982 636.82 338.923 627.101 328.634C617.62 318.576 605.677 313.512 591.489 313.442C569.999 313.335 553.5 326.875 548.769 347.111L548.009 350.36L547.073 347.158C541.566 328.316 523.795 317.934 504.116 317.837C490.207 317.768 478.212 322.711 468.623 332.676C459.076 342.6 454.037 357.609 453.93 377.861ZM470.626 411.329L510.217 341.709L547.587 409.043L585.665 342.082L624.52 412.091L586.153 411.901L586.162 410.148L621.533 410.323L585.647 345.663L549.081 409.964L579.148 410.113L579.138 411.866L516.008 411.554L516.017 409.8L546.084 409.949L510.198 345.289L473.632 409.591L509.003 409.766L508.993 411.519L470.626 411.329Z" fill="url(#paint0_linear_6226_19203)"/>
<path fill-rule="evenodd" clip-rule="evenodd" d="M4.96945 380.441L2.71847 807.602L0.964844 807.594L3.21582 380.432C3.83411 263.102 32.984 175.092 89.219 116.548C145.414 58.0467 215.843 29.0008 297.262 29.4039C365.094 29.7397 429.401 51.0688 477.409 91.4248C484.157 97.0974 494.21 101.178 505.953 103.667C517.681 106.152 531.019 107.033 544.268 106.362C557.518 105.691 570.648 103.47 581.962 99.7671C593.291 96.06 602.722 90.8935 608.656 84.3849C654.895 33.6641 721.402 3.74529 798.848 4.12872C881.856 4.53968 951.976 34.2793 1007.55 93.3358C1064.75 153.981 1092.97 242.275 1092.35 359.608L1089.97 812.985L1088.21 812.977L1090.6 359.6C1091.22 242.534 1063.06 154.745 1006.28 94.5389L1006.28 94.5382C951.04 35.8441 881.384 6.29069 798.838 5.88202C721.869 5.50095 655.843 35.2266 609.952 85.5658C603.731 92.3888 593.98 97.6793 582.507 101.433C571.02 105.192 557.732 107.436 544.357 108.113C530.98 108.791 517.487 107.904 505.589 105.382C493.705 102.864 483.337 98.6993 476.28 92.767C428.629 52.7107 364.735 31.4913 297.253 31.1572C216.302 30.7564 146.337 59.6166 90.4836 117.763C34.6702 175.867 5.58636 263.372 4.96945 380.441Z" fill="url(#paint1_linear_6226_19203)"/>
<path fill-rule="evenodd" clip-rule="evenodd" d="M413.053 423.123C414.401 410.702 416.424 390.508 419.148 354.098L419.153 354.037L419.166 353.977C424.394 329.973 435.501 313.216 452.027 303.877L452.054 303.862L452.082 303.849C464.542 297.926 477.571 296.156 489.554 298.337C501.825 300.571 514.963 301.211 527.318 299.68C528.178 299.574 529.038 299.487 529.899 299.421C552.702 297.67 584.562 294.398 607.158 290.97C614.149 289.909 621.64 290.138 629.434 291.841L629.468 291.848L629.502 291.858C647.039 297.188 660.341 308.988 669.184 327.287C670.253 329.499 670.979 331.844 671.481 334.214L683.242 389.649C683.775 392.162 684.037 394.726 684.024 397.295L683.557 485.812L681.804 485.804L682.27 397.287C682.283 394.842 682.034 392.404 681.527 390.013L669.766 334.578C669.285 332.311 668.599 330.106 667.605 328.05C658.957 310.156 646.029 298.723 629.025 293.546C621.442 291.894 614.179 291.678 607.42 292.703C584.768 296.14 552.862 299.416 530.033 301.169C529.199 301.233 528.366 301.317 527.533 301.42C514.978 302.976 501.66 302.323 489.239 300.062C477.654 297.954 465.007 299.653 452.862 305.419C436.912 314.444 426.048 330.677 420.892 354.29C418.17 390.679 416.146 410.877 414.796 423.311C414.506 425.983 414.247 428.292 414.02 430.324C413.185 437.78 412.769 441.498 412.747 445.638L410.994 445.629C411.016 441.389 411.445 437.554 412.283 430.072C412.51 428.049 412.766 425.759 413.053 423.123Z" fill="url(#paint2_linear_6226_19203)"/>
<path fill-rule="evenodd" clip-rule="evenodd" d="M375.267 447.886C371.975 442.309 370.123 435.902 370.65 429.379C371.36 420.59 372.965 411.124 375.451 396.705C375.547 396.15 375.644 395.587 375.743 395.016C378.202 380.766 381.484 361.742 385.594 334.096C385.97 331.564 386.604 329.012 387.587 326.616C398.043 301.127 414.628 284.342 436.652 276.377L436.681 276.366L436.711 276.358C451.892 272.041 467.141 271.869 480.776 275.612C500.335 280.98 524.802 281.597 544.483 276.749C552.75 274.713 561.381 274.255 569.967 275.529C584.758 277.725 600.746 276.163 614.727 270.885C630.44 264.954 648.576 264.765 667.341 272L667.38 272.015L667.417 272.033C689.852 283.215 705.071 303.68 712.904 333.553L712.916 333.598L724.358 409.99C724.631 411.814 724.763 413.657 724.754 415.502L724.211 518.526L722.457 518.518L723 415.493C723.009 413.738 722.883 411.985 722.623 410.25L711.196 333.952C703.461 304.493 688.524 284.527 666.671 273.621C648.299 266.548 630.623 266.759 615.346 272.526C601.074 277.913 584.784 279.501 569.709 277.263C561.353 276.023 552.953 276.468 544.902 278.451C524.915 283.375 500.143 282.746 480.311 277.303C467.019 273.654 452.109 273.808 437.22 278.036C415.748 285.81 399.505 302.184 389.209 327.281C388.291 329.52 387.688 331.931 387.328 334.354C383.216 362.019 379.93 381.06 377.471 395.313C377.373 395.884 377.275 396.447 377.18 397.002C374.689 411.444 373.1 420.826 372.398 429.519C371.905 435.617 373.633 441.668 376.777 446.994L417.839 516.56L416.329 517.451L375.267 447.886Z" fill="url(#paint3_linear_6226_19203)"/>
<path fill-rule="evenodd" clip-rule="evenodd" d="M331.477 438.564C330.136 434.711 329.424 430.641 329.576 426.536C330.381 404.873 334.928 385.394 343.13 350.258C345.774 338.931 348.798 325.978 352.198 310.799C352.838 307.944 353.813 305.116 355.212 302.512C370.629 273.833 392.949 255.938 421.218 248.912L421.242 248.906L421.267 248.901C440.213 245.334 458.941 246.632 475.397 252.5C498.976 260.908 533.755 261.017 557.241 252.373C570.789 247.386 585.654 245.909 600.72 248.529C610.795 250.28 621.278 249.435 630.898 245.984C653.85 237.751 679.635 238.875 705.196 252.162L705.23 252.179L705.262 252.2C731.554 268.898 748.197 296.911 755.078 336.492L755.083 336.52L765.478 432.023L764.85 551.242L763.097 551.233L763.724 432.115L753.345 336.765C746.524 297.557 730.095 270.063 704.353 253.7C679.224 240.649 653.959 239.575 631.49 247.634C621.577 251.19 610.786 252.059 600.419 250.256C585.659 247.69 571.107 249.138 557.847 254.018C533.964 262.809 498.762 262.693 474.807 254.151C458.676 248.399 440.275 247.111 421.616 250.62C393.887 257.519 371.959 275.061 356.757 303.342C355.446 305.78 354.521 308.453 353.909 311.182C350.489 326.447 347.455 339.448 344.807 350.794C336.623 385.855 332.127 405.12 331.329 426.6C331.185 430.46 331.854 434.312 333.133 437.987L371.774 549.003L370.118 549.58L331.477 438.564Z" fill="url(#paint4_linear_6226_19203)"/>
<path fill-rule="evenodd" clip-rule="evenodd" d="M289.589 430.177C288.984 427.511 288.674 424.776 288.731 422.028C289.525 384.167 298.715 353.755 315.974 296.637C316.921 293.501 317.893 290.285 318.889 286.982C319.742 284.155 320.934 281.394 322.53 278.88C342.931 246.743 371.084 227.582 405.764 221.459L405.803 221.453C429.312 218.385 452.33 221.328 472.183 229.889C485.053 235.438 502.485 238.109 519.91 237.851C537.336 237.592 554.643 234.404 567.268 228.327C585.536 219.534 606.493 216.184 628.261 219.476C635.381 220.553 642.678 220.109 649.591 218.112C679.992 209.329 712.354 212.988 743.033 232.318L743.06 232.335L743.086 232.354C773.236 254.557 791.314 290.108 797.251 339.403L797.255 339.438L806.197 451.309L805.498 583.955L803.745 583.946L804.443 451.375L795.51 339.613C795.509 339.607 795.509 339.601 795.508 339.595C789.609 290.645 771.701 255.616 742.071 233.784C711.822 214.735 679.987 211.155 650.078 219.797C642.916 221.866 635.362 222.324 627.998 221.21C606.575 217.97 585.975 221.268 568.029 229.907C555.1 236.13 537.519 239.343 519.936 239.604C502.352 239.865 484.655 237.175 471.488 231.499C451.957 223.077 429.267 220.163 406.049 223.189C371.893 229.225 344.16 248.077 324.011 279.819C322.513 282.178 321.382 284.789 320.568 287.488C319.585 290.746 318.627 293.919 317.692 297.014C300.393 354.267 291.274 384.451 290.485 422.065C290.43 424.656 290.723 427.248 291.299 429.789L325.672 581.381L323.961 581.769L289.589 430.177Z" fill="url(#paint5_linear_6226_19203)"/>
<path fill-rule="evenodd" clip-rule="evenodd" d="M248.309 422.436C248.021 420.566 247.877 418.664 247.903 416.765C248.612 365.713 261.387 326.466 285.673 262.86C286.657 260.283 287.937 257.791 289.547 255.526C314.974 219.767 349.046 199.254 390.262 194.032L390.292 194.029C418.98 191.393 446.874 196.231 470.461 208.019C483.931 214.75 503.656 217.875 523.341 217.377C543.028 216.878 562.507 212.759 575.497 205.153C598.229 191.842 625.361 185.955 654.194 189.455C659.295 190.074 664.477 189.847 669.49 188.743C707.484 180.379 745.853 187.232 780.821 212.488L780.842 212.503L780.861 212.519C814.872 240.22 834.392 283.308 839.389 342.318L839.391 342.341L846.884 470.611L846.114 616.687L844.361 616.678L845.13 470.658L837.642 342.467C837.641 342.463 837.641 342.459 837.641 342.455C832.669 283.768 813.288 241.203 779.773 213.895C745.222 188.947 707.372 182.198 669.867 190.455C664.655 191.603 659.275 191.838 653.982 191.196C625.522 187.741 598.777 193.553 576.383 206.666C563.038 214.48 543.227 218.627 523.385 219.129C503.541 219.632 483.498 216.494 469.677 209.587C446.414 197.962 418.857 193.168 390.467 195.774C349.763 200.935 316.127 221.171 290.976 256.542C289.463 258.67 288.249 261.027 287.311 263.485C263.032 327.074 250.361 366.07 249.657 416.789C249.632 418.583 249.768 420.388 250.042 422.169L279.522 613.744L277.789 614.011L248.309 422.436Z" fill="url(#paint6_linear_6226_19203)"/>
<path fill-rule="evenodd" clip-rule="evenodd" d="M207.111 413.072L207.111 413.024C207.443 349.976 222.864 302.507 252.637 238.52C253.659 236.323 254.912 234.208 256.402 232.279C286.897 192.802 326.953 170.892 374.786 166.58L374.808 166.578C409.174 164.371 442.4 171.368 469.923 186.884C483.697 194.648 505.276 198.163 526.784 197.454C548.295 196.745 569.506 191.819 582.561 182.912C609.58 164.479 643.013 155.523 679.264 158.92C682.906 159.261 686.585 159.148 690.192 158.562C735.799 151.165 779.829 161.562 818.635 192.626L818.666 192.65C856.538 225.846 877.504 276.469 881.562 345.198L881.563 345.213L887.609 489.904L886.768 649.392L885.014 649.383L885.855 489.916L879.812 345.302C879.812 345.299 879.812 345.296 879.811 345.293C875.769 276.873 854.92 226.77 817.524 193.982C779.118 163.245 735.596 152.974 690.472 160.293C686.715 160.903 682.886 161.02 679.1 160.665C643.244 157.306 610.221 166.164 583.549 184.36C570.098 193.537 548.5 198.493 526.842 199.207C505.181 199.921 483.232 196.4 469.062 188.411C441.868 173.081 408.99 166.142 374.93 168.328C327.598 172.597 287.989 194.256 257.79 233.351C256.388 235.166 255.2 237.168 254.227 239.259C224.515 303.116 209.203 350.315 208.865 412.984L233.403 646.061L231.659 646.245L207.111 413.072Z" fill="url(#paint7_linear_6226_19203)"/>
<path fill-rule="evenodd" clip-rule="evenodd" d="M166.323 406.551L166.323 406.518C166.712 332.759 184.807 277.269 219.721 214.112C220.688 212.363 221.815 210.68 223.09 209.13C258.686 165.877 304.773 142.545 359.28 139.157L359.296 139.156C399.751 137.396 438.675 146.809 470.25 166.514C484.144 175.185 507.228 179.041 530.212 178.153C553.199 177.266 575.799 171.645 588.749 161.635C619.898 137.558 659.751 125.089 703.732 128.157C706.276 128.334 708.847 128.283 711.378 127.992C764.565 121.881 814.034 136.009 856.419 172.786L856.44 172.805C898.176 211.492 920.59 269.649 923.713 348.098L923.713 348.108L928.31 509.165L928.31 509.195L927.399 682.123L925.645 682.114L926.556 509.186L921.961 348.168C921.961 348.165 921.96 348.163 921.96 348.16C918.848 270.009 896.535 212.37 855.258 174.101C813.259 137.663 764.287 123.677 711.577 129.734C708.937 130.037 706.258 130.091 703.61 129.906C660.043 126.867 620.619 139.217 589.822 163.022C576.444 173.363 553.405 179.013 530.279 179.905C507.151 180.798 483.649 176.943 469.321 168.001C438.082 148.506 399.519 139.162 359.379 140.907C305.364 144.268 259.731 167.367 224.444 210.244C223.242 211.704 222.175 213.297 221.256 214.96C186.457 277.907 168.469 333.103 168.077 406.494L187.259 678.392L185.51 678.516L166.323 406.551Z" fill="url(#paint8_linear_6226_19203)"/>
<path fill-rule="evenodd" clip-rule="evenodd" d="M125.559 399.991C126.009 314.582 147.237 250.595 188.178 187.779L188.209 187.732L188.245 187.69C229.178 139.526 281.843 114.196 343.793 111.712L343.804 111.711C390.696 110.428 435.621 122.5 471.306 146.819C485.202 156.29 509.509 160.448 533.689 159.412C557.873 158.375 581.588 152.156 594.336 141.205C629.469 111.027 675.855 94.6614 727.852 97.234C729.543 97.3176 731.256 97.2974 732.942 97.1688C793.658 92.5403 848.417 110.505 894.221 152.921L894.235 152.935C939.835 197.113 963.7 262.804 965.887 350.973L965.887 350.979L969.035 528.444L969.036 528.464L968.053 714.833L966.3 714.824L967.282 528.456L964.133 351.017C961.954 263.134 938.178 197.955 893.022 154.202C847.59 112.133 793.319 94.3245 733.075 98.9171C731.314 99.0513 729.528 99.0724 727.765 98.9852C676.2 96.434 630.258 112.66 595.479 142.535C582.279 153.874 558.075 160.121 533.763 161.163C509.447 162.206 484.68 158.056 470.318 148.268C434.975 124.182 390.425 112.191 343.857 113.464C282.417 115.929 230.226 141.022 189.617 188.782C148.878 251.302 127.765 314.946 127.313 399.978L141.138 710.695L139.386 710.774L125.559 399.991Z" fill="url(#paint9_linear_6226_19203)"/>
<path fill-rule="evenodd" clip-rule="evenodd" d="M84.7715 393.474C85.2781 297.423 109.147 225.431 155.185 164.034L155.207 164.004L155.232 163.976C201.253 112.367 259.84 85.7992 328.279 84.2785L328.286 84.2784C381.912 83.5039 433.091 98.4589 472.902 127.779C479.794 132.855 489.56 136.516 500.79 138.758C512.009 140.997 524.627 141.809 537.174 141.23C549.72 140.651 562.17 138.683 573.051 135.378C583.944 132.069 593.204 127.439 599.432 121.577C638.734 84.5848 692.317 63.9509 753.213 66.2966C822.035 62.88 882.507 84.7061 931.995 133.065L932.003 133.073C981.468 182.741 1006.78 255.966 1008.04 353.856L1009.74 547.732L1009.74 547.745L1008.68 747.553L1006.93 747.544L1007.98 547.748L1007.98 547.736L1006.28 353.879C1005.03 256.266 979.796 183.549 930.762 134.313C881.629 86.3035 821.627 64.6464 753.261 68.0496L753.222 68.0516L753.183 68.0501C692.722 65.7117 639.589 86.1886 600.634 122.854C594.134 128.971 584.591 133.705 573.56 137.055C562.518 140.41 549.921 142.397 537.254 142.982C524.586 143.566 511.823 142.748 500.446 140.477C489.081 138.208 479.039 134.477 471.862 129.191C432.399 100.127 381.606 85.2624 328.314 86.0315C260.369 87.5421 202.254 113.893 156.565 165.115C110.801 226.162 87.032 297.763 86.5256 393.47C86.5256 393.474 86.5256 393.479 86.5255 393.483L94.992 743.004L93.2389 743.047L84.7715 393.474Z" fill="url(#paint10_linear_6226_19203)"/>
<path fill-rule="evenodd" clip-rule="evenodd" d="M44.0034 386.955C44.5657 280.263 71.0758 200.264 122.211 140.29L122.235 140.262C173.344 85.2069 237.852 57.401 312.781 56.8426C373.398 56.6082 431.053 74.6549 474.978 109.332C481.806 114.722 491.739 118.604 503.257 120.975C514.761 123.343 527.778 124.19 540.713 123.56C553.648 122.931 566.475 120.826 577.602 117.308C588.741 113.786 598.106 108.869 604.19 102.661C647.008 58.9713 706.992 33.8234 776.04 35.2144C851.956 33.7113 917.252 59.4945 969.785 113.203L969.788 113.207C1023.12 168.363 1049.89 249.123 1050.21 356.736L1050.46 567.017L1049.33 780.271L1047.58 780.262L1048.7 567.014L1048.45 356.74C1048.14 249.401 1021.44 169.147 968.528 114.426C916.343 61.0745 851.514 35.4697 776.057 36.9677L776.022 36.9677C707.43 35.5815 647.912 60.5538 605.442 103.888C599.078 110.382 589.41 115.413 578.13 118.98C566.836 122.551 553.857 124.676 540.798 125.311C527.738 125.947 514.572 125.094 502.903 122.692C491.247 120.293 481.017 116.334 473.891 110.708C430.318 76.3096 373.069 58.3635 312.794 58.5959C238.345 59.1508 174.305 86.7568 123.534 141.442C72.7434 201.018 46.3178 280.574 45.7571 386.963L48.865 775.306L47.1114 775.32L44.0034 386.955Z" fill="url(#paint11_linear_6226_19203)"/>
<path fill-rule="evenodd" clip-rule="evenodd" d="M508.995 410.345L508.773 452.424L507.02 452.415L507.241 410.336L508.995 410.345Z" fill="url(#paint12_linear_6226_19203)"/>
<path fill-rule="evenodd" clip-rule="evenodd" d="M587.026 410.735L586.804 452.814L585.051 452.805L585.273 410.726L587.026 410.735Z" fill="url(#paint13_linear_6226_19203)"/>
<defs>
<linearGradient id="paint0_linear_6226_19203" x1="601.502" y1="245.941" x2="619.219" y2="418.034" gradientUnits="userSpaceOnUse">
<stop stop-color="#BFFF0B" stop-opacity="0.85"/>
<stop offset="1" stop-color="#BFFF0B" stop-opacity="0"/>
</linearGradient>
<linearGradient id="paint1_linear_6226_19203" x1="853.962" y1="-371.991" x2="955.739" y2="612.376" gradientUnits="userSpaceOnUse">
<stop stop-color="#BFFF0B" stop-opacity="0.85"/>
<stop offset="1" stop-color="#BFFF0B" stop-opacity="0"/>
</linearGradient>
<linearGradient id="paint2_linear_6226_19203" x1="624.389" y1="199.397" x2="648.104" y2="437.501" gradientUnits="userSpaceOnUse">
<stop stop-color="#BFFF0B" stop-opacity="0.85"/>
<stop offset="1" stop-color="#BFFF0B" stop-opacity="0"/>
</linearGradient>
<linearGradient id="paint3_linear_6226_19203" x1="647.388" y1="149.039" x2="677.859" y2="456.608" gradientUnits="userSpaceOnUse">
<stop stop-color="#BFFF0B" stop-opacity="0.85"/>
<stop offset="1" stop-color="#BFFF0B" stop-opacity="0"/>
</linearGradient>
<linearGradient id="paint4_linear_6226_19203" x1="670.275" y1="96.1864" x2="707.773" y2="474.769" gradientUnits="userSpaceOnUse">
<stop stop-color="#BFFF0B" stop-opacity="0.85"/>
<stop offset="1" stop-color="#BFFF0B" stop-opacity="0"/>
</linearGradient>
<linearGradient id="paint5_linear_6226_19203" x1="693.216" y1="41.1982" x2="738.125" y2="492.58" gradientUnits="userSpaceOnUse">
<stop stop-color="#BFFF0B" stop-opacity="0.85"/>
<stop offset="1" stop-color="#BFFF0B" stop-opacity="0"/>
</linearGradient>
<linearGradient id="paint6_linear_6226_19203" x1="716.142" y1="-15.3636" x2="768.74" y2="510.141" gradientUnits="userSpaceOnUse">
<stop stop-color="#BFFF0B" stop-opacity="0.85"/>
<stop offset="1" stop-color="#BFFF0B" stop-opacity="0"/>
</linearGradient>
<linearGradient id="paint7_linear_6226_19203" x1="739.113" y1="-73.1456" x2="799.609" y2="527.468" gradientUnits="userSpaceOnUse">
<stop stop-color="#BFFF0B" stop-opacity="0.85"/>
<stop offset="1" stop-color="#BFFF0B" stop-opacity="0"/>
</linearGradient>
<linearGradient id="paint8_linear_6226_19203" x1="762.068" y1="-131.801" x2="830.621" y2="544.661" gradientUnits="userSpaceOnUse">
<stop stop-color="#BFFF0B" stop-opacity="0.85"/>
<stop offset="1" stop-color="#BFFF0B" stop-opacity="0"/>
</linearGradient>
<linearGradient id="paint9_linear_6226_19203" x1="785.051" y1="-191.165" x2="861.784" y2="561.71" gradientUnits="userSpaceOnUse">
<stop stop-color="#BFFF0B" stop-opacity="0.85"/>
<stop offset="1" stop-color="#BFFF0B" stop-opacity="0"/>
</linearGradient>
<linearGradient id="paint10_linear_6226_19203" x1="808.013" y1="-251.049" x2="893.023" y2="578.673" gradientUnits="userSpaceOnUse">
<stop stop-color="#BFFF0B" stop-opacity="0.85"/>
<stop offset="1" stop-color="#BFFF0B" stop-opacity="0"/>
</linearGradient>
<linearGradient id="paint11_linear_6226_19203" x1="830.996" y1="-311.353" x2="924.359" y2="595.556" gradientUnits="userSpaceOnUse">
<stop stop-color="#BFFF0B" stop-opacity="0.85"/>
<stop offset="1" stop-color="#BFFF0B" stop-opacity="0"/>
</linearGradient>
<linearGradient id="paint12_linear_6226_19203" x1="508.708" y1="390.727" x2="522.362" y2="394.696" gradientUnits="userSpaceOnUse">
<stop stop-color="#BFFF0B" stop-opacity="0.85"/>
<stop offset="1" stop-color="#BFFF0B" stop-opacity="0"/>
</linearGradient>
<linearGradient id="paint13_linear_6226_19203" x1="586.739" y1="391.117" x2="600.394" y2="395.086" gradientUnits="userSpaceOnUse">
<stop stop-color="#BFFF0B" stop-opacity="0.85"/>
<stop offset="1" stop-color="#BFFF0B" stop-opacity="0"/>
</linearGradient>
</defs>
</svg>
