<svg width="18" height="17" viewBox="0 0 18 17" fill="none" xmlns="http://www.w3.org/2000/svg">
<g clip-path="url(#clip0_5824_30752)">
<path d="M10 2C6.136 2 3 5.136 3 9C3 12.864 6.136 16 10 16C13.864 16 17 12.864 17 9C17 5.136 13.864 2 10 2ZM9.3 14.551C6.535 14.208 4.4 11.856 4.4 9C4.4 8.566 4.456 8.153 4.547 7.747L7.9 11.1V11.8C7.9 12.57 8.53 13.2 9.3 13.2V14.551ZM14.13 12.773C13.948 12.206 13.43 11.8 12.8 11.8H12.1V9.7C12.1 9.315 11.785 9 11.4 9H7.2V7.6H8.6C8.985 7.6 9.3 7.285 9.3 6.9V5.5H10.7C11.47 5.5 12.1 4.87 12.1 4.1V3.813C14.151 4.646 15.6 6.655 15.6 9C15.6 10.456 15.04 11.779 14.13 12.773Z" fill="#D28B28"/>
</g>
<defs>
<clipPath id="clip0_5824_30752">
<rect width="17.0423" height="16" fill="white" transform="translate(0.742188 0.9375)"/>
</clipPath>
</defs>
</svg>
